<?xml version="1.0" standalone="no"?><!DOCTYPE svg PUBLIC "-//W3C//DTD SVG 1.1//EN" "http://www.w3.org/Graphics/SVG/1.1/DTD/svg11.dtd"><svg t="1732347157866" class="icon" viewBox="0 0 1024 1024" version="1.1" xmlns="http://www.w3.org/2000/svg" p-id="4847" xmlns:xlink="http://www.w3.org/1999/xlink" width="200" height="200"><path d="M715.716402 813.420811a190.171429 190.171429 0 0 0-11.738977-57.611287c-2.708995-8.668783-5.23739-17.156966-9.210582-25.103351L512 0 329.052557 730.886772a208.050794 208.050794 0 0 1-0.180599 0.541799l0.180599-0.541799-0.361199 0.902999c-3.250794 7.043386-5.417989 14.267372-8.126984 21.852557a190.171429 190.171429 0 0 0-12.641975 61.945679l1.083597-4.695591c0 3.070194-1.625397 5.23739-1.625396 8.307584a204.8 204.8 0 0 0 409.6 0c0-2.167196-1.083598-3.611993-1.264198-5.779189z m-27.270547-92.286419z m-49.845502-58.875485z m-56.888889-33.772135z m-69.711464-14.086772z m-91.92522 24.380952z m92.10582 334.109348a153.6903 153.6903 0 0 1 0-307.2 153.5097 153.5097 0 0 1 0 307.2z" fill="#231815" p-id="4848"></path></svg>