<svg width="190.404068" height="164.902740" viewBox="0 0 190.404 164.903" fill="none" xmlns="http://www.w3.org/2000/svg" xmlns:xlink="http://www.w3.org/1999/xlink">
	<desc>
			Created with Pixso.
	</desc>
	<defs/>
	<path id="path" d="M150 19.9C153 22.4 155.06 23.95 155.06 23.95C157.82 26.65 160.38 29.54 162.73 32.6C165.09 35.66 167.22 38.88 169.13 42.24C171.03 45.6 172.7 49.08 174.11 52.67Q175.18 55.37 176.05 58.12Q176.92 60.88 177.6 63.7L178.72 63.7C185.73 63.7 191.21 69.8 190.3 76.81C184.2 126.49 143.96 164.9 95.2 164.9C46.43 164.9 6.19 126.49 0.1 76.81C-0.83 69.8 4.67 63.7 11.68 63.7L15.84 63.7C24.73 26.46 57.96 0 96.72 0C106.25 0 116 1.4 124.47 4.82C127.5 5.9 128.5 6.4 131.5 7.9C134.91 9.53 135.15 9.66 135.4 9.78C135.6 9.88 135.8 9.97 137.65 10.84C140.25 12.32 142.76 13.95 145.18 15.7C145.18 15.7 148 17.4 150 19.9ZM12.59 76.19C18.39 119.78 53.74 152.39 95.2 152.39C136.65 152.39 172.01 119.79 177.8 76.19L12.59 76.19Z" fill="#2C2C2C" fill-opacity="1.000000" fill-rule="evenodd"/>
</svg>
