<svg width="190.404068" height="164.902740" viewBox="0 0 190.404 164.903" fill="none" xmlns="http://www.w3.org/2000/svg" xmlns:xlink="http://www.w3.org/1999/xlink">
	<desc>
			Created with Pixso.
	</desc>
	<defs/>
	<path id="path" d="M155.06 23.95C155.06 23.95 153 22.4 150 19.9C148 17.4 145.18 15.7 145.18 15.7C142.76 13.95 140.25 12.32 137.65 10.84C133.5 8.9 137.65 10.84 131.5 7.9C128.5 6.4 127.5 5.9 124.47 4.82C116 1.4 106.25 0 96.72 0C57.96 0 24.73 26.46 15.84 63.7L11.68 63.7C4.67 63.7 -0.83 69.8 0.1 76.81C6.19 126.49 46.43 164.9 95.2 164.9C143.96 164.9 184.2 126.49 190.3 76.81C191.21 69.8 185.73 63.7 178.72 63.7L177.6 63.7C176.69 59.94 175.53 56.27 174.11 52.67C172.7 49.08 171.03 45.6 169.13 42.24C167.22 38.88 165.09 35.66 162.73 32.6C160.38 29.54 157.82 26.65 155.06 23.95ZM95.2 152.39C53.74 152.39 18.39 119.78 12.59 76.19L177.8 76.19C172.01 119.79 136.65 152.39 95.2 152.39ZM157.07 61.87L36.07 61.87C32.71 61.87 30.27 58.21 31.8 55.17C42.77 29.56 68.07 12.19 96.72 12.19C125.37 12.19 150.67 29.56 161.65 55.17C162.87 58.22 160.43 61.87 157.07 61.87Z" fill="#2C2C2C" fill-opacity="1.000000" fill-rule="nonzero"/>
</svg>
