<svg width="182.500000" height="169.000000" viewBox="0 0 182.5 169" fill="none" xmlns="http://www.w3.org/2000/svg" xmlns:xlink="http://www.w3.org/1999/xlink">
	<desc>
			Created with Pixso.
	</desc>
	<defs/>
	<path id="矢量 1" d="M165.83 100.66C169.16 101.5 171.66 102.33 175 102.33C177.5 102.33 180.83 101.5 182.5 101.5C181.66 107.33 178.33 113.16 174.16 117.33C174.16 118.16 173.33 118.16 172.5 119C170 120.66 168.33 122.33 165.83 123.16L165.83 169L150 169L150 152.33L150 111.5L148.33 110.66C142.5 106.5 137.5 100.66 134.16 94L49.16 94C45.83 100.66 40.83 106.5 35 110.66C34.16 110.66 34.16 111.5 33.33 111.5L33.33 152.33L33.33 169L15.83 169L15.83 123.16C14.16 122.33 11.66 120.66 10 119L8.33 117.33C4.16 113.16 1.66 107.33 0 101.5C2.5 102.33 5 102.33 8.33 102.33C11.66 102.33 15 101.5 16.66 100.66C28.33 97.33 35.16 88.33 35.16 77.5L145.66 77.5C145.66 88.33 155 97.33 165.83 100.66Z" fill="#000000" fill-opacity="1.000000" fill-rule="evenodd"/>
	<path id="矢量 1" d="M21.66 69.66C27.5 74.66 35 78 44.16 78L137.5 78C145.83 78 154.16 74.66 160 69.66C160.83 68.83 162.5 68 163.33 66.33C166.66 62.16 169.16 57.16 170.83 52.16C167.5 53 165 53 162.5 53C159.16 53 155.83 52.16 152.5 50.5C144.16 46.33 138.33 38 138.33 28L42.5 28C42.5 38 36.66 47.16 28.33 50.5C25.83 52.16 22.5 53 19.16 53C16.66 53 14.16 53 11.66 52.16C12.5 58 15 62.16 19.16 66.33C20 67.16 20.83 68.83 21.66 69.66ZM55.83 44.66L125 44.66C127.5 51.33 132.5 57.16 137.5 61.33L44.16 61.33L43.33 61.33C49.16 57.16 53.33 51.33 55.83 44.66Z" fill="#000000" fill-opacity="1.000000" fill-rule="nonzero"/>
	<path id="矢量 1" d="M125 44.66L55.83 44.66C53.33 51.33 49.16 57.16 43.33 61.33L44.16 61.33L137.5 61.33C132.5 57.16 127.5 51.33 125 44.66Z" fill="#000000" fill-opacity="1.000000" fill-rule="evenodd"/>
	<path id="矢量 1" d="M75.66 16.5C75.66 7.38 83.05 0 92.16 0C101.27 0 108.66 7.38 108.66 16.5C108.66 25.61 101.27 33 92.16 33C83.05 33 75.66 25.61 75.66 16.5Z" fill="#000000" fill-opacity="1.000000" fill-rule="evenodd"/>
</svg>
