<svg width="255.000015" height="255.000015" viewBox="0 0 255 255" fill="none" xmlns="http://www.w3.org/2000/svg" xmlns:xlink="http://www.w3.org/1999/xlink">
	<desc>
			Created with Pixso.
	</desc>
	<defs/>
	<path id="矢量 1" d="M9 127.5C9 62.05 62.05 9 127.5 9C192.94 9 246 62.05 246 127.5C246 192.94 192.94 246 127.5 246C62.05 246 9 192.94 9 127.5Z" fill="#000000" fill-opacity="0" fill-rule="evenodd"/>
	<path id="矢量 1" d="M127.5 9C192.94 9 246 62.05 246 127.5C246 192.94 192.94 246 127.5 246C62.05 246 9 192.94 9 127.5C9 62.05 62.05 9 127.5 9ZM12.96 97L238 97M36.51 203.42L129 106L211 206" stroke="#000000" stroke-opacity="1.000000" stroke-width="18.000000"/>
</svg>
