<svg width="111.929291" height="180.532944" viewBox="0 0 111.929 180.533" fill="none" xmlns="http://www.w3.org/2000/svg" xmlns:xlink="http://www.w3.org/1999/xlink">
	<desc>
			Created with Pixso.
	</desc>
	<defs/>
	<path id="矢量 1" d="M42.4 0L111.92 25.5L60 45.86L60 78.23C84.38 82.29 103 103.51 103 129.03C103 157.45 79.91 180.53 51.5 180.53C23.08 180.53 0 157.45 0 129.03C0 103.86 18.11 82.87 42 78.4L42 17.53L42.38 17.53L42.4 0ZM87.92 129.03C87.92 149.13 71.59 165.46 51.5 165.46C31.4 165.46 15.07 149.13 15.07 129.03C15.07 108.93 31.4 92.6 51.5 92.6C71.59 92.6 87.92 108.93 87.92 129.03Z" fill="#000000" fill-opacity="1.000000" fill-rule="evenodd"/>
</svg>
