<svg width="180.000000" height="244.058289" viewBox="0 0 180 244.058" fill="none" xmlns="http://www.w3.org/2000/svg" xmlns:xlink="http://www.w3.org/1999/xlink">
	<desc>
			Created with Pixso.
	</desc>
	<defs/>
	<path id="矢量 1" d="M146.92 227.39L61.36 227.39L39.44 227.39L39.44 244.05L146.92 244.05L146.92 227.39Z" fill="#000000" fill-opacity="1.000000" fill-rule="evenodd"/>
	<path id="矢量 1" d="M99.72 167.5L81.08 167.5L81.08 188L81.08 227.39L99.72 227.39L99.72 167.5Z" fill="#000000" fill-opacity="1.000000" fill-rule="evenodd"/>
	<path id="矢量 1" d="M180 0C145.24 14.71 117.95 23.46 90 23.49C63.04 23.52 34.12 18.65 0 0L0 157.5C72.22 169.72 111.97 170.6 180 157.5L180 0Z" fill="#000000" fill-opacity="1.000000" fill-rule="evenodd"/>
	<path id="矢量 1" d="M18 25.5C77.96 51.38 109.63 47.54 164 25.5L164 133.5C106.84 149.16 74.71 149.86 18 133.5L18 25.5Z" fill="#FAF4F4" fill-opacity="1.000000" fill-rule="evenodd"/>
</svg>
