<svg width="173.613281" height="158.554688" viewBox="0 0 173.613 158.555" fill="none" xmlns="http://www.w3.org/2000/svg" xmlns:xlink="http://www.w3.org/1999/xlink">
	<desc>
			Created with Pixso.
	</desc>
	<defs/>
	<path id="矢量 1" d="M173.61 158.55L164.84 150.82C164.55 150.57 148.49 136.19 133.01 112.11L142.85 112.11L142.85 96.12L123.72 96.12C121.65 92.17 119.67 88.04 117.82 83.75L123.98 83.75L123.98 67.62L111.76 67.62C108.86 58.52 106.64 48.86 105.46 38.73L105.37 37.83L105.37 25.05C105.37 16.34 99.31 9.06 91.21 7.07L91.21 0L82.36 0L82.36 7.07C74.25 9.06 68.2 16.34 68.2 25.05L68.2 39.53C66.22 49.5 63.62 58.87 60.61 67.62L47.75 67.62L47.75 83.75L54.32 83.75C52.44 88.06 50.48 92.19 48.47 96.12L30.7 96.12L30.7 112.11L39.46 112.11C24.06 137.01 8.98 150.58 8.73 150.82L0 158.55L113.86 158.55L173.61 158.55Z" fill="#2C2C2C" fill-opacity="1.000000" fill-rule="evenodd"/>
</svg>
