<svg width="161.716797" height="156.378281" viewBox="0 0 161.717 156.378" fill="none" xmlns="http://www.w3.org/2000/svg" xmlns:xlink="http://www.w3.org/1999/xlink">
	<desc>
			Created with Pixso.
	</desc>
	<defs/>
	<path id="path" d="M137.77 138.89L152.98 138.89C157.8 138.89 161.71 142.8 161.71 147.63C161.71 152.46 157.8 156.37 152.97 156.37L8.74 156.37C3.91 156.37 0 152.46 0 147.63C0 142.8 3.91 138.89 8.74 138.89L23.95 138.89L23.95 116.82C23.95 111.99 27.86 108.07 32.69 108.07L47.6 108.07L55.73 7.77C55.81 6.78 56.05 5.83 56.45 4.93C56.85 4.02 57.39 3.21 58.07 2.49L72.91 2.49C76.21 -1.03 85 -0.63 88.81 2.49L103.65 2.49Q104.15 3.03 104.56 3.64Q104.96 4.25 105.27 4.93C105.67 5.83 105.91 6.78 105.99 7.77L114.11 108.07L129.02 108.07C133.85 108.07 137.77 111.99 137.77 116.82L137.77 138.89ZM80.86 3.76L72.91 12.22L65.18 107.65L96.54 107.65L88.81 12.22L80.86 3.76Z" fill="#333333" fill-opacity="1.000000" fill-rule="evenodd"/>
</svg>
