<?xml version="1.0" standalone="no"?><!DOCTYPE svg PUBLIC "-//W3C//DTD SVG 1.1//EN" "http://www.w3.org/Graphics/SVG/1.1/DTD/svg11.dtd"><svg t="1732522319619" class="icon" viewBox="0 0 1024 1024" version="1.1" xmlns="http://www.w3.org/2000/svg" p-id="3546" xmlns:xlink="http://www.w3.org/1999/xlink" width="200" height="200"><path d="M681.87186 1024l31.936777-30.491674-179.192775-333.240756V296.390629h-45.231724v363.876941L310.335874 993.508326l31.792266 30.491674 167.48744-321.824443h4.91335z" fill="#231815" p-id="3547"></path><path d="M358.168784 379.339543a202.169913 202.169913 0 0 1-51.012137-133.527519C307.156647 132.804968 399.35422 41.040926 512.072255 41.040926S716.843353 132.949478 716.843353 245.812024c0 51.301157-19.653401 97.688964-50.867626 133.527519l30.780694 26.878916c37.572679-43.06407 60.983347-98.845047 60.983348-160.406435a245.667513 245.667513 0 1 0-491.479538 0c0 61.705899 23.410669 117.342365 60.983348 160.406435l30.925205-26.878916z" fill="#231815" p-id="3548"></path></svg>