<?xml version="1.0" standalone="no"?><!DOCTYPE svg PUBLIC "-//W3C//DTD SVG 1.1//EN" "http://www.w3.org/Graphics/SVG/1.1/DTD/svg11.dtd"><svg t="1732583047225" class="icon" viewBox="0 0 1027 1024" version="1.1" xmlns="http://www.w3.org/2000/svg" p-id="39576" xmlns:xlink="http://www.w3.org/1999/xlink" width="200.5859375" height="200"><path d="M740.693333 795.306667H283.306667C126.293333 795.306667 0 669.013333 0 512s126.293333-283.306667 283.306667-283.306667h460.8c157.013333 0 283.306667 126.293333 283.306666 283.306667s-129.706667 283.306667-286.72 283.306667zM283.306667 259.413333C143.36 259.413333 30.72 372.053333 30.72 512s112.64 252.586667 252.586667 252.586667h460.8c139.946667 0 252.586667-112.64 252.586666-252.586667s-112.64-252.586667-252.586666-252.586667H283.306667z" fill="#2c2c2c" p-id="39577"></path><path d="M727.04 709.973333H296.96C191.146667 709.973333 102.4 621.226667 102.4 512s88.746667-197.973333 197.973333-197.973333h426.666667c109.226667 0 197.973333 88.746667 197.973333 197.973333s-92.16 197.973333-197.973333 197.973333zM296.96 348.16c-88.746667 0-163.84 75.093333-163.84 163.84s75.093333 163.84 163.84 163.84h426.666667c88.746667 0 163.84-75.093333 163.84-163.84s-75.093333-163.84-163.84-163.84H296.96z" fill="#2c2c2c" p-id="39578"></path></svg>