<svg width="156.000000" height="157.000000" viewBox="0 0 156 157" fill="none" xmlns="http://www.w3.org/2000/svg" xmlns:xlink="http://www.w3.org/1999/xlink">
	<desc>
			Created with Pixso.
	</desc>
	<defs/>
	<path id="矢量 1" d="M151.47 152.44C140.12 163.87 110.05 153.08 78 128.08C45.94 153.08 15.87 163.87 4.52 152.44C-6.83 141.02 3.89 110.76 28.73 78.5C3.89 46.23 -6.83 15.97 4.52 4.55C15.87 -6.88 45.94 3.91 78 28.91C110.05 3.91 140.12 -6.88 151.47 4.55C162.82 15.97 152.1 46.23 127.26 78.5C152.1 110.76 162.82 141.02 151.47 152.44ZM17.24 17.35C22.61 11.94 41.57 21.68 64.37 40.31C60.18 44.06 55.99 48.02 51.85 52.19C47.71 56.35 43.78 60.56 40.06 64.78C21.54 41.83 11.86 22.75 17.24 17.35ZM138.75 17.35C144.13 22.75 134.45 41.83 115.94 64.78C112.22 60.56 108.28 56.35 104.14 52.19C100 48.02 95.81 44.06 91.62 40.31C114.42 21.68 133.38 11.94 138.75 17.35ZM91.42 92C95.92 87.48 100.2 82.95 104.21 78.5C100.2 74.04 95.92 69.51 91.42 64.99C86.92 60.46 82.42 56.15 78 52.11C73.57 56.15 69.07 60.46 64.57 64.99C60.07 69.51 55.79 74.04 51.78 78.5C55.79 82.95 60.07 87.48 64.57 92C69.07 96.53 73.57 100.84 78 104.88C82.42 100.84 86.92 96.53 91.42 92ZM78.25 88.3C84.04 88.3 88.74 83.57 88.74 77.74C88.74 71.92 84.04 67.19 78.25 67.19C72.46 67.19 67.76 71.92 67.76 77.74C67.76 83.57 72.46 88.3 78.25 88.3ZM138.75 139.64C133.38 145.05 114.42 135.31 91.62 116.68C95.81 112.93 100 108.97 104.14 104.8C108.28 100.64 112.22 96.43 115.94 92.21C134.45 115.16 144.13 134.24 138.75 139.64ZM51.85 104.8C47.71 100.64 43.78 96.43 40.06 92.21C21.54 115.16 11.86 134.24 17.24 139.64C22.61 145.05 41.57 135.31 64.37 116.68C60.18 112.93 55.99 108.97 51.85 104.8Z" fill="#000000" fill-opacity="1.000000" fill-rule="evenodd"/>
</svg>
