<svg width="136.000000" height="152.000000" viewBox="0 0 136 152" fill="none" xmlns="http://www.w3.org/2000/svg" xmlns:xlink="http://www.w3.org/1999/xlink">
	<desc>
			Created with Pixso.
	</desc>
	<defs/>
	<path id="矢量 1" d="M38.5 0L0 26.95L0 152L136 152L136 56.56L106.5 36L77 56.56L77 26.95L38.5 0Z" fill="#C4C4C4" fill-opacity="0" fill-rule="evenodd"/>
	<path id="矢量 1" d="M59 47.17L59 36.32L38.5 21.97L18 36.32L18 134L59 134L59 47.17ZM95 134L95 65.96L106.5 57.94L118 65.96L118 134L95 134ZM136 134L136 152L0 152L0 26.95L38.5 0L77 26.95L77 56.56L95 44.01L106.5 36L136 56.56L136 134Z" fill="#000000" fill-opacity="1.000000" fill-rule="evenodd"/>
</svg>
