<svg width="91.000000" height="192.000000" viewBox="0 0 91 192" fill="none" xmlns="http://www.w3.org/2000/svg" xmlns:xlink="http://www.w3.org/1999/xlink">
	<desc>
			Created with Pixso.
	</desc>
	<defs/>
	<path id="矢量 1" d="M82 146.5C82 166.64 65.64 183 45.5 183C25.35 183 9 166.64 9 146.5C9 126.36 25.35 110 45.5 110C65.64 110 82 126.36 82 146.5Z" fill="#000000" fill-opacity="1.000000" fill-rule="evenodd"/>
	<path id="矢量 1" d="M45.5 183C25.35 183 9 166.64 9 146.5C9 126.36 25.35 110 45.5 110C65.64 110 82 126.36 82 146.5C82 166.64 65.64 183 45.5 183ZM45 0L45 111M3 44L87.5 44" stroke="#000000" stroke-opacity="1.000000" stroke-width="18.000000"/>
</svg>
