<svg width="87.916000" height="180.242645" viewBox="0 0 87.916 180.243" fill="none" xmlns="http://www.w3.org/2000/svg" xmlns:xlink="http://www.w3.org/1999/xlink">
	<desc>
			Created with Pixso.
	</desc>
	<defs/>
	<path id="矢量 1" d="M72.83 0C82.88 10.05 87.91 22.19 87.91 36.41C87.91 43.52 86.65 50.11 84.14 56.18C81.63 62.25 77.86 67.8 72.83 72.83Q65.29 80.37 56.18 84.14Q51.42 86.11 46.24 87.05L46.24 107.65C63.77 110.31 77.24 125.47 77.24 143.74C77.24 163.88 60.88 180.24 40.74 180.24C20.6 180.24 4.24 163.88 4.24 143.74C4.24 125.82 17.19 110.89 34.24 107.82L34.24 87.87C27.95 87.64 22.09 86.4 16.64 84.14C10.57 81.63 5.02 77.86 0 72.83L8.48 64.34Q14.26 70.13 21.25 73.02Q28.23 75.91 36.41 75.91C41.86 75.91 46.92 74.95 51.57 73.02C56.23 71.09 60.49 68.2 64.34 64.34Q70.13 58.56 73.02 51.57Q75.91 44.59 75.91 36.41C75.91 30.96 74.95 25.9 73.02 21.25C71.09 16.59 68.2 12.34 64.34 8.48L72.83 0Z" fill="#000000" fill-opacity="1.000000" fill-rule="evenodd"/>
</svg>
