<svg width="200.000000" height="200.000000" viewBox="0 0 200 200" fill="none" xmlns="http://www.w3.org/2000/svg" xmlns:xlink="http://www.w3.org/1999/xlink">
	<desc>
			Created with Pixso.
	</desc>
	<defs/>
	<path id="矢量 1" d="M24 0C10.74 0 0 10.74 0 24C0 37.25 10.74 48 24 48C27.16 48 30.18 47.38 32.95 46.27L77.81 90.82C76.64 93.65 76 96.74 76 100C76 102.97 76.54 105.82 77.53 108.45L32.21 153.44C29.65 152.5 26.88 152 24 152C10.74 152 0 162.74 0 176C0 189.25 10.74 200 24 200C37.25 200 48 189.25 48 176C48 172.6 47.29 169.37 46.02 166.45L90.66 122.11C93.53 123.33 96.69 124 100 124C103.31 124 106.46 123.33 109.33 122.11L153.97 166.45C152.7 169.37 152 172.6 152 176C152 189.25 162.74 200 176 200C189.25 200 200 189.25 200 176C200 162.74 189.25 152 176 152C173.1 152 170.33 152.51 167.76 153.44L122.46 108.46C123.45 105.82 124 102.97 124 100C124 96.74 123.35 93.65 122.18 90.82L167.05 46.27C169.81 47.38 172.83 48 176 48C189.25 48 200 37.25 200 24C200 10.74 189.25 0 176 0C162.74 0 152 10.74 152 24C152 27.11 152.59 30.1 153.67 32.83L108.6 77.59C105.93 76.56 103.03 76 100 76C96.96 76 94.06 76.56 91.39 77.59L46.32 32.83C47.4 30.1 48 27.11 48 24C48 10.74 37.25 0 24 0Z" fill="#000000" fill-opacity="1.000000" fill-rule="evenodd"/>
</svg>
