<svg width="175.000000" height="175.000000" viewBox="0 0 175 175" fill="none" xmlns="http://www.w3.org/2000/svg" xmlns:xlink="http://www.w3.org/1999/xlink">
	<desc>
			Created with Pixso.
	</desc>
	<defs/>
	<path id="矢量 1" d="M87.5 175C39.25 175 0 135.75 0 87.5C0 39.25 39.25 0 87.5 0C135.75 0 175 39.25 175 87.5C175 135.75 135.75 175 87.5 175ZM87.5 12.5C46.14 12.5 12.5 46.14 12.5 87.5C12.5 128.85 46.14 162.5 87.5 162.5C128.85 162.5 162.5 128.85 162.5 87.5C162.5 46.14 128.85 12.5 87.5 12.5Z" fill="#FF1F02" fill-opacity="1.000000" fill-rule="nonzero"/>
	<path id="矢量 1" d="M87 12.5L65.5 88L108.5 88L87 12.5Z" fill="#FF0000" fill-opacity="1.000000" fill-rule="evenodd"/>
	<path id="矢量 1" d="M87 163.5L108.5 88L65.5 88L87 163.5Z" fill="#FF0000" fill-opacity="1.000000" fill-rule="evenodd"/>
</svg>
