<svg width="200.000000" height="200.000000" viewBox="0 0 200 200" fill="none" xmlns="http://www.w3.org/2000/svg" xmlns:xlink="http://www.w3.org/1999/xlink">
	<desc>
			Created with Pixso.
	</desc>
	<defs/>
	<path id="矢量 1" d="M2.27 78.68C0.75 85.62 0 92.72 0 100C2.54e-6 107.27 0.75 114.37 2.27 121.31C3.57 127.3 5.44 133.16 7.87 138.9C10.24 144.5 13.07 149.8 16.35 154.79C20.08 160.48 24.4 165.77 29.31 170.68C34.22 175.59 39.52 179.91 45.2 183.64C50.2 186.92 55.49 189.75 61.09 192.12C73.49 197.37 86.45 200 100 200C113.54 200 126.5 197.37 138.9 192.12C144.5 189.75 149.8 186.92 154.8 183.64C160.48 179.91 165.77 175.59 170.68 170.68C175.59 165.77 179.91 160.48 183.64 154.79C186.92 149.8 189.75 144.5 192.12 138.9C197.37 126.5 200 113.54 200 100C200 86.45 197.37 73.49 192.12 61.09C189.75 55.49 186.92 50.2 183.64 45.2C179.91 39.51 175.59 34.22 170.68 29.31C165.77 24.4 160.48 20.08 154.79 16.35C149.8 13.07 144.5 10.24 138.9 7.87C133.16 5.44 127.3 3.57 121.31 2.27C114.37 0.75 107.27 -2.55e-6 100 6.4e-12C92.72 6.4e-12 85.62 0.75 78.68 2.27C72.69 3.57 66.83 5.44 61.09 7.87C55.49 10.24 50.2 13.07 45.2 16.35C39.52 20.08 34.22 24.4 29.31 29.31C24.4 34.22 20.08 39.52 16.35 45.2C13.07 50.2 10.24 55.49 7.87 61.09C5.44 66.83 3.57 72.69 2.27 78.68ZM30.38 128.47C26.79 119.71 25 110.22 25 100C25 79.32 32.33 61.65 46.99 46.99C54.4 39.58 62.58 34.04 71.52 30.38C80.28 26.79 89.77 25 100 25C120.67 25 138.34 32.33 153 46.99C160.41 54.4 165.95 62.58 169.61 71.52C173.2 80.28 175 89.77 175 100C175 120.67 167.66 138.34 153 153C145.59 160.41 137.42 165.95 128.47 169.61C119.72 173.2 110.22 175 100 175C79.32 175 61.65 167.66 46.99 153C39.58 145.59 34.04 137.42 30.38 128.47Z" fill="#000000" fill-opacity="1.000000" fill-rule="evenodd"/>
	<path id="矢量 1" d="M57 99.5C57 75.47 76.47 56 100.5 56C124.52 56 144 75.47 144 99.5C144 123.52 124.52 143 100.5 143C76.47 143 57 123.52 57 99.5Z" fill="#C4C4C4" fill-opacity="0" fill-rule="evenodd"/>
	<path id="矢量 1" d="M2.27 78.68L2.27 78.68Q4.22 69.7 7.87 61.09Q11.43 52.7 16.35 45.2L16.35 45.2L16.35 45.2Q21.95 36.67 29.31 29.31Q36.67 21.95 45.2 16.35L45.2 16.35L45.2 16.35L45.2 16.35L45.2 16.35Q52.7 11.43 61.09 7.87Q69.7 4.22 78.68 2.27Q89.09 6.4e-12 100 6.4e-12Q110.9 -3.82e-6 121.31 2.27Q130.29 4.22 138.9 7.87Q147.3 11.43 154.79 16.35L154.79 16.35L154.79 16.35Q163.32 21.95 170.68 29.31C175.59 34.22 179.91 39.51 183.64 45.2C186.92 50.2 189.75 55.49 192.12 61.09C197.37 73.49 200 86.45 200 100C200 113.54 197.37 126.5 192.12 138.9C189.75 144.5 186.92 149.8 183.64 154.79C179.91 160.48 175.59 165.77 170.68 170.68C165.77 175.59 160.48 179.91 154.8 183.64C149.8 186.92 144.5 189.75 138.9 192.12C126.5 197.37 113.54 200 100 200C86.45 200 73.49 197.37 61.09 192.12Q52.7 188.56 45.2 183.64Q36.67 178.04 29.31 170.68Q21.95 163.32 16.35 154.79L16.35 154.79Q11.43 147.3 7.87 138.9Q4.22 130.29 2.27 121.31L2.27 121.31Q3.81e-6 110.9 0 100Q0 89.09 2.27 78.68ZM30.38 128.47L30.38 128.47L30.38 128.47Q35.88 141.89 46.99 153C61.65 167.66 79.32 175 100 175Q115.34 175 128.47 169.61C137.42 165.95 145.59 160.41 153 153Q164.11 141.89 169.61 128.47L169.61 128.47Q175 115.34 175 100Q175 84.65 169.61 71.52L169.61 71.52L169.61 71.52Q164.11 58.1 153 46.99Q141.89 35.88 128.47 30.38Q115.34 25 100 25Q84.65 25 71.52 30.38Q58.1 35.88 46.99 46.99Q35.88 58.1 30.38 71.52L30.38 71.52Q25 84.65 25 100Q25 115.34 30.38 128.47ZM57 99.5C57 75.47 76.47 56 100.5 56C124.52 56 144 75.47 144 99.5C144 123.52 124.52 143 100.5 143C76.47 143 57 123.52 57 99.5ZM91.47 77.72Q95.63 76 100.5 76Q105.36 76 109.52 77.72Q113.67 79.44 117.11 82.88Q120.55 86.32 122.27 90.47Q124 94.63 124 99.5Q124 104.36 122.27 108.52Q120.55 112.67 117.11 116.11Q113.67 119.55 109.52 121.27Q105.36 123 100.5 123Q95.63 123 91.47 121.27Q87.32 119.55 83.88 116.11Q80.44 112.67 78.72 108.52Q77 104.36 77 99.5Q77 94.63 78.72 90.47Q80.44 86.32 83.88 82.88Q87.32 79.44 91.47 77.72Z" fill="#000000" fill-opacity="1.000000" fill-rule="evenodd"/>
</svg>
