<svg width="200.000000" height="200.000000" viewBox="0 0 200 200" fill="none" xmlns="http://www.w3.org/2000/svg" xmlns:xlink="http://www.w3.org/1999/xlink">
	<desc>
			Created with Pixso.
	</desc>
	<defs/>
	<path id="矢量 1" d="M2.27 78.68L2.27 78.68Q4.22 69.7 7.87 61.09Q11.43 52.7 16.35 45.2L16.35 45.2L16.35 45.2Q21.95 36.67 29.31 29.31Q36.67 21.95 45.2 16.35L45.2 16.35L45.2 16.35Q52.7 11.43 61.09 7.87Q69.7 4.22 78.68 2.27Q89.09 6.4e-12 100 6.4e-12C107.27 -2.55e-6 114.37 0.75 121.31 2.27Q130.29 4.22 138.9 7.87Q147.3 11.43 154.79 16.35Q163.32 21.95 170.68 29.31C175.59 34.22 179.91 39.51 183.64 45.2C186.92 50.2 189.75 55.49 192.12 61.09C197.37 73.49 200 86.45 200 100C200 113.54 197.37 126.5 192.12 138.9C189.75 144.5 186.92 149.8 183.64 154.79C179.91 160.48 175.59 165.77 170.68 170.68C165.77 175.59 160.48 179.91 154.8 183.64C149.8 186.92 144.5 189.75 138.9 192.12C126.5 197.37 113.54 200 100 200C86.45 200 73.49 197.37 61.09 192.12Q52.7 188.56 45.2 183.64Q36.67 178.04 29.31 170.68Q21.95 163.32 16.35 154.79L16.35 154.79Q11.43 147.3 7.87 138.9C5.44 133.16 3.57 127.3 2.27 121.31L2.27 121.31Q3.81e-6 110.9 0 100Q0 89.09 2.27 78.68ZM25 100C25 110.22 26.79 119.71 30.38 128.47L30.38 128.47Q35.88 141.89 46.99 153C61.65 167.66 79.32 175 100 175Q115.34 175 128.47 169.61C137.42 165.95 145.59 160.41 153 153Q164.11 141.89 169.61 128.47Q175 115.34 175 100Q175 84.65 169.61 71.52C165.95 62.58 160.41 54.4 153 46.99Q141.89 35.88 128.47 30.38Q115.34 25 100 25Q84.65 25 71.52 30.38Q58.1 35.88 46.99 46.99Q35.88 58.1 30.38 71.52Q25 84.65 25 100ZM100.5 121C112.36 121 122 111.36 122 99.5C122 87.63 112.36 78 100.5 78C88.63 78 79 87.63 79 99.5C79 111.36 88.63 121 100.5 121Z" fill="#000000" fill-opacity="1.000000" fill-rule="evenodd"/>
</svg>
