<svg width="104.000000" height="109.000000" viewBox="0 0 104 109" fill="none" xmlns="http://www.w3.org/2000/svg" xmlns:xlink="http://www.w3.org/1999/xlink">
	<desc>
			Created with Pixso.
	</desc>
	<defs/>
	<path id="矢量 1" d="M0 109C0 102.32 0.37 95.69 1.11 89.1Q3.96 63.66 14.18 39.04Q29.02 3.27 48.82 0.27Q50.64 0 52.5 0C53.81 0 55.11 0.1 56.4 0.31C69.47 2.43 80.78 15.36 90.34 39.1C99.44 61.71 104 85.01 104 109L92 109C92 100.48 91.38 92.06 90.15 83.73C88.15 70.11 84.5 56.72 79.21 43.58C75.12 33.44 70.65 25.57 65.79 19.96C61.18 14.65 56.75 12 52.5 12C48.21 12 43.72 14.66 39.01 20Q31.57 28.44 25.26 43.64Q15.5 67.15 12.92 91.43Q12 100.16 12 109L0 109ZM52 109C58.06 109 63 102.5 63 94.5C63 86.49 58.06 80 52 80C45.93 80 41 86.49 41 94.5C41 102.5 45.93 109 52 109Z" fill="#000000" fill-opacity="1.000000" fill-rule="evenodd"/>
</svg>
