<svg width="328.150391" height="250.500000" viewBox="0 0 328.15 250.5" fill="none" xmlns="http://www.w3.org/2000/svg" xmlns:xlink="http://www.w3.org/1999/xlink">
	<desc>
			Created with Pixso.
	</desc>
	<defs/>
	<path id="矢量 1" d="M237 112.5L237 102.72L323.33 16.38C324.27 15.44 324.97 14.41 325.44 13.28C325.91 12.15 326.15 10.92 326.15 9.59Q326.15 7.6 325.44 5.91L325.44 5.91C324.97 4.78 324.27 3.74 323.33 2.81C322.4 1.87 321.36 1.17 320.23 0.7C319.1 0.23 317.87 0 316.55 0C315.22 0 314 0.23 312.87 0.7C311.73 1.17 310.7 1.87 309.76 2.81L218.81 93.76C218.26 94.31 217.8 94.88 217.41 95.5L108 95.5C107.8 95.24 107.57 95 107.33 94.76L16.38 3.81C15.44 2.87 14.41 2.17 13.28 1.7C12.14 1.23 10.92 1 9.59 1C8.27 1 7.04 1.23 5.91 1.7C4.78 2.17 3.74 2.87 2.81 3.81C1.87 4.74 1.17 5.78 0.7 6.91C0.23 8.04 0 9.27 0 10.59C0 11.92 0.23 13.15 0.7 14.28C1.17 15.41 1.87 16.44 2.81 17.38L89 103.57L89 112.5L237 112.5ZM110 155C109.8 155.25 109.57 155.49 109.33 155.73L18.38 246.69Q16.97 248.09 15.28 248.79L15.28 248.79C14.14 249.26 12.92 249.5 11.59 249.5C10.27 249.5 9.04 249.26 7.91 248.79C6.78 248.32 5.74 247.62 4.81 246.68C3.87 245.75 3.17 244.71 2.7 243.58C2.23 242.45 2 241.22 2 239.9C2 238.57 2.23 237.34 2.7 236.21C3.17 235.08 3.87 234.05 4.81 233.11L91 146.92L91 138L239 138L239 147.77L325.33 234.11C326.27 235.05 326.97 236.08 327.44 237.21C327.91 238.34 328.15 239.57 328.15 240.9Q328.15 242.88 327.44 244.58L327.44 244.58C326.97 245.71 326.27 246.75 325.33 247.68C324.4 248.62 323.36 249.32 322.23 249.79C321.1 250.26 319.87 250.5 318.55 250.5C317.22 250.5 316 250.26 314.87 249.79Q313.17 249.09 311.76 247.69L220.81 156.73C220.26 156.18 219.8 155.61 219.41 155L110 155Z" fill="#000000" fill-opacity="1.000000" fill-rule="evenodd"/>
</svg>
