<svg width="335.747681" height="202.756836" viewBox="0 0 335.748 202.757" fill="none" xmlns="http://www.w3.org/2000/svg" xmlns:xlink="http://www.w3.org/1999/xlink">
	<desc>
			Created with Pixso.
	</desc>
	<defs/>
	<path id="矢量 1" d="M103.11 99.68L13.32 8.37C11.92 6.95 9.64 6.93 8.23 8.33C6.81 9.72 6.79 12 8.19 13.41L95.48 102.18L7.05 190.61C5.64 192.02 5.64 194.29 7.05 195.7C7.75 196.4 8.67 196.75 9.59 196.75C10.51 196.75 11.43 196.4 12.14 195.7L103.09 104.74C104.49 103.35 104.5 101.09 103.11 99.68Z" fill="#2C2C2C" fill-opacity="1.000000" fill-rule="nonzero"/>
	<path id="矢量 1" d="M107.39 95.47L17.59 4.16C16.66 3.22 15.64 2.51 14.51 2.03C13.38 1.55 12.16 1.31 10.83 1.29C8.18 1.27 5.91 2.19 4.02 4.05C3.08 4.98 2.36 6.01 1.89 7.13C1.41 8.26 1.16 9.49 1.15 10.81C1.13 13.46 2.05 15.73 3.91 17.62L87.03 102.14L2.81 186.37C1.87 187.31 1.17 188.34 0.7 189.47C0.23 190.6 0 191.83 0 193.15C0 195.81 0.93 198.07 2.81 199.94C4.68 201.82 6.94 202.75 9.59 202.75C12.24 202.75 14.5 201.82 16.38 199.94L107.33 108.99C109.2 107.12 110.13 104.87 110.15 102.24C110.15 100.92 109.92 99.7 109.47 98.57C109.01 97.44 108.32 96.41 107.39 95.47Z" fill="#000000" fill-opacity="1.000000" fill-rule="evenodd"/>
	<path id="矢量 1" d="M232.63 103.07L322.42 194.38C323.82 195.79 326.09 195.81 327.51 194.42C328.93 193.03 328.95 190.75 327.55 189.33L240.26 100.57L328.69 12.14C330.09 10.73 330.09 8.45 328.69 7.05C327.99 6.35 327.07 6 326.15 6C325.23 6 324.3 6.35 323.6 7.05L232.65 98C231.25 99.4 231.24 101.66 232.63 103.07Z" fill="#2C2C2C" fill-opacity="1.000000" fill-rule="nonzero"/>
	<path id="矢量 1" d="M228.35 107.28L318.14 198.59C319.07 199.53 320.1 200.24 321.23 200.72C322.36 201.2 323.58 201.44 324.91 201.45C327.56 201.48 329.83 200.56 331.72 198.7C332.66 197.77 333.37 196.74 333.85 195.61C334.33 194.49 334.57 193.26 334.58 191.94C334.61 189.29 333.69 187.02 331.83 185.13L248.71 100.6L332.93 16.38C333.87 15.44 334.57 14.41 335.04 13.28C335.51 12.15 335.74 10.92 335.74 9.59C335.74 6.94 334.81 4.68 332.93 2.81C331.06 0.93 328.8 1.52e-5 326.15 0C323.5 0 321.23 0.93 319.36 2.81L228.4 93.76C226.54 95.62 225.6 97.87 225.59 100.51C225.59 101.83 225.81 103.05 226.27 104.18C226.73 105.3 227.42 106.34 228.35 107.28Z" fill="#000000" fill-opacity="1.000000" fill-rule="evenodd"/>
	<path id="矢量 1" d="M99.09 93.5L247.09 93.5L247.09 110.5L99.09 110.5L99.09 93.5Z" fill="#000000" fill-opacity="1.000000" fill-rule="evenodd"/>
</svg>
