<svg width="110.150391" height="201.458008" viewBox="0 0 110.15 201.458" fill="none" xmlns="http://www.w3.org/2000/svg" xmlns:xlink="http://www.w3.org/1999/xlink">
	<desc>
			Created with Pixso.
	</desc>
	<defs/>
	<path id="path" d="M103.11 98.38L13.32 7.07C11.92 5.65 9.64 5.63 8.23 7.03C6.81 8.42 6.79 10.7 8.19 12.12L95.48 100.88L7.05 189.31C5.64 190.72 5.64 192.99 7.05 194.4C7.75 195.1 8.67 195.45 9.59 195.45C10.51 195.45 11.43 195.1 12.14 194.4L103.09 103.44C104.49 102.05 104.5 99.79 103.11 98.38Z" fill="#2C2C2C" fill-opacity="1.000000" fill-rule="nonzero"/>
	<path id="path" d="M13.32 7.07C11.92 5.65 9.64 5.63 8.23 7.03C6.81 8.42 6.79 10.7 8.19 12.12L95.48 100.88L7.05 189.31C5.64 190.72 5.64 192.99 7.05 194.4C7.75 195.1 8.67 195.45 9.59 195.45C10.51 195.45 11.43 195.1 12.14 194.4L103.09 103.44C104.49 102.05 104.5 99.79 103.11 98.38L13.32 7.07Z" stroke="#000000" stroke-opacity="1.000000" stroke-width="12.000000"/>
</svg>
