<svg width="133.506348" height="106.999985" viewBox="0 0 133.506 107" fill="none" xmlns="http://www.w3.org/2000/svg" xmlns:xlink="http://www.w3.org/1999/xlink">
	<desc>
			Created with Pixso.
	</desc>
	<defs/>
	<path id="path" d="M120.05 18.39C121.06 20.08 122.02 21.86 122.94 23.73L133.5 43.44L133.5 83.26L113.87 43.44C113.26 42.19 112.62 41.01 111.95 39.9C111.28 38.78 110.58 37.73 109.86 36.75C109.14 35.78 108.4 34.87 107.63 34.04C106.87 33.21 106.09 32.46 105.29 31.79C104.48 31.11 103.67 30.52 102.84 30.01C102.01 29.5 101.17 29.07 100.32 28.73C99.47 28.38 98.61 28.12 97.75 27.95C96.89 27.78 96.02 27.69 95.16 27.69C94.29 27.69 93.42 27.78 92.56 27.95C91.7 28.12 90.84 28.38 89.99 28.73C89.14 29.07 88.3 29.5 87.47 30.01C86.64 30.52 85.83 31.11 85.03 31.79C84.23 32.46 83.44 33.21 82.68 34.04C81.91 34.87 81.17 35.78 80.45 36.75C79.73 37.73 79.03 38.78 78.36 39.9C77.69 41.01 77.05 42.19 76.44 43.44L56.91 83.26C55.99 85.13 55.03 86.91 54.02 88.6C53.01 90.28 51.97 91.86 50.88 93.33C49.8 94.81 48.69 96.17 47.54 97.42C46.39 98.68 45.21 99.81 44.01 100.83C42.8 101.84 41.58 102.73 40.33 103.5C39.08 104.28 37.82 104.92 36.54 105.44C35.26 105.96 33.97 106.34 32.68 106.61C31.38 106.87 30.08 107 28.77 107C27.47 107 26.17 106.87 24.87 106.61C23.58 106.34 22.29 105.96 21.01 105.44C19.73 104.92 18.47 104.28 17.22 103.5C15.97 102.73 14.75 101.84 13.54 100.83C12.34 99.81 11.16 98.68 10.01 97.42C8.86 96.17 7.75 94.81 6.67 93.33C5.58 91.86 4.54 90.28 3.53 88.6C2.52 86.91 1.56 85.13 0.64 83.26L0 43.68L9.61 63.62C10.22 64.86 10.87 66.04 11.54 67.16C12.21 68.28 12.9 69.33 13.62 70.3C14.34 71.28 15.09 72.19 15.85 73.02C16.62 73.85 17.4 74.6 18.2 75.27C19 75.95 19.82 76.54 20.64 77.05C21.47 77.56 22.31 77.99 23.16 78.33C24.01 78.67 24.87 78.93 25.73 79.11C26.6 79.28 27.46 79.36 28.33 79.36C29.2 79.36 30.06 79.28 30.92 79.11C31.79 78.93 32.64 78.67 33.49 78.33C34.34 77.99 35.18 77.56 36.01 77.05C36.84 76.54 37.66 75.95 38.46 75.27C39.26 74.6 40.04 73.85 40.81 73.02C41.57 72.19 42.31 71.28 43.03 70.3C43.75 69.33 44.45 68.28 45.12 67.16C45.79 66.04 46.43 64.86 47.05 63.62L66.67 23.73C67.59 21.86 68.56 20.08 69.56 18.39C70.57 16.71 71.62 15.13 72.7 13.66C73.78 12.18 74.9 10.82 76.05 9.57C77.2 8.32 78.37 7.18 79.58 6.17C80.78 5.15 82.01 4.26 83.25 3.49C84.5 2.71 85.76 2.07 87.04 1.55C88.32 1.03 89.61 0.65 90.91 0.39C92.2 0.13 93.5 0 94.81 0C96.11 0 97.41 0.13 98.71 0.39C100.01 0.65 101.3 1.03 102.57 1.55C103.85 2.07 105.12 2.71 106.36 3.49C107.61 4.26 108.84 5.15 110.04 6.17C111.24 7.18 112.42 8.32 113.57 9.57C114.72 10.82 115.84 12.18 116.92 13.66C118 15.13 119.05 16.71 120.05 18.39Z" fill="#FF3900" fill-opacity="1.000000" fill-rule="evenodd"/>
</svg>
