<svg width="12.000000" height="12.000000" viewBox="0 0 12 12" fill="none" xmlns="http://www.w3.org/2000/svg" xmlns:xlink="http://www.w3.org/1999/xlink">
	<desc>
			Created with Pixso.
	</desc>
	<defs>
		<clipPath id="clip0_3">
			<rect id="svg" width="12.000000" height="12.000000" fill="white" fill-opacity="0"/>
		</clipPath>
	</defs>
	<g clip-path="url(#clip0_3)">
		<path id="椭圆 1" d="M6 0C2.68 0 0 2.68 0 6C0 9.31 2.68 12 6 12C9.31 12 12 9.31 12 6C12 2.68 9.31 0 6 0Z" fill="#FFFAFA" fill-opacity="1.000000" fill-rule="evenodd"/>
		<path id="椭圆 1" d="M0 6C0 2.68 2.68 0 6 0C9.31 0 12 2.68 12 6C12 9.31 9.31 12 6 12C2.68 12 0 9.31 0 6ZM5.27 3.08Q5.62 3 6 3Q6.37 3 6.72 3.08Q6.94 3.14 7.16 3.23Q7.4 3.33 7.61 3.47Q7.88 3.64 8.12 3.87Q8.35 4.11 8.52 4.38Q8.66 4.59 8.76 4.83Q8.85 5.05 8.91 5.27Q9 5.62 9 6Q9 6.37 8.91 6.72Q8.85 6.94 8.76 7.16Q8.66 7.4 8.52 7.61Q8.35 7.88 8.12 8.12Q7.88 8.35 7.61 8.52Q7.4 8.66 7.16 8.76Q6.94 8.85 6.72 8.91Q6.37 9 6 9Q5.62 9 5.27 8.91Q5.05 8.85 4.83 8.76Q4.59 8.66 4.38 8.52Q4.11 8.35 3.87 8.12Q3.64 7.88 3.47 7.61Q3.33 7.4 3.23 7.16Q3.14 6.94 3.08 6.72Q3 6.37 3 6Q3 5.62 3.08 5.27Q3.14 5.05 3.23 4.83Q3.33 4.59 3.47 4.38Q3.64 4.11 3.87 3.87Q4.11 3.64 4.38 3.47Q4.59 3.33 4.83 3.23Q5.05 3.14 5.27 3.08Z" fill="#000000" fill-opacity="1.000000" fill-rule="evenodd"/>
	</g>
</svg>
