<svg width="55.875000" height="58.171875" viewBox="0 0 55.875 58.1719" fill="none" xmlns="http://www.w3.org/2000/svg" xmlns:xlink="http://www.w3.org/1999/xlink">
	<desc>
			Created with Pixso.
	</desc>
	<defs/>
	<path id="油" d="M40.32 0L40.32 13.25L55.87 13.25L55.87 57.79L51.26 57.79L51.26 54.39L25.15 54.39L25.15 58.17L20.6 58.17L20.6 13.25L35.65 13.25L35.65 0L40.32 0ZM15.56 11.45C12.81 9.28 7.35 6.14 3.26 4.15L5.95 0.7C9.98 2.42 15.56 5.37 18.31 7.54L15.56 11.45ZM35.65 31.29L35.65 17.79L25.15 17.79L25.15 31.29L35.65 31.29ZM51.26 31.29L51.26 17.79L40.32 17.79L40.32 31.29L51.26 31.29ZM2.62 18.1C6.53 19.84 11.9 22.59 14.59 24.57L11.96 28.6C9.34 26.5 4.03 23.48 0 21.62L2.62 18.1ZM35.65 35.84L25.15 35.84L25.15 49.85L35.65 49.85L35.65 35.84ZM40.32 35.84L40.32 49.85L51.26 49.85L51.26 35.84L40.32 35.84ZM16.14 39.23C13.18 45.18 9.48 52.09 6.28 57.34L2.1 54.26C5.06 49.92 9.4 42.68 12.6 36.21L16.14 39.23Z" fill="#000000" fill-opacity="1.000000" fill-rule="evenodd"/>
</svg>
