<svg width="934.547729" height="146.242645" viewBox="0 0 934.548 146.243" fill="none" xmlns="http://www.w3.org/2000/svg" xmlns:xlink="http://www.w3.org/1999/xlink">
	<desc>
			Created with Pixso.
	</desc>
	<defs/>
	<path id="矢量 1" d="M8.48 0L36.72 28.24L897.82 28.24L926.06 0L934.54 8.48L898.48 44.54L898.18 44.24L36.36 44.24L36.06 44.54L0 8.48L8.48 0ZM926.06 131.54L898.24 103.72L898.24 146.24L886.24 146.24L886.24 103.24L813.24 103.24L813.24 146.24L801.24 146.24L801.24 103.24L728.24 103.24L728.24 146.24L716.24 146.24L716.24 103.24L643.24 103.24L643.24 146.24L631.24 146.24L631.24 103.24L558.24 103.24L558.24 146.24L546.24 146.24L546.24 103.24L473.24 103.24L473.24 146.24L461.24 146.24L461.24 103.24L388.24 103.24L388.24 146.24L376.24 146.24L376.24 103.24L288.24 103.24L288.24 146.24L276.24 146.24L276.24 103.24L188.24 103.24L188.24 146.24L176.24 146.24L176.24 103.24L88.24 103.24L88.24 146.24L76.24 146.24L76.24 103.24L36.79 103.24L8.48 131.54L0 123.06L36.06 87L36.3 87.24L898.24 87.24L898.48 87L934.54 123.06L926.06 131.54Z" fill="#000000" fill-opacity="1.000000" fill-rule="evenodd"/>
</svg>
