<svg width="111.000000" height="25.000000" viewBox="0 0 111 25" fill="none" xmlns="http://www.w3.org/2000/svg" xmlns:xlink="http://www.w3.org/1999/xlink">
	<desc>
			Created with Pixso.
	</desc>
	<defs/>
	<path id="矢量 1" d="M0 12.5C0 5.59 5.59 0 12.5 0C19.4 0 25 5.59 25 12.5C25 19.4 19.4 25 12.5 25C5.59 25 0 19.4 0 12.5ZM43 12.5C43 5.59 48.59 0 55.5 0C62.4 0 68 5.59 68 12.5C68 19.4 62.4 25 55.5 25C48.59 25 43 19.4 43 12.5ZM98.5 0C91.59 0 86 5.59 86 12.5C86 19.4 91.59 25 98.5 25C105.4 25 111 19.4 111 12.5C111 5.59 105.4 0 98.5 0Z" fill="#1774BF" fill-opacity="1.000000" fill-rule="evenodd"/>
</svg>
