<svg width="175.000000" height="175.000000" viewBox="0 0 175 175" fill="none" xmlns="http://www.w3.org/2000/svg" xmlns:xlink="http://www.w3.org/1999/xlink">
	<desc>
			Created with Pixso.
	</desc>
	<defs/>
	<path id="矢量 1" d="M137.5 112.5L162.5 112.5C163.32 112.5 164.13 112.58 164.93 112.74C165.74 112.9 166.52 113.13 167.28 113.45C168.04 113.76 168.76 114.15 169.44 114.6C170.12 115.06 170.75 115.58 171.33 116.16C171.91 116.74 172.43 117.37 172.89 118.05C173.34 118.73 173.73 119.45 174.04 120.21C174.36 120.97 174.6 121.75 174.76 122.56C174.92 123.36 175 124.17 175 125C175 125.82 174.92 126.63 174.76 127.43C174.6 128.24 174.36 129.02 174.04 129.78C173.73 130.54 173.34 131.26 172.89 131.94C172.43 132.62 171.91 133.25 171.33 133.83C170.75 134.41 170.12 134.93 169.44 135.39C168.76 135.84 168.04 136.23 167.28 136.54C166.52 136.86 165.74 137.1 164.93 137.25C164.13 137.42 163.32 137.5 162.5 137.5L137.5 137.5L137.5 162.5C137.5 163.32 137.42 164.13 137.25 164.93C137.1 165.74 136.86 166.52 136.54 167.28C136.23 168.04 135.84 168.76 135.39 169.44C134.93 170.12 134.41 170.75 133.83 171.33C133.25 171.91 132.62 172.43 131.94 172.89C131.26 173.34 130.54 173.73 129.78 174.04C129.02 174.36 128.24 174.6 127.43 174.76C126.63 174.92 125.82 175 125 175C124.17 175 123.36 174.92 122.56 174.76C121.75 174.6 120.97 174.36 120.21 174.04C119.45 173.73 118.73 173.34 118.05 172.89C117.37 172.43 116.74 171.91 116.16 171.33C115.58 170.75 115.06 170.12 114.6 169.44C114.15 168.76 113.76 168.04 113.45 167.28C113.13 166.52 112.9 165.74 112.74 164.93C112.58 164.13 112.5 163.32 112.5 162.5L112.5 137.5L62.5 137.5L62.5 162.5C62.5 163.32 62.41 164.13 62.25 164.93C62.09 165.74 61.86 166.52 61.54 167.28C61.23 168.04 60.84 168.76 60.39 169.44C59.93 170.12 59.41 170.75 58.83 171.33C58.25 171.91 57.62 172.43 56.94 172.89C56.26 173.34 55.54 173.73 54.78 174.04C54.02 174.36 53.24 174.6 52.43 174.76C51.63 174.92 50.82 175 50 175C49.17 175 48.36 174.92 47.56 174.76C46.75 174.6 45.97 174.36 45.21 174.04C44.45 173.73 43.73 173.34 43.05 172.89C42.37 172.43 41.74 171.91 41.16 171.33C40.58 170.75 40.06 170.12 39.6 169.44C39.15 168.76 38.76 168.04 38.45 167.28C38.13 166.52 37.9 165.74 37.74 164.93C37.58 164.13 37.5 163.32 37.5 162.5L37.5 137.5L12.5 137.5C11.67 137.5 10.86 137.42 10.06 137.25C9.25 137.1 8.47 136.86 7.71 136.54C6.95 136.23 6.23 135.84 5.55 135.39C4.87 134.93 4.24 134.41 3.66 133.83C3.08 133.25 2.56 132.62 2.1 131.94C1.65 131.26 1.26 130.54 0.95 129.78C0.63 129.02 0.4 128.24 0.24 127.43C0.08 126.63 0 125.82 0 125C0 124.17 0.08 123.36 0.24 122.56C0.4 121.75 0.63 120.97 0.95 120.21C1.26 119.45 1.65 118.73 2.1 118.05C2.56 117.37 3.08 116.74 3.66 116.16C4.24 115.58 4.87 115.06 5.55 114.6C6.23 114.15 6.95 113.76 7.71 113.45C8.47 113.13 9.25 112.9 10.06 112.74C10.86 112.58 11.67 112.5 12.5 112.5L37.5 112.5L37.5 62.5L12.5 62.5Q11.88 62.5 11.27 62.44Q10.66 62.37 10.06 62.25C9.25 62.09 8.47 61.86 7.71 61.54C6.95 61.23 6.23 60.84 5.55 60.39C4.87 59.93 4.24 59.41 3.66 58.83C3.08 58.25 2.56 57.62 2.1 56.94C1.65 56.26 1.26 55.54 0.95 54.78Q0.71 54.21 0.53 53.62Q0.36 53.04 0.24 52.43C0.08 51.63 0 50.82 0 50C0 49.17 0.08 48.36 0.24 47.56C0.4 46.75 0.63 45.97 0.95 45.21C1.26 44.45 1.65 43.73 2.1 43.05C2.56 42.37 3.08 41.74 3.66 41.16C4.24 40.58 4.87 40.06 5.55 39.6C6.23 39.15 6.95 38.76 7.71 38.45C8.47 38.13 9.25 37.9 10.06 37.74C10.86 37.58 11.67 37.5 12.5 37.5L37.5 37.5L37.5 12.5C37.5 11.67 37.58 10.86 37.74 10.06C37.9 9.25 38.13 8.47 38.45 7.71C38.76 6.95 39.15 6.23 39.6 5.55C40.06 4.87 40.58 4.24 41.16 3.66C41.74 3.08 42.37 2.56 43.05 2.1C43.73 1.65 44.45 1.26 45.21 0.95C45.97 0.63 46.75 0.4 47.56 0.24C48.36 0.08 49.17 0 50 0C50.82 0 51.63 0.08 52.43 0.24Q53.04 0.36 53.62 0.53Q54.21 0.71 54.78 0.95C55.54 1.26 56.26 1.65 56.94 2.1C57.62 2.56 58.25 3.08 58.83 3.66C59.41 4.24 59.93 4.87 60.39 5.55C60.84 6.23 61.23 6.95 61.54 7.71C61.86 8.47 62.09 9.25 62.25 10.06Q62.37 10.66 62.43 11.27Q62.5 11.88 62.5 12.5L62.5 37.5L112.5 37.5L112.5 12.5C112.5 11.67 112.58 10.86 112.74 10.06C112.9 9.25 113.13 8.47 113.45 7.71C113.76 6.95 114.15 6.23 114.6 5.55Q114.94 5.04 115.33 4.57Q115.72 4.09 116.16 3.66C116.74 3.08 117.37 2.56 118.05 2.1C118.73 1.65 119.45 1.26 120.21 0.95C120.97 0.63 121.75 0.4 122.56 0.24C123.36 0.08 124.17 0 125 0C125.82 0 126.63 0.08 127.43 0.24C128.24 0.4 129.02 0.63 129.78 0.95C130.54 1.26 131.26 1.65 131.94 2.1C132.62 2.56 133.25 3.08 133.83 3.66C134.41 4.24 134.93 4.87 135.39 5.55C135.84 6.23 136.23 6.95 136.54 7.71C136.86 8.47 137.1 9.25 137.25 10.06C137.42 10.86 137.5 11.67 137.5 12.5L137.5 37.5L162.5 37.5C163.32 37.5 164.13 37.58 164.93 37.74C165.74 37.9 166.52 38.13 167.28 38.45C168.04 38.76 168.76 39.15 169.44 39.6C170.12 40.06 170.75 40.58 171.33 41.16C171.91 41.74 172.43 42.37 172.89 43.05C173.34 43.73 173.73 44.45 174.04 45.21C174.36 45.97 174.6 46.75 174.76 47.56C174.92 48.36 175 49.17 175 50C175 50.82 174.92 51.63 174.76 52.43C174.6 53.24 174.36 54.02 174.04 54.78C173.73 55.54 173.34 56.26 172.89 56.94C172.43 57.62 171.91 58.25 171.33 58.83C170.75 59.41 170.12 59.93 169.44 60.39C168.76 60.84 168.04 61.23 167.28 61.54C166.52 61.86 165.74 62.09 164.93 62.25C164.13 62.41 163.32 62.5 162.5 62.5L137.5 62.5L137.5 112.5ZM62.5 62.5L62.5 112.5L112.5 112.5L112.5 62.5L62.5 62.5ZM88 76.5C82.2 76.5 77.5 81.2 77.5 87C77.5 92.79 82.2 97.5 88 97.5C93.79 97.5 98.5 92.79 98.5 87C98.5 81.2 93.79 76.5 88 76.5Z" fill="#1774BF" fill-opacity="1.000000" fill-rule="evenodd"/>
</svg>
