<svg width="33.000000" height="59.507263" viewBox="0 0 33 59.5073" fill="none" xmlns="http://www.w3.org/2000/svg" xmlns:xlink="http://www.w3.org/1999/xlink">
	<desc>
			Created with Pixso.
	</desc>
	<defs/>
	<path id="矢量 1" d="M2 16.64C2 8.55 8.49 2 16.5 2C24.5 2 31 8.55 31 16.64C31 24.73 24.5 31.29 16.5 31.29C8.49 31.29 2 24.73 2 16.64Z" fill="#1774BF" fill-opacity="1.000000" fill-rule="evenodd"/>
	<path id="矢量 1" d="M16.5 2C24.5 2 31 8.55 31 16.64C31 24.73 24.5 31.29 16.5 31.29C8.49 31.29 2 24.73 2 16.64C2 8.55 8.49 2 16.5 2ZM17 30.28L13.5 42L23.5 43.91L15 58.5" stroke="#1774BF" stroke-opacity="1.000000" stroke-width="4.000000"/>
</svg>
