<svg width="115.000000" height="78.000000" viewBox="0 0 115 78" fill="none" xmlns="http://www.w3.org/2000/svg" xmlns:xlink="http://www.w3.org/1999/xlink">
	<desc>
			Created with Pixso.
	</desc>
	<defs/>
	<path id="矢量 1" d="M0 0L115 0L115 78L0 78L0 0Z" fill="#FBFBFB" fill-opacity="0.014857" fill-rule="evenodd"/>
	<path id="矢量 1" d="M115 0L0 0L0 78L115 78L115 0ZM12 12L12 66L103 66L103 12L12 12Z" fill="#1774BF" fill-opacity="1.000000" fill-rule="evenodd"/>
	<path id="矢量 1" d="M1 33L112.5 33L112.5 45L1 45L1 33Z" fill="#1774BF" fill-opacity="1.000000" fill-rule="evenodd"/>
	<path id="矢量 1" d="M47 10L47 67.5L35 67.5L35 10L47 10Z" fill="#1774BF" fill-opacity="1.000000" fill-rule="evenodd"/>
	<path id="矢量 1" d="M83 11L83 68.5L71 68.5L71 11L83 11Z" fill="#1774BF" fill-opacity="1.000000" fill-rule="evenodd"/>
</svg>
