<svg width="33.000000" height="33.000000" viewBox="0 0 33 33" fill="none" xmlns="http://www.w3.org/2000/svg" xmlns:xlink="http://www.w3.org/1999/xlink">
	<desc>
			Created with Pixso.
	</desc>
	<defs/>
	<path id="矢量 1" d="M2 16.5C2 8.49 8.49 2 16.5 2C24.5 2 31 8.49 31 16.5C31 24.5 24.5 31 16.5 31C8.49 31 2 24.5 2 16.5Z" fill="#1774BF" fill-opacity="1.000000" fill-rule="evenodd"/>
	<path id="矢量 1" d="M22.83 1.2C20.88 0.4 18.77 0 16.5 0C14.22 0 12.11 0.4 10.16 1.2C8.22 2.01 6.44 3.22 4.83 4.83C3.22 6.44 2.01 8.22 1.2 10.16C0.4 12.11 0 14.22 0 16.5C0 18.77 0.4 20.88 1.2 22.83C2.01 24.77 3.22 26.55 4.83 28.16C6.44 29.77 8.22 30.98 10.16 31.79C12.11 32.59 14.22 33 16.5 33C18.77 33 20.88 32.59 22.83 31.79C24.77 30.98 26.55 29.77 28.16 28.16C29.77 26.55 30.98 24.77 31.79 22.83C32.59 20.88 33 18.77 33 16.5C33 14.22 32.59 12.11 31.79 10.16C30.98 8.22 29.77 6.44 28.16 4.83C26.55 3.22 24.77 2.01 22.83 1.2ZM11.7 4.91C13.17 4.3 14.77 4 16.5 4C18.22 4 19.82 4.3 21.29 4.91C22.77 5.52 24.11 6.44 25.33 7.66C26.55 8.88 27.47 10.22 28.08 11.7C28.69 13.17 29 14.77 29 16.5C29 19.95 27.77 22.89 25.33 25.33C24.11 26.55 22.77 27.47 21.29 28.08C19.82 28.69 18.22 29 16.5 29C14.77 29 13.17 28.69 11.7 28.08C10.22 27.47 8.88 26.55 7.66 25.33C6.44 24.11 5.52 22.77 4.91 21.29C4.3 19.82 4 18.22 4 16.5C4 14.77 4.3 13.17 4.91 11.7C5.52 10.22 6.44 8.88 7.66 7.66C8.88 6.44 10.22 5.52 11.7 4.91Z" fill="#1774BF" fill-opacity="1.000000" fill-rule="evenodd"/>
	<path id="矢量 1" d="M16.97 28.99C16.82 28.99 16.65 29 16.5 29C16.34 29 16.21 28.99 16.06 28.99L16.97 28.99ZM27.77 20.2L21.73 22.05C21.63 22.08 21.62 22.2 21.71 22.25L23.9 23.32C24.18 23.46 24.23 23.83 23.98 24.02C22.35 25.33 20.17 26.17 17.81 26.4L17.81 15.91L23.34 15.91C23.46 15.91 23.56 15.82 23.56 15.7L23.56 13.59C23.56 13.48 23.46 13.38 23.34 13.38L17.82 13.38L17.82 13.34C17.82 11.83 18.45 10.39 19.59 9.35C20.45 8.55 20.99 7.43 20.96 6.19C20.92 3.82 18.97 1.96 16.5 2C14.05 2.03 12.02 3.93 12.02 6.27C12.02 7.46 12.53 8.55 13.37 9.32C14.5 10.38 15.16 11.82 15.16 13.34L15.16 13.38L9.64 13.38C9.52 13.38 9.42 13.48 9.42 13.59L9.42 15.7C9.42 15.82 9.52 15.91 9.64 15.91L15.16 15.91L15.16 26.39C12.83 26.16 10.64 25.31 9 24.01C8.76 23.82 8.8 23.45 9.08 23.31L11.27 22.23C11.36 22.19 11.35 22.06 11.26 22.03L5.21 20.19C5.1 20.16 4.97 20.22 4.93 20.33L3 26.1C2.97 26.19 3.07 26.27 3.16 26.22L5.75 24.95C5.93 24.86 6.14 24.89 6.27 25.03C7.45 26.21 8.95 27.19 10.65 27.88C12.06 28.45 13.6 28.81 15.16 28.93C15.46 28.96 15.76 28.98 16.06 28.99L16.97 28.99C17.25 28.98 17.53 28.96 17.82 28.94C21.31 28.65 24.54 27.23 26.71 25.03C26.85 24.89 27.06 24.86 27.24 24.95L29.83 26.22C29.92 26.26 30.02 26.18 29.99 26.09L28.05 20.33C28.01 20.22 27.88 20.16 27.77 20.2ZM14.67 6.27C14.67 5.31 15.48 4.53 16.49 4.53C17.49 4.53 18.31 5.31 18.31 6.27C18.31 7.23 17.49 8.01 16.49 8.01C15.48 8.01 14.67 7.23 14.67 6.27Z" fill="#FFFFFF" fill-opacity="1.000000" fill-rule="nonzero"/>
</svg>
