<svg width="187.932602" height="133.354416" viewBox="0 0 187.933 133.354" fill="none" xmlns="http://www.w3.org/2000/svg" xmlns:xlink="http://www.w3.org/1999/xlink">
	<desc>
			Created with Pixso.
	</desc>
	<defs/>
	<path id="path" d="M114.81 107.54C116.18 106.84 117.54 106.13 118.9 105.39C120.25 104.66 121.6 103.91 122.93 103.15C124.26 102.39 125.58 101.61 126.89 100.82C128.2 100.03 129.5 99.23 130.78 98.41C132.06 97.59 133.32 96.76 134.57 95.92C135.82 95.08 137.05 94.22 138.27 93.36C139.48 92.5 140.68 91.62 141.86 90.74C143.03 89.85 144.19 88.96 145.33 88.05C146.47 87.15 147.59 86.24 148.68 85.32C149.78 84.4 150.85 83.48 151.9 82.54C152.95 81.61 153.98 80.67 154.98 79.73C155.98 78.78 156.96 77.83 157.91 76.88C158.87 75.92 159.79 74.97 160.69 74.01C161.59 73.05 162.46 72.08 163.31 71.12C164.16 70.15 164.97 69.18 165.76 68.22C166.55 67.25 167.31 66.28 168.04 65.31C168.77 64.34 169.47 63.38 170.14 62.41C170.81 61.44 171.45 60.48 172.05 59.52C172.66 58.56 173.24 57.6 173.78 56.64C174.32 55.69 174.84 54.74 175.32 53.8C175.8 52.85 176.24 51.91 176.66 50.98C177.07 50.04 177.45 49.12 177.8 48.2C178.14 47.28 178.45 46.36 178.73 45.46C179.01 44.56 179.26 43.66 179.47 42.77C179.68 41.89 179.85 41.01 179.99 40.15C180.14 39.28 180.24 38.43 180.32 37.58C180.39 36.74 180.43 35.91 180.43 35.09C180.43 34.27 180.4 33.46 180.33 32.67C180.27 31.88 180.16 31.1 180.03 30.34C179.89 29.57 179.72 28.82 179.52 28.09C179.31 27.35 179.07 26.64 178.8 25.93C178.53 25.23 178.22 24.54 177.88 23.88C177.54 23.21 177.16 22.56 176.75 21.92C176.35 21.29 175.91 20.67 175.43 20.08C174.96 19.48 174.45 18.9 173.91 18.34C173.37 17.78 172.8 17.24 172.2 16.72C171.6 16.21 170.96 15.71 170.3 15.23C169.63 14.75 168.94 14.29 168.21 13.85C167.49 13.42 166.73 13 165.95 12.61C165.17 12.21 164.35 11.84 163.51 11.49C162.67 11.14 161.81 10.82 160.91 10.51C160.01 10.21 159.09 9.92 158.14 9.66C157.2 9.4 156.22 9.17 155.22 8.95C154.22 8.74 153.2 8.55 152.16 8.38C151.11 8.21 150.04 8.07 148.95 7.95C147.86 7.83 146.74 7.73 145.61 7.66C144.47 7.59 143.32 7.54 142.14 7.52C140.97 7.49 139.77 7.49 138.56 7.51C137.35 7.53 136.12 7.58 134.87 7.65C133.63 7.72 132.36 7.81 131.09 7.93C129.81 8.05 128.52 8.19 127.21 8.35C125.9 8.51 124.58 8.7 123.25 8.91C121.92 9.12 120.58 9.36 119.23 9.61C117.87 9.87 116.51 10.15 115.14 10.45C113.77 10.76 112.39 11.08 111 11.43C109.61 11.77 108.22 12.14 106.82 12.54C105.42 12.93 104.02 13.34 102.61 13.77C101.2 14.21 99.79 14.66 98.37 15.14C96.96 15.61 95.55 16.11 94.13 16.63C92.72 17.14 91.3 17.68 89.89 18.24C88.48 18.79 87.07 19.37 85.66 19.96C84.25 20.56 82.84 21.17 81.44 21.8C80.04 22.43 78.65 23.08 77.26 23.75C75.87 24.42 74.49 25.1 73.12 25.8C71.74 26.5 70.38 27.22 69.03 27.95C67.67 28.68 66.33 29.43 64.99 30.19C63.66 30.96 62.34 31.73 61.03 32.52C59.72 33.31 58.43 34.12 57.15 34.94C55.87 35.75 54.6 36.58 53.35 37.43C52.1 38.27 50.87 39.12 49.66 39.98C48.44 40.85 47.24 41.72 46.07 42.61C44.89 43.49 43.73 44.39 42.59 45.29C41.45 46.19 40.34 47.1 39.24 48.02C38.14 48.94 37.07 49.87 36.02 50.8C34.97 51.73 33.94 52.67 32.94 53.62C31.94 54.56 30.96 55.51 30.01 56.47C29.06 57.42 28.13 58.38 27.23 59.34C26.33 60.3 25.46 61.26 24.61 62.23C23.77 63.19 22.95 64.16 22.16 65.13C21.37 66.1 20.61 67.07 19.88 68.03C19.15 69 18.46 69.97 17.79 70.94C17.12 71.9 16.48 72.86 15.87 73.83C15.26 74.79 14.69 75.75 14.14 76.7C13.6 77.65 13.09 78.6 12.61 79.55C12.13 80.49 11.68 81.43 11.27 82.37C10.85 83.3 10.47 84.23 10.13 85.15C9.78 86.07 9.47 86.98 9.19 87.89C8.91 88.79 8.67 89.68 8.46 90.57C8.25 91.46 8.07 92.33 7.93 93.2C7.79 94.06 7.68 94.92 7.61 95.76C7.54 96.61 7.5 97.44 7.5 98.26C7.49 99.07 7.52 99.88 7.59 100.67C7.66 101.47 7.76 102.24 7.89 103.01C8.03 103.77 8.2 104.52 8.41 105.26C8.61 105.99 8.85 106.71 9.12 107.41C9.4 108.11 9.7 108.8 10.04 109.47C10.39 110.14 10.76 110.79 11.17 111.42C11.58 112.06 12.02 112.67 12.49 113.27C12.97 113.87 13.47 114.44 14.01 115C14.55 115.56 15.12 116.1 15.72 116.62C16.33 117.14 16.96 117.64 17.62 118.12C18.29 118.6 18.98 119.05 19.71 119.49C20.43 119.93 21.19 120.34 21.97 120.74C22.76 121.13 23.57 121.5 24.41 121.85C25.25 122.2 26.12 122.53 27.01 122.83C27.91 123.14 28.83 123.42 29.78 123.68C30.73 123.94 31.7 124.18 32.7 124.39C33.7 124.61 34.72 124.8 35.77 124.96C36.81 125.13 37.88 125.27 38.98 125.39C40.07 125.51 41.18 125.61 42.32 125.68C43.45 125.76 44.61 125.8 45.78 125.83C46.96 125.86 48.15 125.86 49.36 125.83C50.57 125.81 51.8 125.77 53.05 125.7C54.3 125.63 55.56 125.53 56.84 125.42C58.12 125.3 59.41 125.16 60.71 124.99C62.02 124.83 63.34 124.64 64.67 124.43C66 124.22 67.34 123.99 68.7 123.73C70.05 123.47 71.41 123.19 72.79 122.89C74.16 122.59 75.54 122.26 76.92 121.92C78.31 121.57 79.71 121.2 81.1 120.81C82.5 120.42 83.91 120.01 85.32 119.57C86.72 119.14 88.13 118.68 89.55 118.21C90.96 117.73 92.38 117.23 93.79 116.72C95.21 116.2 96.62 115.66 98.03 115.11C99.45 114.55 100.86 113.98 102.27 113.38C103.68 112.79 105.08 112.17 106.48 111.54C107.88 110.91 109.27 110.26 110.66 109.59C112.05 108.93 113.43 108.24 114.81 107.54Z" fill="#1774BF" fill-opacity="0.700000" fill-rule="nonzero"/>
	<path id="path" d="M118.9 105.39C120.25 104.66 121.6 103.91 122.93 103.15C124.26 102.39 125.58 101.61 126.89 100.82C128.2 100.03 129.5 99.23 130.78 98.41C132.06 97.59 133.32 96.76 134.57 95.92C135.82 95.08 137.05 94.22 138.27 93.36C139.48 92.5 140.68 91.62 141.86 90.74C143.03 89.85 144.19 88.96 145.33 88.05C146.47 87.15 147.59 86.24 148.68 85.32C149.78 84.4 150.85 83.48 151.9 82.54C152.95 81.61 153.98 80.67 154.98 79.73C155.98 78.78 156.96 77.83 157.91 76.88C158.87 75.92 159.79 74.97 160.69 74.01C161.59 73.05 162.46 72.08 163.31 71.12C164.16 70.15 164.97 69.18 165.76 68.22C166.55 67.25 167.31 66.28 168.04 65.31C168.77 64.34 169.47 63.38 170.14 62.41C170.81 61.44 171.45 60.48 172.05 59.52C172.66 58.56 173.24 57.6 173.78 56.64C174.32 55.69 174.84 54.74 175.32 53.8C175.8 52.85 176.24 51.91 176.66 50.98C177.07 50.04 177.45 49.12 177.8 48.2C178.14 47.28 178.45 46.36 178.73 45.46C179.01 44.56 179.26 43.66 179.47 42.77C179.68 41.89 179.85 41.01 179.99 40.15C180.14 39.28 180.24 38.43 180.32 37.58C180.39 36.74 180.43 35.91 180.43 35.09C180.43 34.27 180.4 33.46 180.33 32.67C180.27 31.88 180.16 31.1 180.03 30.34C179.89 29.57 179.72 28.82 179.52 28.09C179.31 27.35 179.07 26.64 178.8 25.93C178.53 25.23 178.22 24.54 177.88 23.88C177.54 23.21 177.16 22.56 176.75 21.92C176.35 21.29 175.91 20.67 175.43 20.08C174.96 19.48 174.45 18.9 173.91 18.34C173.37 17.78 172.8 17.24 172.2 16.72C171.6 16.21 170.96 15.71 170.3 15.23C169.63 14.75 168.94 14.29 168.21 13.85C167.49 13.42 166.73 13 165.95 12.61C165.17 12.21 164.35 11.84 163.51 11.49C162.67 11.14 161.81 10.82 160.91 10.51C160.01 10.21 159.09 9.92 158.14 9.66C157.2 9.4 156.22 9.17 155.22 8.95C154.22 8.74 153.2 8.55 152.16 8.38C151.11 8.21 150.04 8.07 148.95 7.95C147.86 7.83 146.74 7.73 145.61 7.66C144.47 7.59 143.32 7.54 142.14 7.52C140.97 7.49 139.77 7.49 138.56 7.51C137.35 7.53 136.12 7.58 134.87 7.65C133.63 7.72 132.36 7.81 131.09 7.93C129.81 8.05 128.52 8.19 127.21 8.35C125.9 8.51 124.58 8.7 123.25 8.91C121.92 9.12 120.58 9.36 119.23 9.61C117.87 9.87 116.51 10.15 115.14 10.45C113.77 10.76 112.39 11.08 111 11.43C109.61 11.77 108.22 12.14 106.82 12.54C105.42 12.93 104.02 13.34 102.61 13.77C101.2 14.21 99.79 14.66 98.37 15.14C96.96 15.61 95.55 16.11 94.13 16.63C92.72 17.14 91.3 17.68 89.89 18.24C88.48 18.79 87.07 19.37 85.66 19.96C84.25 20.56 82.84 21.17 81.44 21.8C80.04 22.43 78.65 23.08 77.26 23.75C75.87 24.42 74.49 25.1 73.12 25.8C71.74 26.5 70.38 27.22 69.03 27.95C67.67 28.68 66.33 29.43 64.99 30.19C63.66 30.96 62.34 31.73 61.03 32.52C59.72 33.31 58.43 34.12 57.15 34.94C55.87 35.75 54.6 36.58 53.35 37.43C52.1 38.27 50.87 39.12 49.66 39.98C48.44 40.85 47.24 41.72 46.07 42.61C44.89 43.49 43.73 44.39 42.59 45.29C41.45 46.19 40.34 47.1 39.24 48.02C38.14 48.94 37.07 49.87 36.02 50.8C34.97 51.73 33.94 52.67 32.94 53.62C31.94 54.56 30.96 55.51 30.01 56.47C29.06 57.42 28.13 58.38 27.23 59.34C26.33 60.3 25.46 61.26 24.61 62.23C23.77 63.19 22.95 64.16 22.16 65.13C21.37 66.1 20.61 67.07 19.88 68.03C19.15 69 18.46 69.97 17.79 70.94C17.12 71.9 16.48 72.86 15.87 73.83C15.26 74.79 14.69 75.75 14.14 76.7C13.6 77.65 13.09 78.6 12.61 79.55C12.13 80.49 11.68 81.43 11.27 82.37C10.85 83.3 10.47 84.23 10.13 85.15C9.78 86.07 9.47 86.98 9.19 87.89C8.91 88.79 8.67 89.68 8.46 90.57C8.25 91.46 8.07 92.33 7.93 93.2C7.79 94.06 7.68 94.92 7.61 95.76C7.54 96.61 7.5 97.44 7.5 98.26C7.49 99.07 7.52 99.88 7.59 100.67C7.66 101.47 7.76 102.24 7.89 103.01C8.03 103.77 8.2 104.52 8.41 105.26C8.61 105.99 8.85 106.71 9.12 107.41C9.4 108.11 9.7 108.8 10.04 109.47C10.39 110.14 10.76 110.79 11.17 111.42C11.58 112.06 12.02 112.67 12.49 113.27C12.97 113.87 13.47 114.44 14.01 115C14.55 115.56 15.12 116.1 15.72 116.62C16.33 117.14 16.96 117.64 17.62 118.12C18.29 118.6 18.98 119.05 19.71 119.49C20.43 119.93 21.19 120.34 21.97 120.74C22.76 121.13 23.57 121.5 24.41 121.85C25.25 122.2 26.12 122.53 27.01 122.83C27.91 123.14 28.83 123.42 29.78 123.68C30.73 123.94 31.7 124.18 32.7 124.39C33.7 124.61 34.72 124.8 35.77 124.96C36.81 125.13 37.88 125.27 38.98 125.39C40.07 125.51 41.18 125.61 42.32 125.68C43.45 125.76 44.61 125.8 45.78 125.83C46.96 125.86 48.15 125.86 49.36 125.83C50.57 125.81 51.8 125.77 53.05 125.7C54.3 125.63 55.56 125.53 56.84 125.42C58.12 125.3 59.41 125.16 60.71 124.99C62.02 124.83 63.34 124.64 64.67 124.43C66 124.22 67.34 123.99 68.7 123.73C70.05 123.47 71.41 123.19 72.79 122.89C74.16 122.59 75.54 122.26 76.92 121.92C78.31 121.57 79.71 121.2 81.1 120.81C82.5 120.42 83.91 120.01 85.32 119.57C86.72 119.14 88.13 118.68 89.55 118.21C90.96 117.73 92.38 117.23 93.79 116.72C95.21 116.2 96.62 115.66 98.03 115.11C99.45 114.55 100.86 113.98 102.27 113.38C103.68 112.79 105.08 112.17 106.48 111.54C107.88 110.91 109.27 110.26 110.66 109.59C112.05 108.93 113.43 108.24 114.81 107.54C116.18 106.84 117.54 106.13 118.9 105.39Z" stroke="#000000" stroke-opacity="1.000000" stroke-width="15.000000"/>
</svg>
