<svg width="157.568481" height="217.629959" viewBox="0 0 157.568 217.63" fill="none" xmlns="http://www.w3.org/2000/svg" xmlns:xlink="http://www.w3.org/1999/xlink">
	<desc>
			Created with Pixso.
	</desc>
	<defs/>
	<path id="矢量 1" d="M14.55 151.35L6.08 147.14L3.97 137.57L13.44 132.33L23.35 112.39L7.6 104.56L17.1 81.58L26.59 58.59L27.62 40.95L40.65 38.09M61.15 57.61L60.52 47.97L59.38 26.12L51.41 16.45L37.96 20.14L40.65 38.09L43.45 58.16M59.38 26.12L77.69 24.33L84.01 32.66L86.49 52.58M84.01 32.66L94.52 25.59L94.29 11.98L110.45 4.39L121.03 18.88L124.76 40.63L124.5 58.5L137.68 40.66L153.67 48.61L148.99 75.35L135.46 85.22L101.66 87.1M44.54 147.79L36.26 153.62L22.31 170.84L7.58 177.72L3.97 161.72L14.55 151.35L21.91 136.54L33.97 133.3L33.63 125.32M22.31 170.84L25.29 186.52L35.23 191.46L44 173.81L50.52 160.71M44 173.81L59.47 189.31L66.01 180.48L72.55 171.66L69.83 151.13L61.28 139.06M135.46 85.22L134.93 103.64L111.79 116.58L105.84 128.54L102.41 151.7L89.7 161.01L83.56 206.97C77.29 196.09 65 175.58 66.01 180.48M26.59 58.59L51.85 76.32M17.1 81.58L41.73 96.67M111.79 116.58L84.84 108.92M102.41 151.7L87.14 137.98" stroke="#000000" stroke-opacity="1.000000" stroke-width="7.000000"/>
</svg>
