<svg width="210.000000" height="210.000000" viewBox="0 0 210 210" fill="none" xmlns="http://www.w3.org/2000/svg" xmlns:xlink="http://www.w3.org/1999/xlink">
	<desc>
			Created with Pixso.
	</desc>
	<defs/>
	<path id="矢量 1" d="M115.29 0.49L114.61 7.46C111.42 7.15 108.22 7 105 7C101.77 7 98.57 7.15 95.38 7.46L94.7 0.49C98.09 0.16 101.52 0 105 0C108.47 0 111.9 0.16 115.29 0.49ZM55.5 12.37C61.51 9.15 67.87 6.5 74.51 4.49L76.54 11.19C73.79 12.02 71.08 12.97 68.42 14.04C65.15 15.36 61.94 16.86 58.81 18.54L55.5 12.37ZM135.48 4.49C142.12 6.5 148.48 9.15 154.49 12.37L151.19 18.54C148.05 16.86 144.85 15.36 141.57 14.04C138.91 12.97 136.2 12.02 133.45 11.19L135.48 4.49ZM23.83 38.38C28.19 33.07 33.07 28.19 38.38 23.83L42.83 29.23C40.34 31.28 37.96 33.43 35.7 35.7C33.43 37.96 31.28 40.34 29.23 42.83L23.83 38.38ZM171.61 23.83C176.92 28.19 181.8 33.07 186.16 38.38L180.76 42.83C178.71 40.34 176.56 37.96 174.3 35.7Q170.9 32.3 167.16 29.23L171.61 23.83ZM111.25 98.75L173.75 98.75C177.2 98.75 180 101.54 180 105C180 108.45 177.2 111.25 173.75 111.25L111.25 111.25L111.25 173.75C111.25 177.2 108.45 180 105 180C101.54 180 98.75 177.2 98.75 173.75L98.75 111.25L36.25 111.25C32.79 111.25 30 108.45 30 105C30 101.54 32.79 98.75 36.25 98.75L98.75 98.75L98.75 36.25C98.75 32.79 101.54 30 105 30C108.45 30 111.25 32.79 111.25 36.25L111.25 98.75ZM197.62 55.5C200.84 61.51 203.49 67.87 205.5 74.51L198.8 76.54C197.97 73.79 197.02 71.08 195.95 68.42C194.63 65.14 193.13 61.94 191.45 58.81L197.62 55.5ZM4.49 74.51C6.5 67.87 9.15 61.51 12.37 55.5L18.54 58.81C16.86 61.94 15.36 65.15 14.04 68.42C12.97 71.08 12.02 73.79 11.19 76.54L4.49 74.51ZM0.49 115.29C0.16 111.9 0 108.47 0 105C0 101.52 0.16 98.09 0.49 94.7L7.46 95.38C7.15 98.57 7 101.77 7 105C7 108.22 7.15 111.42 7.46 114.61L0.49 115.29ZM209.5 94.7C209.83 98.09 210 101.52 210 105C210 108.47 209.83 111.9 209.5 115.29L202.53 114.61C202.84 111.42 203 108.22 203 105C203 101.77 202.84 98.57 202.53 95.38L209.5 94.7ZM205.5 135.48C203.49 142.12 200.84 148.48 197.62 154.49L191.45 151.19C193.13 148.05 194.63 144.84 195.95 141.56C197.02 138.91 197.97 136.2 198.8 133.45L205.5 135.48ZM12.37 154.49C9.15 148.48 6.5 142.12 4.49 135.48L11.19 133.45C12.02 136.2 12.97 138.91 14.04 141.56C15.36 144.84 16.86 148.05 18.54 151.19L12.37 154.49ZM186.16 171.61C181.8 176.92 176.92 181.8 171.61 186.16L167.16 180.76C169.65 178.71 172.03 176.55 174.3 174.29C176.56 172.02 178.71 169.65 180.76 167.16L186.16 171.61ZM38.38 186.16C33.07 181.8 28.19 176.92 23.83 171.61L29.23 167.16C31.28 169.65 33.43 172.03 35.7 174.29C37.96 176.56 40.34 178.71 42.83 180.76L38.38 186.16ZM154.49 197.62C148.48 200.84 142.12 203.49 135.48 205.5L133.45 198.8C136.2 197.97 138.91 197.02 141.57 195.95C144.84 194.63 148.05 193.13 151.19 191.45L154.49 197.62ZM74.51 205.5C67.87 203.49 61.51 200.84 55.5 197.62L58.81 191.45C61.94 193.13 65.15 194.63 68.43 195.95C71.09 197.02 73.79 197.97 76.54 198.8L74.51 205.5ZM115.29 209.5C111.9 209.83 108.47 210 105 210C101.52 210 98.09 209.83 94.7 209.5L95.38 202.53C98.57 202.84 101.77 203 105 203C108.22 203 111.42 202.84 114.61 202.53L115.29 209.5Z" fill="#000000" fill-opacity="1.000000" fill-rule="evenodd"/>
</svg>
