<svg width="157.578461" height="217.639725" viewBox="0 0 157.578 217.64" fill="none" xmlns="http://www.w3.org/2000/svg" xmlns:xlink="http://www.w3.org/1999/xlink">
	<desc>
			Created with Pixso.
	</desc>
	<defs/>
	<path id="矢量 1" d="M3.98 137.57L13.45 132.33L23.36 112.39L7.61 104.56L17.11 81.58L26.6 58.59L27.63 40.95L40.66 38.09L37.97 20.14L51.42 16.45L59.39 26.12L77.7 24.33L84.02 32.66L94.53 25.59L94.3 11.98L110.46 4.39L121.04 18.88L124.77 40.63L124.51 58.5L137.69 40.66L153.67 48.61L149 75.35L135.47 85.22L134.94 103.64L111.8 116.58L105.85 128.54L102.42 151.7L89.71 161.01L83.57 206.97C78.27 197.79 68.69 181.74 66.44 179.91L66.02 180.48L59.48 189.31L44.01 173.81L35.24 191.46L25.3 186.52L22.32 170.84L7.59 177.72L3.98 161.72L14.56 151.35L6.09 147.14L3.98 137.57Z" fill="#000000" fill-opacity="0" fill-rule="evenodd"/>
	<path id="矢量 1" d="M14.56 151.35L6.09 147.14L3.98 137.57L13.45 132.33L23.36 112.39L7.61 104.56L17.11 81.58L26.6 58.59L27.63 40.95L40.66 38.09M61.16 57.61L60.53 47.97L59.39 26.12L51.42 16.45L37.97 20.14L40.66 38.09L43.46 58.16M59.39 26.12L77.7 24.33L84.02 32.66L86.5 52.58M84.02 32.66L94.53 25.59L94.3 11.98L110.46 4.39L121.04 18.88L124.77 40.63L124.51 58.5L137.69 40.66L153.67 48.61L149 75.35L135.47 85.22L101.67 87.1M44.55 147.79L36.27 153.62L22.32 170.84L7.59 177.72L3.98 161.72L14.56 151.35L21.92 136.54L33.98 133.3L33.64 125.32M22.32 170.84L25.3 186.52L35.24 191.46L44.01 173.81L50.53 160.71M44.01 173.81L59.48 189.31L66.02 180.48L72.56 171.66L69.84 151.13L61.29 139.06M135.47 85.22L134.94 103.64L111.8 116.58L105.85 128.54L102.42 151.7L89.71 161.01L83.57 206.97C77.3 196.09 65.01 175.58 66.02 180.48M26.6 58.59L51.86 76.32M17.11 81.58L41.74 96.67M111.8 116.58L84.85 108.92M102.42 151.7L87.15 137.98" stroke="#1774BF" stroke-opacity="1.000000" stroke-width="6.999998"/>
</svg>
