<svg width="120.011124" height="168.910995" viewBox="0 0 120.011 168.911" fill="none" xmlns="http://www.w3.org/2000/svg" xmlns:xlink="http://www.w3.org/1999/xlink">
	<desc>
			Created with Pixso.
	</desc>
	<defs/>
	<path id="矢量 1" d="M50.75 3.5L79.25 3.5L98.25 24.5L111.25 45.5L116.25 77L98.25 93L79.25 108.5L62.75 129.5L55.25 141L50.75 153.5L31.75 165L17.25 159L8.75 147.5L3.75 120L8.75 97L12.75 77L3.75 57.5L12.75 30L22.75 24.5L31.75 14.5L50.75 3.5Z" fill="#000000" fill-opacity="0" fill-rule="nonzero"/>
	<path id="矢量 1" d="M79.25 3.5L98.25 24.5L111.25 45.5L116.25 77L98.25 93L79.25 108.5L62.75 129.5L55.25 141L50.75 153.5L31.75 165L17.25 159L8.75 147.5L3.75 120L8.75 97L12.75 77L3.75 57.5L12.75 30L22.75 24.5L31.75 14.5L50.75 3.5L79.25 3.5ZM31.75 14.5L50.75 37.5M98.25 24.5L62.75 45.5M12.75 77L40.25 77M8.75 97C8.75 97 27.96 94.56 40.25 93M8.75 147.5L31.75 129.5M116.25 77L79.25 77M79.25 108.5L67.75 93M62.75 129.5L55.25 115M55.25 141C55.25 141 46.1 133.98 40.25 129.5" stroke="#1774BF" stroke-opacity="1.000000" stroke-width="7.000000"/>
</svg>
