<svg width="432.000000" height="276.000000" viewBox="0 0 432 276" fill="none" xmlns="http://www.w3.org/2000/svg" xmlns:xlink="http://www.w3.org/1999/xlink">
	<desc>
			Created with Pixso.
	</desc>
	<defs/>
	<path id="矢量 1" d="M432 138C432 195.93 336.75 243 219.5 243C102.24 243 7 195.93 7 138C7 80.06 102.24 33 219.5 33C336.75 33 432 80.06 432 138Z" fill="#1774BF" fill-opacity="1.000000" fill-rule="evenodd"/>
	<path id="矢量 1" d="M225 128L225 48L213 48L213 128L125 128L125 81L113 81L113 128L30 128L30 140L113 140L113 194L125 194L125 140L213 140L213 227L225 227L225 140L313 140L313 198L325 198L325 140L408 140L408 128L325 128L325 85L313 85L313 128L225 128Z" fill="#000000" fill-opacity="1.000000" fill-rule="evenodd"/>
	<path id="矢量 1" d="M112 49.5C112 58.6 104.6 66 95.5 66C86.39 66 79 58.6 79 49.5C79 40.39 86.39 33 95.5 33C104.6 33 112 40.39 112 49.5Z" fill="#000000" fill-opacity="1.000000" fill-rule="evenodd"/>
	<path id="矢量 1" d="M360 226.5C360 235.6 352.6 243 343.5 243C334.39 243 327 235.6 327 226.5C327 217.39 334.39 210 343.5 210C352.6 210 360 217.39 360 226.5Z" fill="#000000" fill-opacity="1.000000" fill-rule="evenodd"/>
	<path id="矢量 1" d="M360 49.5C360 58.6 352.6 66 343.5 66C334.39 66 327 58.6 327 49.5C327 40.39 334.39 33 343.5 33C352.6 33 360 40.39 360 49.5Z" fill="#000000" fill-opacity="1.000000" fill-rule="evenodd"/>
	<path id="矢量 1" d="M112 226.5C112 235.6 104.6 243 95.5 243C86.39 243 79 235.6 79 226.5C79 217.39 86.39 210 95.5 210C104.6 210 112 217.39 112 226.5Z" fill="#000000" fill-opacity="1.000000" fill-rule="evenodd"/>
	<path id="矢量 1" d="M0 93.5C0 84.38 7.38 77 16.5 77C25.61 77 33 84.38 33 93.5C33 102.61 25.61 110 16.5 110C7.38 110 0 102.61 0 93.5Z" fill="#000000" fill-opacity="1.000000" fill-rule="evenodd"/>
	<path id="矢量 1" d="M0 179.5C0 170.38 7.38 163 16.5 163C25.61 163 33 170.38 33 179.5C33 188.61 25.61 196 16.5 196C7.38 196 0 188.61 0 179.5Z" fill="#000000" fill-opacity="1.000000" fill-rule="evenodd"/>
	<path id="矢量 1" d="M399 93.5C399 84.38 406.38 77 415.5 77C424.61 77 432 84.38 432 93.5C432 102.61 424.61 110 415.5 110C406.38 110 399 102.61 399 93.5Z" fill="#000000" fill-opacity="1.000000" fill-rule="evenodd"/>
	<path id="矢量 1" d="M399 179.5C399 170.38 406.38 163 415.5 163C424.61 163 432 170.38 432 179.5C432 188.61 424.61 196 415.5 196C406.38 196 399 188.61 399 179.5Z" fill="#000000" fill-opacity="1.000000" fill-rule="evenodd"/>
	<path id="矢量 1" d="M236 259.5C236 268.6 228.6 276 219.5 276C210.39 276 203 268.6 203 259.5C203 250.39 210.39 243 219.5 243C228.6 243 236 250.39 236 259.5Z" fill="#000000" fill-opacity="1.000000" fill-rule="evenodd"/>
	<path id="矢量 1" d="M236 16.5C236 25.6 228.6 33 219.5 33C210.39 33 203 25.6 203 16.5C203 7.39 210.39 0 219.5 0C228.6 0 236 7.39 236 16.5Z" fill="#000000" fill-opacity="1.000000" fill-rule="evenodd"/>
</svg>
