<svg width="90.207550" height="67.617538" viewBox="0 0 90.2076 67.6175" fill="none" xmlns="http://www.w3.org/2000/svg" xmlns:xlink="http://www.w3.org/1999/xlink">
	<desc>
			Created with Pixso.
	</desc>
	<defs/>
	<path id="矢量 1" d="M90.2 60.9Q66.38 45.44 49.06 34.35L69.52 4.52L62.92 0L42.31 30.04Q4.99 6.26 3.02 6.26L3.02 14.26Q3.23 14.26 12.31 20.06L11.27 46.83L0 53.47L4.05 60.36L10.9 56.33L10.89 56.53L27.13 47.98C27.06 48.57 27.03 49.16 27.03 49.76C27.03 58.32 33.96 65.26 42.53 65.26C51.09 65.26 58.02 58.32 58.02 49.76C58.02 49.69 58.02 49.63 58.02 49.57Q70.51 57.66 85.85 67.61L90.2 60.9ZM42.53 42.26C38.38 42.26 35.03 45.62 35.03 49.76C35.03 53.9 38.38 57.26 42.53 57.26C46.67 57.26 50.03 53.9 50.03 49.76C50.03 45.62 46.67 42.26 42.53 42.26Z" fill="#000000" fill-opacity="1.000000" fill-rule="evenodd"/>
</svg>
