<svg width="278.831726" height="48.153099" viewBox="0 0 278.832 48.1531" fill="none" xmlns="http://www.w3.org/2000/svg" xmlns:xlink="http://www.w3.org/1999/xlink">
	<desc>
			Created with Pixso.
	</desc>
	<defs/>
	<path id="矢量 1" d="M278.72 2.12C278.77 2 278.8 1.88 278.82 1.75C278.83 1.62 278.83 1.5 278.82 1.37C278.8 1.25 278.77 1.13 278.73 1.01C278.68 0.89 278.62 0.78 278.55 0.67C278.48 0.57 278.4 0.47 278.3 0.39C278.21 0.31 278.1 0.23 277.99 0.17C277.88 0.12 277.76 0.07 277.64 0.04C277.51 0.01 277.39 -3.63e-5 277.26 0L237.45 0.02C236.19 0.02 235.45 1.43 236.16 2.46L246.78 17.9C233.7 26.71 216.19 25.76 204.12 15.29C187.79 1.13 163.81 -1.34 146.45 11.53L122.63 29.2C122.46 29.32 122.32 29.47 122.22 29.65C122.11 29.83 122.04 30.02 122.01 30.22C121.98 30.43 121.99 30.63 122.04 30.83C122.09 31.03 122.18 31.22 122.3 31.38L126.96 37.66C127.08 37.83 127.23 37.96 127.41 38.07C127.59 38.18 127.78 38.24 127.98 38.27C128.19 38.31 128.39 38.3 128.59 38.24C128.79 38.19 128.98 38.11 129.14 37.98L152.97 20.31C166.21 10.49 184.49 12.75 196.95 23.56C212.81 37.31 235.82 38.53 252.98 26.91L261.72 39.62C262.43 40.66 264.01 40.47 264.47 39.29L278.72 2.12Z" fill="#1774BF" fill-opacity="0.898039" fill-rule="nonzero"/>
	<path id="矢量 1" d="M82.11 25.15C94.19 35.62 111.7 36.57 124.78 27.76L130.98 36.77C113.82 48.39 90.81 47.17 74.95 33.41C62.49 22.61 44.21 20.35 30.96 30.17L7.14 47.84C6.98 47.96 6.79 48.05 6.59 48.1C6.39 48.15 6.19 48.16 5.98 48.13C5.78 48.1 5.59 48.03 5.41 47.93C5.23 47.82 5.08 47.68 4.96 47.52L0.3 41.24C0.18 41.07 0.09 40.89 0.04 40.69C-0.01 40.49 -0.02 40.29 0.01 40.08C0.04 39.88 0.11 39.68 0.22 39.51C0.32 39.33 0.46 39.18 0.63 39.06L24.45 21.39C41.81 8.51 65.78 10.99 82.11 25.15Z" fill="#1774BF" fill-opacity="0.900000" fill-rule="evenodd"/>
</svg>
