<svg width="460.478668" height="100.985504" viewBox="0 0 460.479 100.986" fill="none" xmlns="http://www.w3.org/2000/svg" xmlns:xlink="http://www.w3.org/1999/xlink">
	<desc>
			Created with Pixso.
	</desc>
	<defs/>
	<path id="矢量 1" d="M74.22 37.84L44.3 12.13L54.73 0L98.55 37.66L119.81 37.49L90.3 12.13L100.73 0L144.14 37.3L340.59 35.78L339.65 24.86L316.44 15.3L347.7 1.85L351.3 3.33C352.11 3.47 352.91 3.67 353.69 3.94L455.52 39.32C458.8 40.46 460.47 42.45 460.47 44.45C460.47 46.25 459.13 48.06 456.38 49.28L361.23 91.56C357.2 93.35 352.11 93.06 348.72 91.45L348.4 91.59L316.93 78.63L343.3 67.29L342.34 56.1L150.55 57.59L101.61 100.98L91 89.01L126.22 57.78L104.14 57.95L55.61 100.98L45 89.01L79.81 58.13L58.74 58.3L10.61 100.98L0 89.01L43.6 50.34L0.3 13.13L10.73 1L53.79 38L74.22 37.84Z" fill="#1774BF" fill-opacity="1.000000" fill-rule="evenodd"/>
</svg>
