<svg width="469.710114" height="102.351212" viewBox="0 0 469.71 102.351" fill="none" xmlns="http://www.w3.org/2000/svg" xmlns:xlink="http://www.w3.org/1999/xlink">
	<desc>
			Created with Pixso.
	</desc>
	<defs>
		<clipPath id="clip0_3">
			<rect id="svg" width="98.717400" height="468.958649" transform="translate(0.765556 102.351212) rotate(-90.444328)" fill="white" fill-opacity="0"/>
		</clipPath>
	</defs>
	<g clip-path="url(#clip0_3)">
		<path id="矢量 1" d="M57.8 38.34L347.65 36.1L346.71 25.17L323.5 15.62L354.77 2.17L358.36 3.65C359.17 3.79 359.97 3.99 360.75 4.26L462.58 39.64C468.8 41.8 469.25 47.01 463.44 49.6L368.3 91.88C364.27 93.67 359.18 93.38 355.78 91.77L355.46 91.91L323.99 78.95L350.36 67.61L349.4 56.42L157.61 57.9L108.67 101.3L98.06 89.33L133.28 58.09L111.2 58.26L62.67 101.3L52.06 89.33L86.87 58.45L65.8 58.62L17.67 101.3L7.06 89.33L57.84 44.29L57.8 38.34Z" fill="#1774BF" fill-opacity="1.000000" fill-rule="evenodd"/>
	</g>
</svg>
