<svg width="156.000000" height="103.000000" viewBox="0 0 156 103" fill="none" xmlns="http://www.w3.org/2000/svg" xmlns:xlink="http://www.w3.org/1999/xlink">
	<desc>
			Created with Pixso.
	</desc>
	<defs/>
	<path id="矢量 1" d="M66 12C66 5.37 71.37 0 78 0C84.62 0 90 5.37 90 12C90 18.62 84.62 24 78 24C71.93 24 66.92 19.5 66.11 13.66C65.02 13.87 63.93 14.12 62.84 14.4L62.6 13.43C63.73 13.14 64.87 12.88 66.01 12.66C66 12.44 66 12.22 66 12ZM56.66 15.26C57.31 15.02 57.96 14.8 58.61 14.58L58.92 15.53C58.28 15.75 57.64 15.97 57 16.2L56.66 15.26ZM97.38 14.58C98.03 14.8 98.68 15.02 99.33 15.26L98.99 16.2C98.35 15.97 97.71 15.75 97.07 15.53L97.38 14.58ZM103.18 16.8C105.07 17.62 106.92 18.54 108.75 19.54L108.26 20.42C106.47 19.43 104.64 18.52 102.78 17.71L103.18 16.8ZM43.69 21.65C45.44 20.54 47.24 19.51 49.06 18.57L49.52 19.46C47.72 20.39 45.95 21.4 44.22 22.5L43.69 21.65ZM115.75 23.98C115.75 23.99 115.76 23.99 115.77 24C115.84 24 115.92 24 116 24C118.95 24 121.41 26.14 121.91 28.95C123.01 29.95 124.1 30.98 125.16 32.06L124.45 32.76C123.64 31.94 122.82 31.15 121.98 30.38C121.79 33.51 119.18 36 116 36C112.68 36 110 33.31 110 30C110 26.77 112.54 24.14 115.73 24L115.75 23.98ZM40.22 24C40.23 23.99 40.24 23.99 40.25 23.98L40.26 24C43.45 24.14 46 26.77 46 30C46 33.31 43.31 36 40 36C36.68 36 34 33.31 34 30C34 26.68 36.68 24 40 24C40.07 24 40.15 24 40.22 24ZM27.98 35.1Q30.07 32.75 32.31 30.6L33 31.32C31.53 32.74 30.1 34.22 28.72 35.76L27.98 35.1ZM24.04 39.88C24.46 39.33 24.88 38.79 25.31 38.26L26.09 38.89C25.67 39.41 25.25 39.94 24.84 40.48L24.04 39.88ZM130.68 38.26C131.11 38.79 131.53 39.33 131.95 39.88L131.15 40.48C130.74 39.94 130.33 39.41 129.9 38.89L130.68 38.26ZM18 48.98C18 45.67 20.69 43 24 43C27.31 43 30 45.68 30 49C30 52.31 27.31 55 24 55C21.24 55 18.93 53.14 18.22 50.62C17.86 51.26 17.51 51.91 17.16 52.57L16.28 52.11C16.83 51.05 17.4 50.01 18 48.98ZM127 49C127 45.68 129.68 43 133 43C136.31 43 139 45.68 139 49C139 52.31 136.31 55 133 55C129.68 55 127 52.31 127 49ZM13.6 57.68C13.87 57.05 14.16 56.42 14.45 55.79L15.36 56.22C15.07 56.84 14.79 57.46 14.51 58.08L13.6 57.68ZM141.54 55.79C141.83 56.42 142.12 57.05 142.39 57.68L141.48 58.08C141.2 57.46 140.92 56.84 140.63 56.22L141.54 55.79ZM143.99 61.54C144.73 63.45 145.4 65.38 146.02 67.34C148.34 68.17 150 70.39 150 73C150 74.52 149.43 75.91 148.5 76.96Q148.54 77.19 148.59 77.42L147.89 77.56C146.84 78.45 145.48 79 144 79C140.68 79 138 76.31 138 73C138 69.68 140.68 67 144 67C144.3 67 144.59 67.02 144.88 67.06C144.32 65.32 143.71 63.6 143.06 61.9L143.99 61.54ZM9.97 67.34Q10.27 66.39 10.59 65.44L11.54 65.76C11.39 66.19 11.25 66.62 11.11 67.06C11.4 67.02 11.7 67 12 67C15.31 67 18 69.68 18 73C18 76.31 15.31 79 12 79C10.51 79 9.15 78.45 8.1 77.56L7.4 77.42C7.43 77.27 7.46 77.12 7.5 76.96C6.56 75.91 6 74.52 6 73C6 70.39 7.65 68.17 9.97 67.34ZM149.31 81.5C149.62 83.52 149.87 85.56 150.06 87.6L149.07 87.7C148.88 85.67 148.63 83.66 148.32 81.66L149.31 81.5ZM5.67 91C5.78 89.18 5.93 87.36 6.14 85.55L7.13 85.67C6.93 87.45 6.78 89.24 6.67 91.03C9.67 91.37 12 93.91 12 97C12 100.31 9.31 103 6 103C2.68 103 0 100.31 0 97C0 93.79 2.51 91.17 5.67 91ZM144 97C144 93.68 146.68 91 150 91C153.31 91 156 93.68 156 97C156 100.31 153.31 103 150 103C146.68 103 144 100.31 144 97Z" fill="#000000" fill-opacity="1.000000" fill-rule="evenodd"/>
</svg>
