<svg width="246.000000" height="246.033325" viewBox="0 0 246 246.033" fill="none" xmlns="http://www.w3.org/2000/svg" xmlns:xlink="http://www.w3.org/1999/xlink">
	<desc>
			Created with Pixso.
	</desc>
	<defs/>
	<path id="矢量 1" d="M15 14.5C15 6.49 21.49 0 29.5 0C37.5 0 44 6.49 44 14.5C44 22.5 37.5 29 29.5 29C21.49 29 15 22.5 15 14.5ZM217 14.5C217 6.49 223.49 0 231.5 0C239.5 0 246 6.49 246 14.5C246 22.5 239.5 29 231.5 29C223.49 29 217 22.5 217 14.5ZM123.5 28L41.66 169.75L205.33 169.75L123.5 28ZM14.5 217C6.49 217 0 223.49 0 231.5C0 239.5 6.49 246 14.5 246C22.5 246 29 239.5 29 231.5C29 223.49 22.5 217 14.5 217ZM231.5 218C223.49 218 217 224.27 217 232.01C217 239.75 223.49 246.03 231.5 246.03C239.5 246.03 246 239.75 246 232.01C246 224.27 239.5 218 231.5 218Z" fill="#B97B0B" fill-opacity="1.000000" fill-rule="evenodd"/>
</svg>
