<svg width="172.850006" height="168.500000" viewBox="0 0 172.85 168.5" fill="none" xmlns="http://www.w3.org/2000/svg" xmlns:xlink="http://www.w3.org/1999/xlink">
	<desc>
			Created with Pixso.
	</desc>
	<defs/>
	<path id="path" d="M161.92 75.5C161.92 33.87 128.05 0 86.42 0C44.8 0 10.92 33.87 10.92 75.5L10.92 113.87L0 168.5L17.45 168.5L24.17 148.67L30.55 116.8L30.75 75.5C30.75 74.58 30.77 73.67 30.82 72.76C30.86 71.85 30.93 70.95 31.02 70.04C31.11 69.13 31.22 68.23 31.36 67.33C31.49 66.43 31.65 65.53 31.83 64.64C32.01 63.75 32.21 62.86 32.43 61.97C32.65 61.09 32.89 60.21 33.16 59.34C33.42 58.47 33.71 57.61 34.02 56.75C34.33 55.89 34.65 55.04 35 54.2C35.35 53.36 35.72 52.53 36.11 51.7C36.5 50.88 36.91 50.07 37.34 49.26C37.77 48.46 38.22 47.67 38.69 46.89C39.16 46.11 39.64 45.34 40.15 44.58C40.66 43.82 41.18 43.08 41.72 42.35C42.27 41.62 42.83 40.9 43.41 40.2C43.98 39.49 44.58 38.8 45.19 38.13C45.8 37.45 46.43 36.79 47.07 36.15C47.72 35.5 48.38 34.88 49.05 34.27C49.73 33.65 50.42 33.06 51.12 32.48C51.82 31.9 52.54 31.34 53.27 30.8C54 30.26 54.75 29.73 55.51 29.23C56.26 28.72 57.03 28.23 57.81 27.76C58.59 27.3 59.39 26.85 60.19 26.42C60.99 25.99 61.81 25.58 62.63 25.19C63.45 24.8 64.28 24.43 65.13 24.08C65.97 23.73 66.82 23.4 67.67 23.09C68.53 22.79 69.4 22.5 70.27 22.23C71.14 21.97 72.02 21.73 72.9 21.5C73.78 21.28 74.67 21.08 75.56 20.9C76.46 20.72 77.35 20.57 78.25 20.43C79.16 20.3 80.06 20.19 80.97 20.09C81.87 20 82.78 19.94 83.69 19.89C84.6 19.84 85.51 19.82 86.42 19.82C87.33 19.82 88.24 19.84 89.15 19.89C90.06 19.94 90.97 20 91.87 20.09C92.78 20.19 93.68 20.3 94.59 20.43C95.49 20.57 96.38 20.72 97.28 20.9C98.17 21.08 99.06 21.28 99.94 21.5C100.83 21.73 101.7 21.97 102.57 22.23C103.45 22.5 104.31 22.79 105.17 23.09C106.02 23.4 106.87 23.73 107.71 24.08C108.56 24.43 109.39 24.8 110.21 25.19C111.03 25.58 111.85 25.99 112.65 26.42C113.45 26.85 114.25 27.3 115.03 27.76C115.81 28.23 116.58 28.72 117.33 29.23C118.09 29.73 118.84 30.26 119.57 30.8C120.3 31.34 121.02 31.9 121.72 32.48C122.42 33.06 123.11 33.65 123.79 34.27C124.46 34.88 125.12 35.5 125.77 36.15C126.41 36.79 127.04 37.45 127.65 38.13C128.26 38.8 128.86 39.49 129.43 40.2C130.01 40.9 130.57 41.62 131.12 42.35C131.66 43.08 132.18 43.82 132.69 44.58C133.2 45.34 133.68 46.11 134.15 46.89C134.62 47.67 135.07 48.46 135.5 49.26C135.93 50.07 136.34 50.88 136.73 51.7C137.12 52.53 137.49 53.36 137.84 54.2C138.19 55.04 138.51 55.89 138.82 56.75C139.13 57.61 139.42 58.47 139.68 59.34C139.95 60.21 140.19 61.09 140.41 61.97C140.63 62.86 140.83 63.75 141.01 64.64C141.19 65.53 141.35 66.43 141.48 67.33C141.62 68.23 141.73 69.13 141.82 70.04C141.91 70.95 141.98 71.85 142.02 72.76C142.07 73.67 142.09 74.58 142.1 75.5L142.1 114.85L148.67 148.67L155.51 168.5L172.85 168.5L161.92 113.87L161.92 75.5Z" fill="#000000" fill-opacity="1.000000" fill-rule="evenodd"/>
</svg>
