<svg width="124.000000" height="124.000000" viewBox="0 0 124 124" fill="none" xmlns="http://www.w3.org/2000/svg" xmlns:xlink="http://www.w3.org/1999/xlink">
	<desc>
			Created with Pixso.
	</desc>
	<defs/>
	<path id="矢量 1" d="M30 15C30 6.71 36.71 0 45 0C53.28 0 60 6.71 60 15C60 23.28 53.28 30 45 30C36.71 30 30 23.28 30 15ZM30 45C30 53.27 23.27 60 15 60C6.72 60 0 53.27 0 45C0 36.72 6.72 30 15 30C23.27 30 30 36.72 30 45ZM60 39C60 34.02 64.02 30 69 30C73.97 30 78 34.02 78 39C78 43.97 73.97 48 69 48C64.02 48 60 43.97 60 39ZM78 57C78 52.02 82.02 48 87 48C91.97 48 96 52.02 96 57C96 61.97 91.97 66 87 66C82.02 66 78 61.97 78 57ZM48 69C48 73.96 43.96 78 39 78C34.03 78 30 73.96 30 69C30 64.03 34.03 60 39 60C43.96 60 48 64.03 48 69ZM96 70.5C96 68.01 98.01 66 100.5 66C102.98 66 105 68.01 105 70.5C105 72.98 102.98 75 100.5 75C98.01 75 96 72.98 96 70.5ZM105 79.5C105 77.01 107.01 75 109.5 75C111.98 75 114 77.01 114 79.5C114 81.98 111.98 84 109.5 84C107.01 84 105 81.98 105 79.5ZM66 87C66 91.96 61.96 96 57 96C52.03 96 48 91.96 48 87C48 82.03 52.03 78 57 78C61.96 78 66 82.03 66 87ZM119 86.5C119 87.87 117.87 89 116.5 89C115.12 89 114 87.87 114 86.5C114 85.12 115.12 84 116.5 84C117.87 84 119 85.12 119 86.5ZM119 91.5C119 90.11 120.11 89 121.5 89C122.88 89 124 90.11 124 91.5C124 92.88 122.88 94 121.5 94C120.11 94 119 92.88 119 91.5ZM75 100.5C75 102.98 72.98 105 70.5 105C68.01 105 66 102.98 66 100.5C66 98.01 68.01 96 70.5 96C72.98 96 75 98.01 75 100.5ZM75 109.5C75 107.01 77.01 105 79.5 105C81.98 105 84 107.01 84 109.5C84 111.98 81.98 114 79.5 114C77.01 114 75 111.98 75 109.5ZM84 116.5C84 115.11 85.11 114 86.5 114C87.88 114 89 115.11 89 116.5C89 117.88 87.88 119 86.5 119C85.11 119 84 117.88 84 116.5ZM89 121.5C89 120.11 90.11 119 91.5 119C92.88 119 94 120.11 94 121.5C94 122.88 92.88 124 91.5 124C90.11 124 89 122.88 89 121.5Z" fill="#B97B0B" fill-opacity="1.000000" fill-rule="evenodd"/>
</svg>
