<svg width="447.070007" height="396.914703" viewBox="0 0 447.07 396.915" fill="none" xmlns="http://www.w3.org/2000/svg" xmlns:xlink="http://www.w3.org/1999/xlink">
	<desc>
			Created with Pixso.
	</desc>
	<defs/>
	<path id="矢量 1" d="M120 13C120 20.17 114.17 26 107 26C99.82 26 94 20.17 94 13C94 5.82 99.82 0 107 0C114.17 0 120 5.82 120 13ZM180 19C180 26.17 174.17 32 167 32C159.82 32 154 26.17 154 19C154 11.82 159.82 6 167 6C174.17 6 180 11.82 180 19ZM58 26.5C58 36.7 49.7 45 39.5 45C29.29 45 21 36.7 21 26.5C21 16.29 29.29 8 39.5 8C49.7 8 58 16.29 58 26.5ZM200.23 396.91Q189.17 387.69 137.23 328.54Q85.15 269.22 76.91 256.35Q33.41 188.37 31.36 133.96Q31.27 131.48 31.27 129.05Q31.27 102.24 42.63 81.72L42.63 81.72C43.77 79.66 44.99 77.65 46.3 75.69C46.44 75.47 46.59 75.26 46.73 75.04L46.73 75.04Q64.81 48.48 102.9 35.54Q145.03 18.99 211.7 55.03C218.98 58.96 230.54 66.94 246.38 78.96Q257.45 87.36 262.13 90.6C268.65 95.13 278.54 104.83 291.8 119.72C301.04 130.1 307.23 136.45 310.36 138.77L310.67 139L310.96 139.26C316.79 144.42 325.73 151.63 337.79 160.91C353.06 172.65 367.03 183.69 379.69 194.02Q394.88 206.43 421.3 220.17C432.15 225.82 439.04 230.16 441.98 233.2C445.37 236.72 447.07 240.59 447.07 244.81C447.07 244.9 447.06 245 447.06 245.09C446.99 249.2 445.25 253.26 441.84 257.25L428.15 245.57C428.26 245.44 428.37 245.31 428.47 245.19C426.39 243.44 421.23 240.43 413 236.14C394.28 226.41 379.39 217.02 368.3 207.97C355.78 197.74 341.95 186.81 326.82 175.18C314.61 165.79 305.43 158.38 299.29 152.97C295.13 149.78 288.15 142.69 278.36 131.69Q259.88 110.96 251.86 105.39C248.54 103.08 243.09 99.05 235.5 93.3Q212.84 76.11 203.14 70.86Q143.69 38.73 109.31 52.36L109.1 52.45L108.88 52.52Q74.33 64.21 59.81 88.08Q49.27 105.39 49.27 129.12Q49.27 131.18 49.35 133.28C50 150.39 54.46 169.4 62.74 190.31Q73.66 217.87 92.08 246.64Q99.58 258.37 150.76 316.66Q201.77 374.76 211.76 383.08L200.23 396.91ZM240 45C240 52.17 234.17 58 227 58C219.82 58 214 52.17 214 45C214 37.82 219.82 32 227 32C234.17 32 240 37.82 240 45ZM283 71C283 78.17 277.17 84 270 84C262.82 84 257 78.17 257 71C257 63.82 262.82 58 270 58C277.17 58 283 63.82 283 71ZM26 84C26 91.17 20.17 97 13 97C5.82 97 0 91.17 0 84C0 76.82 5.82 71 13 71C20.17 71 26 76.82 26 84ZM308 97C308 100.86 304.86 104 301 104C297.13 104 294 100.86 294 97C294 93.13 297.13 90 301 90C304.86 90 308 93.13 308 97ZM327 121C327 124.86 323.86 128 320 128C316.13 128 313 124.86 313 121C313 117.13 316.13 114 320 114C323.86 114 327 117.13 327 121ZM26 141C26 148.17 20.17 154 13 154C5.82 154 0 148.17 0 141C0 133.82 5.82 128 13 128C20.17 128 26 133.82 26 141ZM346 141C346 144.86 342.86 148 339 148C335.13 148 332 144.86 332 141C332 137.13 335.13 134 339 134C342.86 134 346 137.13 346 141ZM367 161C367 164.86 363.86 168 360 168C356.13 168 353 164.86 353 161C353 157.13 356.13 154 360 154C363.86 154 367 157.13 367 161ZM391 180C391 183.86 387.86 187 384 187C380.13 187 377 183.86 377 180C377 176.13 380.13 173 384 173C387.86 173 391 176.13 391 180ZM39 198C39 205.17 33.17 211 26 211C18.82 211 13 205.17 13 198C13 190.82 18.82 185 26 185C33.17 185 39 190.82 39 198ZM414 198C414 201.86 410.86 205 407 205C403.13 205 400 201.86 400 198C400 194.13 403.13 191 407 191C410.86 191 414 194.13 414 198ZM441 212C441 215.86 437.86 219 434 219C430.13 219 427 215.86 427 212C427 208.13 430.13 205 434 205C437.86 205 441 208.13 441 212ZM58 243C58 250.17 52.17 256 45 256C37.82 256 32 250.17 32 243C32 235.82 37.82 230 45 230C52.17 230 58 235.82 58 243ZM72 277C72 280.86 68.86 284 65 284C61.13 284 58 280.86 58 277C58 273.13 61.13 270 65 270C68.86 270 72 273.13 72 277ZM94 298C94 301.86 90.86 305 87 305C83.13 305 80 301.86 80 298C80 294.13 83.13 291 87 291C90.86 291 94 294.13 94 298ZM114 318C114 321.86 110.86 325 107 325C103.13 325 100 321.86 100 318C100 314.13 103.13 311 107 311C110.86 311 114 314.13 114 318ZM134 338C134 341.86 130.86 345 127 345C123.13 345 120 341.86 120 338C120 334.13 123.13 331 127 331C130.86 331 134 334.13 134 338ZM154 359C154 362.86 150.86 366 147 366C143.13 366 140 362.86 140 359C140 355.13 143.13 352 147 352C150.86 352 154 355.13 154 359ZM174 378C174 381.86 170.86 385 167 385C163.13 385 160 381.86 160 378C160 374.13 163.13 371 167 371C170.86 371 174 374.13 174 378Z" fill="#B97B0B" fill-opacity="1.000000" fill-rule="evenodd"/>
</svg>
