<svg width="120.000000" height="120.000000" viewBox="0 0 120 120" fill="none" xmlns="http://www.w3.org/2000/svg" xmlns:xlink="http://www.w3.org/1999/xlink">
	<desc>
			Created with Pixso.
	</desc>
	<defs/>
	<path id="矢量 1" d="M120 117.5C120 118.88 118.88 120 117.5 120C116.11 120 115 118.88 115 117.5C115 116.11 116.11 115 117.5 115C118.88 115 120 116.11 120 117.5ZM118 103.5C118 105.98 115.98 108 113.5 108C111.01 108 109 105.98 109 103.5C109 101.01 111.01 99 113.5 99C115.98 99 118 101.01 118 103.5ZM114 87.5C114 89.98 111.98 92 109.5 92C107.01 92 105 89.98 105 87.5C105 85.01 107.01 83 109.5 83C111.98 83 114 85.01 114 87.5ZM110 67C110 71.97 105.97 76 101 76C96.02 76 92 71.97 92 67C92 62.02 96.02 58 101 58C105.97 58 110 62.02 110 67ZM92 43C92 51.28 85.28 58 77 58C68.71 58 62 51.28 62 43C62 34.71 68.71 28 77 28C85.28 28 92 34.71 92 43ZM62 19C62 23.97 57.97 28 53 28C48.02 28 44 23.97 44 19C44 14.02 48.02 10 53 10C57.97 10 62 14.02 62 19ZM37 10.5C37 12.98 34.98 15 32.5 15C30.01 15 28 12.98 28 10.5C28 8.01 30.01 6 32.5 6C34.98 6 37 8.01 37 10.5ZM21 6.5C21 8.98 18.98 11 16.5 11C14.01 11 12 8.98 12 6.5C12 4.01 14.01 2 16.5 2C18.98 2 21 4.01 21 6.5ZM5 2.5C5 3.88 3.88 5 2.5 5C1.11 5 0 3.88 0 2.5C0 1.11 1.11 0 2.5 0C3.88 0 5 1.11 5 2.5Z" fill="#B97B0B" fill-opacity="1.000000" fill-rule="evenodd"/>
</svg>
