<svg width="461.000000" height="461.000000" viewBox="0 0 461 461" fill="none" xmlns="http://www.w3.org/2000/svg" xmlns:xlink="http://www.w3.org/1999/xlink">
	<desc>
			Created with Pixso.
	</desc>
	<defs>
		<clipPath id="clip0_3">
			<rect id="svg" width="461.000000" height="461.000000" fill="white" fill-opacity="0"/>
		</clipPath>
	</defs>
	<g clip-path="url(#clip0_3)">
		<path id="矢量 1" d="M269.8 32.94C257.08 30.42 243.95 29 230.5 29C217.04 29 203.89 30.32 191.17 32.84C194.82 32.12 198.49 31.59 202.17 31.08C211.52 29.76 220.96 29.1 230.5 29.1C239.96 29.1 249.34 29.75 258.62 31.05C262.36 31.57 266.09 32.2 269.8 32.94ZM118.57 62.97C96.6 77.69 77.69 96.6 62.97 118.57C70.41 107.47 78.85 97.34 88.12 88.07C97.37 78.82 107.49 70.4 118.57 62.97ZM398.02 118.57C383.3 96.6 364.39 77.69 342.42 62.97C353.54 70.42 363.67 78.86 372.95 88.14C382.19 97.39 390.6 107.5 398.02 118.57ZM29 230.5C29 243.95 30.32 257.1 32.84 269.82C32.13 266.24 31.62 262.64 31.11 259.03C29.77 249.62 29.1 240.1 29.1 230.5C29.1 220.89 29.76 211.39 31.1 201.97C31.62 198.37 32.23 194.77 32.94 191.19C30.42 203.91 29 217.04 29 230.5ZM432 230.5C432 217.04 430.67 203.89 428.15 191.17C428.92 195.07 429.48 199 430.02 202.93C431.27 212.03 431.89 221.22 431.9 230.5C431.89 239.7 431.28 248.82 430.05 257.86C429.5 261.85 428.84 265.84 428.05 269.8C430.57 257.08 432 243.95 432 230.5ZM62.97 342.42C77.69 364.39 96.6 383.3 118.57 398.02C107.46 390.57 97.32 382.13 88.04 372.84C78.8 363.6 70.39 353.49 62.97 342.42ZM342.42 398.02C364.39 383.3 383.3 364.39 398.02 342.42C390.59 353.51 382.16 363.63 372.89 372.89C363.63 382.15 353.51 390.59 342.42 398.02ZM230.5 432C243.95 432 257.1 430.67 269.82 428.15C265.86 428.94 261.86 429.5 257.86 430.05C248.83 431.28 239.7 431.89 230.5 431.9C221.15 431.89 211.9 431.26 202.74 429.99C198.87 429.46 195.02 428.81 191.19 428.05C203.91 430.57 217.04 432 230.5 432Z" fill="#000000" fill-opacity="1.000000" fill-rule="evenodd"/>
		<path id="矢量 1" d="M303 231C303 271.28 270.28 304 230 304C189.72 304 157 271.28 157 231C157 190.72 189.72 158 230 158C270.28 158 303 190.72 303 231Z" fill="#B97B0B" fill-opacity="1.000000" fill-rule="evenodd"/>
		<path id="矢量 1" d="M106 145C106 159.34 94.34 171 80 171C65.65 171 54 159.34 54 145C54 130.65 65.65 119 80 119C94.34 119 106 130.65 106 145Z" fill="#B97B0B" fill-opacity="1.000000" fill-rule="evenodd"/>
		<path id="矢量 1" d="M106 317C106 331.34 94.34 343 80 343C65.65 343 54 331.34 54 317C54 302.65 65.65 291 80 291C94.34 291 106 302.65 106 317Z" fill="#B97B0B" fill-opacity="1.000000" fill-rule="evenodd"/>
		<path id="矢量 1" d="M256 55C256 69.34 244.34 81 230 81C215.65 81 204 69.34 204 55C204 40.65 215.65 29 230 29C244.34 29 256 40.65 256 55Z" fill="#B97B0B" fill-opacity="1.000000" fill-rule="evenodd"/>
		<path id="矢量 1" d="M256 406C256 420.34 244.34 432 230 432C215.65 432 204 420.34 204 406C204 391.65 215.65 380 230 380C244.34 380 256 391.65 256 406Z" fill="#B97B0B" fill-opacity="1.000000" fill-rule="evenodd"/>
		<path id="矢量 1" d="M316 406C316 413.17 310.17 419 303 419C295.82 419 290 413.17 290 406C290 398.82 295.82 393 303 393C310.17 393 316 398.82 316 406Z" fill="#B97B0B" fill-opacity="1.000000" fill-rule="evenodd"/>
		<path id="矢量 1" d="M432 231C432 238.17 426.17 244 419 244C411.82 244 406 238.17 406 231C406 223.82 411.82 218 419 218C426.17 218 432 223.82 432 231Z" fill="#B97B0B" fill-opacity="1.000000" fill-rule="evenodd"/>
		<path id="矢量 1" d="M54 231C54 238.17 48.17 244 41 244C33.82 244 28 238.17 28 231C28 223.82 33.82 218 41 218C48.17 218 54 223.82 54 231Z" fill="#B97B0B" fill-opacity="1.000000" fill-rule="evenodd"/>
		<path id="矢量 1" d="M170 56C170 63.17 164.17 69 157 69C149.82 69 144 63.17 144 56C144 48.82 149.82 43 157 43C164.17 43 170 48.82 170 56Z" fill="#B97B0B" fill-opacity="1.000000" fill-rule="evenodd"/>
		<path id="矢量 1" d="M316 55C316 62.17 310.17 68 303 68C295.82 68 290 62.17 290 55C290 47.82 295.82 42 303 42C310.17 42 316 47.82 316 55Z" fill="#B97B0B" fill-opacity="1.000000" fill-rule="evenodd"/>
		<path id="矢量 1" d="M170 406C170 413.17 164.17 419 157 419C149.82 419 144 413.17 144 406C144 398.82 149.82 393 157 393C164.17 393 170 398.82 170 406Z" fill="#B97B0B" fill-opacity="1.000000" fill-rule="evenodd"/>
		<path id="矢量 1" d="M406 330C406 344.34 394.34 356 380 356C365.65 356 354 344.34 354 330C354 315.65 365.65 304 380 304C394.34 304 406 315.65 406 330Z" fill="#B97B0B" fill-opacity="1.000000" fill-rule="evenodd"/>
		<path id="矢量 1" d="M406 145C406 159.34 394.34 171 380 171C365.65 171 354 159.34 354 145C354 130.65 365.65 119 380 119C394.34 119 406 130.65 406 145Z" fill="#B97B0B" fill-opacity="1.000000" fill-rule="evenodd"/>
	</g>
</svg>
