<svg width="149.000000" height="148.000000" viewBox="0 0 149 148" fill="none" xmlns="http://www.w3.org/2000/svg" xmlns:xlink="http://www.w3.org/1999/xlink">
	<desc>
			Created with Pixso.
	</desc>
	<defs/>
	<path id="矢量 1" d="M36 2.5C36 3.87 34.87 5 33.5 5C32.12 5 31 3.87 31 2.5C31 1.12 32.12 0 33.5 0C34.87 0 36 1.12 36 2.5ZM31 14.5C31 12.01 33.01 10 35.5 10C37.98 10 40 12.01 40 14.5C40 16.98 37.98 19 35.5 19C33.01 19 31 16.98 31 14.5ZM35 30.5C35 28.01 37.01 26 39.5 26C41.98 26 44 28.01 44 30.5C44 32.98 41.98 35 39.5 35C37.01 35 35 32.98 35 30.5ZM5 32.5C5 33.87 3.87 35 2.5 35C1.12 35 0 33.87 0 32.5C0 31.12 1.12 30 2.5 30C3.87 30 5 31.12 5 32.5ZM0 44.5C0 42.01 2.01 40 4.5 40C6.98 40 9 42.01 9 44.5C9 46.98 6.98 49 4.5 49C2.01 49 0 46.98 0 44.5ZM39 51C39 46.02 43.02 42 48 42C52.97 42 57 46.02 57 51C57 55.97 52.97 60 48 60C43.02 60 39 55.97 39 51ZM4 60.5C4 58.01 6.01 56 8.5 56C10.98 56 13 58.01 13 60.5C13 62.98 10.98 65 8.5 65C6.01 65 4 62.98 4 60.5ZM57 75C57 66.71 63.71 60 72 60C80.28 60 87 66.71 87 75C87 83.28 80.28 90 72 90C63.71 90 57 83.28 57 75ZM8 81C8 76.02 12.02 72 17 72C21.97 72 26 76.02 26 81C26 85.97 21.97 90 17 90C12.02 90 8 85.97 8 81ZM26 105C26 96.71 32.71 90 41 90C49.28 90 56 96.71 56 105C56 113.28 49.28 120 41 120C32.71 120 26 113.28 26 105ZM87 99C87 94.02 91.02 90 96 90C100.97 90 105 94.02 105 99C105 103.97 100.97 108 96 108C91.02 108 87 103.97 87 99ZM112 107.5C112 105.01 114.01 103 116.5 103C118.98 103 121 105.01 121 107.5C121 109.98 118.98 112 116.5 112C114.01 112 112 109.98 112 107.5ZM128 111.5C128 109.01 130.01 107 132.5 107C134.98 107 137 109.01 137 111.5C137 113.98 134.98 116 132.5 116C130.01 116 128 113.98 128 111.5ZM144 115.5C144 114.11 145.11 113 146.5 113C147.88 113 149 114.11 149 115.5C149 116.88 147.88 118 146.5 118C145.11 118 144 116.88 144 115.5ZM56 129C56 124.02 60.02 120 65 120C69.97 120 74 124.02 74 129C74 133.97 69.97 138 65 138C60.02 138 56 133.97 56 129ZM81 137.5C81 135.01 83.01 133 85.5 133C87.98 133 90 135.01 90 137.5C90 139.98 87.98 142 85.5 142C83.01 142 81 139.98 81 137.5ZM97 141.5C97 139.01 99.01 137 101.5 137C103.98 137 106 139.01 106 141.5C106 143.98 103.98 146 101.5 146C99.01 146 97 143.98 97 141.5ZM113 145.5C113 144.11 114.11 143 115.5 143C116.88 143 118 144.11 118 145.5C118 146.88 116.88 148 115.5 148C114.11 148 113 146.88 113 145.5Z" fill="#B97B0B" fill-opacity="1.000000" fill-rule="evenodd"/>
</svg>
