<svg width="491.000000" height="384.000000" viewBox="0 0 491 384" fill="none" xmlns="http://www.w3.org/2000/svg" xmlns:xlink="http://www.w3.org/1999/xlink">
	<desc>
			Created with Pixso.
	</desc>
	<defs/>
	<path id="矢量 1" d="M183 62C183 27.75 210.75 0 245 0C279.24 0 307 27.75 307 62C307 96.24 279.24 124 245 124C210.75 124 183 96.24 183 62ZM0 322C0 287.75 27.75 260 62 260C96.24 260 124 287.75 124 322C124 356.24 96.24 384 62 384C27.75 384 0 356.24 0 322ZM429 260C394.75 260 367 287.75 367 322C367 356.24 394.75 384 429 384C463.24 384 491 356.24 491 322C491 287.75 463.24 260 429 260Z" fill="#B97B0B" fill-opacity="1.000000" fill-rule="evenodd"/>
</svg>
