<svg width="542.000000" height="543.914673" viewBox="0 0 542 543.915" fill="none" xmlns="http://www.w3.org/2000/svg" xmlns:xlink="http://www.w3.org/1999/xlink">
	<desc>
			Created with Pixso.
	</desc>
	<defs/>
	<path id="矢量 1" d="M269 13C269 20.17 263.17 26 256 26C248.82 26 243 20.17 243 13C243 5.82 248.82 0 256 0C263.17 0 269 5.82 269 13ZM323 20C323 27.17 317.17 33 310 33C302.82 33 297 27.17 297 20C297 12.82 302.82 7 310 7C317.17 7 323 12.82 323 20ZM373 33C373 40.17 367.17 46 360 46C352.82 46 347 40.17 347 33C347 25.82 352.82 20 360 20C367.17 20 373 25.82 373 33ZM207 44.5C207 54.7 198.7 63 188.5 63C178.29 63 170 54.7 170 44.5C170 34.29 178.29 26 188.5 26C198.7 26 207 34.29 207 44.5ZM470.91 132.44C511.54 165.67 535.05 185.86 541.45 193.01L528.03 205.01C522.26 198.55 499.42 179.01 459.52 146.38Q399.47 97.27 387.49 90.18C367.89 78.58 348.78 69.47 330.16 62.84C308.98 55.29 289.83 51.5 272.7 51.45C255.1 51.41 240.16 55.42 227.89 63.49C212.33 73.72 201.06 90.48 194.08 113.77L194.01 113.99L193.93 114.21Q190.62 123.49 190.62 134.44Q190.62 164.57 215.71 207.33L205.64 213.24L203.14 217.86C202.2 217.35 201.26 216.85 200.32 216.36L200.18 216.44Q200.12 216.33 200.05 216.22C161.88 196.13 131.63 190.51 109.31 199.36L109.1 199.45L108.88 199.52C85.85 207.31 69.49 219.16 59.81 235.08C52.78 246.62 49.27 260.3 49.27 276.12C49.27 277.49 49.3 278.88 49.35 280.28C50 297.4 54.46 316.4 62.74 337.31C70.02 355.68 79.8 374.46 92.08 393.64Q99.58 405.37 150.76 463.66C184.76 502.39 205.1 524.53 211.76 530.08L200.23 543.91Q189.17 534.69 137.23 475.54C102.51 435.99 82.41 411.93 76.91 403.35C47.91 358.03 32.73 317.23 31.36 280.96Q31.27 278.48 31.27 276.05Q31.27 249.24 42.63 228.72C43.77 226.66 44.99 224.65 46.3 222.69C46.44 222.47 46.59 222.26 46.73 222.05L46.73 222.04Q64.81 195.48 102.9 182.54Q136.73 169.26 186.38 189.87Q172.65 159.16 172.65 134.27Q172.65 120.43 176.9 108.39Q188.5 69.87 214.41 50.88L214.41 50.88C214.62 50.72 214.83 50.57 215.04 50.42C216.95 49.04 218.92 47.75 220.94 46.54C235.56 37.76 252.83 33.4 272.75 33.45Q327.2 33.59 396.66 74.69C405.43 79.88 430.18 99.13 470.91 132.44ZM422 63C422 70.17 416.17 76 409 76C401.82 76 396 70.17 396 63C396 55.82 401.82 50 409 50C416.17 50 422 55.82 422 63ZM450 95C450 98.86 446.86 102 443 102C439.13 102 436 98.86 436 95C436 91.13 439.13 88 443 88C446.86 88 450 91.13 450 95ZM170 102C170 109.17 164.17 115 157 115C149.82 115 144 109.17 144 102C144 94.82 149.82 89 157 89C164.17 89 170 94.82 170 102ZM475 115C475 118.86 471.86 122 468 122C464.13 122 461 118.86 461 115C461 111.13 464.13 108 468 108C471.86 108 475 111.13 475 115ZM498 135C498 138.86 494.86 142 491 142C487.13 142 484 138.86 484 135C484 131.13 487.13 128 491 128C494.86 128 498 131.13 498 135ZM120 160C120 167.17 114.17 173 107 173C99.82 173 94 167.17 94 160C94 152.82 99.82 147 107 147C114.17 147 120 152.82 120 160ZM519 154C519 157.86 515.86 161 512 161C508.13 161 505 157.86 505 154C505 150.13 508.13 147 512 147C515.86 147 519 150.13 519 154ZM174 161C174 168.17 168.17 174 161 174C153.82 174 148 168.17 148 161C148 153.82 153.82 148 161 148C168.17 148 174 153.82 174 161ZM58 173.5C58 183.7 49.7 192 39.5 192C29.29 192 21 183.7 21 173.5C21 163.29 29.29 155 39.5 155C49.7 155 58 163.29 58 173.5ZM542 174C542 177.86 538.86 181 535 181C531.13 181 528 177.86 528 174C528 170.13 531.13 167 535 167C538.86 167 542 170.13 542 174ZM26 231C26 238.17 20.17 244 13 244C5.82 244 0 238.17 0 231C0 223.82 5.82 218 13 218C20.17 218 26 223.82 26 231ZM26 288C26 295.17 20.17 301 13 301C5.82 301 0 295.17 0 288C0 280.82 5.82 275 13 275C20.17 275 26 280.82 26 288ZM39 345C39 352.17 33.17 358 26 358C18.82 358 13 352.17 13 345C13 337.82 18.82 332 26 332C33.17 332 39 337.82 39 345ZM58 390C58 397.17 52.17 403 45 403C37.82 403 32 397.17 32 390C32 382.82 37.82 377 45 377C52.17 377 58 382.82 58 390ZM72 424C72 427.86 68.86 431 65 431C61.13 431 58 427.86 58 424C58 420.13 61.13 417 65 417C68.86 417 72 420.13 72 424ZM94 445C94 448.86 90.86 452 87 452C83.13 452 80 448.86 80 445C80 441.13 83.13 438 87 438C90.86 438 94 441.13 94 445ZM114 465C114 468.86 110.86 472 107 472C103.13 472 100 468.86 100 465C100 461.13 103.13 458 107 458C110.86 458 114 461.13 114 465ZM134 485C134 488.86 130.86 492 127 492C123.13 492 120 488.86 120 485C120 481.13 123.13 478 127 478C130.86 478 134 481.13 134 485ZM154 506C154 509.86 150.86 513 147 513C143.13 513 140 509.86 140 506C140 502.13 143.13 499 147 499C150.86 499 154 502.13 154 506ZM174 525C174 528.86 170.86 532 167 532C163.13 532 160 528.86 160 525C160 521.13 163.13 518 167 518C170.86 518 174 521.13 174 525Z" fill="#B97B0B" fill-opacity="1.000000" fill-rule="evenodd"/>
</svg>
