<svg width="120.000000" height="120.000000" viewBox="0 0 120 120" fill="none" xmlns="http://www.w3.org/2000/svg" xmlns:xlink="http://www.w3.org/1999/xlink">
	<desc>
			Created with Pixso.
	</desc>
	<defs/>
	<path id="矢量 1" d="M0 2.5C0 1.11 1.11 0 2.5 0C3.88 0 5 1.11 5 2.5C5 3.88 3.88 5 2.5 5C1.11 5 0 3.88 0 2.5ZM2 16.5C2 14.01 4.01 12 6.5 12C8.98 12 11 14.01 11 16.5C11 18.98 8.98 21 6.5 21C4.01 21 2 18.98 2 16.5ZM6 32.5C6 30.01 8.01 28 10.5 28C12.98 28 15 30.01 15 32.5C15 34.98 12.98 37 10.5 37C8.01 37 6 34.98 6 32.5ZM10 53C10 48.02 14.02 44 19 44C23.97 44 28 48.02 28 53C28 57.97 23.97 62 19 62C14.02 62 10 57.97 10 53ZM28 77C28 68.71 34.71 62 43 62C51.28 62 58 68.71 58 77C58 85.28 51.28 92 43 92C34.71 92 28 85.28 28 77ZM58 101C58 96.02 62.02 92 67 92C71.97 92 76 96.02 76 101C76 105.97 71.97 110 67 110C62.02 110 58 105.97 58 101ZM83 109.5C83 107.01 85.01 105 87.5 105C89.98 105 92 107.01 92 109.5C92 111.98 89.98 114 87.5 114C85.01 114 83 111.98 83 109.5ZM99 113.5C99 111.01 101.01 109 103.5 109C105.98 109 108 111.01 108 113.5C108 115.98 105.98 118 103.5 118C101.01 118 99 115.98 99 113.5ZM115 117.5C115 116.11 116.11 115 117.5 115C118.88 115 120 116.11 120 117.5C120 118.88 118.88 120 117.5 120C116.11 120 115 118.88 115 117.5Z" fill="#B97B0B" fill-opacity="1.000000" fill-rule="evenodd"/>
</svg>
