<svg width="115.000000" height="123.000000" viewBox="0 0 115 123" fill="none" xmlns="http://www.w3.org/2000/svg" xmlns:xlink="http://www.w3.org/1999/xlink">
	<desc>
			Created with Pixso.
	</desc>
	<defs/>
	<path id="矢量 1" d="M58 10C58 15.51 53.51 20 48 20C42.48 20 38 15.51 38 10C38 4.48 42.48 0 48 0C53.51 0 58 4.48 58 10ZM30 20C30 25.51 25.51 30 20 30C14.48 30 10 25.51 10 20C10 14.48 14.48 10 20 10C25.51 10 30 14.48 30 20ZM78 20C78 23.31 75.31 26 72 26C68.68 26 66 23.31 66 20C66 16.68 68.68 14 72 14C75.31 14 78 16.68 78 20ZM94 30C94 33.31 91.31 36 88 36C84.68 36 82 33.31 82 30C82 26.68 84.68 24 88 24C91.31 24 94 26.68 94 30ZM63 32C63 35.31 60.31 38 57 38C53.68 38 51 35.31 51 32C51 28.68 53.68 26 57 26C60.31 26 63 28.68 63 32ZM42 36C42 39.31 39.31 42 36 42C32.68 42 30 39.31 30 36C30 32.68 32.68 30 36 30C39.31 30 42 32.68 42 36ZM78 39C78 40.65 76.65 42 75 42C73.34 42 72 40.65 72 39C72 37.34 73.34 36 75 36C76.65 36 78 37.34 78 39ZM20 48C20 53.51 15.51 58 10 58C4.48 58 0 53.51 0 48C0 42.48 4.48 38 10 38C15.51 38 20 42.48 20 48ZM100 41C100 42.65 98.65 44 97 44C95.34 44 94 42.65 94 41C94 39.34 95.34 38 97 38C98.65 38 100 39.34 100 41ZM57 43.5C57 44.32 56.32 45 55.5 45C54.67 45 54 44.32 54 43.5C54 42.67 54.67 42 55.5 42C56.32 42 57 42.67 57 43.5ZM65 45.5C65 46.32 64.32 47 63.5 47C62.67 47 62 46.32 62 45.5C62 44.67 62.67 44 63.5 44C64.32 44 65 44.67 65 45.5ZM47 46.5C47 47.32 46.32 48 45.5 48C44.67 48 44 47.32 44 46.5C44 45.67 44.67 45 45.5 45C46.32 45 47 45.67 47 46.5ZM89 48C89 49.65 87.65 51 86 51C84.34 51 83 49.65 83 48C83 46.34 84.34 45 86 45C87.65 45 89 46.34 89 48ZM71 49.5C71 50.32 70.32 51 69.5 51C68.67 51 68 50.32 68 49.5C68 48.67 68.67 48 69.5 48C70.32 48 71 48.67 71 49.5ZM106 51C106 52.65 104.65 54 103 54C101.34 54 100 52.65 100 51C100 49.34 101.34 48 103 48C104.65 48 106 49.34 106 51ZM33 57C33 60.31 30.31 63 27 63C23.68 63 21 60.31 21 57C21 53.68 23.68 51 27 51C30.31 51 33 53.68 33 57ZM42 54.5C42 55.32 41.32 56 40.5 56C39.67 56 39 55.32 39 54.5C39 53.67 39.67 53 40.5 53C41.32 53 42 53.67 42 54.5ZM77 54.5C77 55.32 76.32 56 75.5 56C74.67 56 74 55.32 74 54.5C74 53.67 74.67 53 75.5 53C76.32 53 77 53.67 77 54.5ZM93 56.5C93 57.32 92.32 58 91.5 58C90.67 58 90 57.32 90 56.5C90 55.67 90.67 55 91.5 55C92.32 55 93 55.67 93 56.5ZM112 61C112 62.65 110.65 64 109 64C107.34 64 106 62.65 106 61C106 59.34 107.34 58 109 58C110.65 58 112 59.34 112 61ZM81 60.5C81 61.32 80.32 62 79.5 62C78.67 62 78 61.32 78 60.5C78 59.67 78.67 59 79.5 59C80.32 59 81 59.67 81 60.5ZM40 62.5C40 63.32 39.32 64 38.5 64C37.67 64 37 63.32 37 62.5C37 61.67 37.67 61 38.5 61C39.32 61 40 61.67 40 62.5ZM96 63.5C96 64.32 95.32 65 94.5 65C93.67 65 93 64.32 93 63.5C93 62.67 93.67 62 94.5 62C95.32 62 96 62.67 96 63.5ZM84 66.5C84 67.32 83.32 68 82.5 68C81.67 68 81 67.32 81 66.5C81 65.67 81.67 65 82.5 65C83.32 65 84 65.67 84 66.5ZM20 73C20 76.31 17.31 79 14 79C10.68 79 8 76.31 8 73C8 69.68 10.68 67 14 67C17.31 67 20 69.68 20 73ZM42 69.5C42 70.32 41.32 71 40.5 71C39.67 71 39 70.32 39 69.5C39 68.67 39.67 68 40.5 68C41.32 68 42 68.67 42 69.5ZM98 70.5C98 71.32 97.32 72 96.5 72C95.67 72 95 71.32 95 70.5C95 69.67 95.67 69 96.5 69C97.32 69 98 69.67 98 70.5ZM85 73.5C85 74.32 84.32 75 83.5 75C82.67 75 82 74.32 82 73.5C82 72.67 82.67 72 83.5 72C84.32 72 85 72.67 85 73.5ZM33 75C33 76.65 31.65 78 30 78C28.34 78 27 76.65 27 75C27 73.34 28.34 72 30 72C31.65 72 33 73.34 33 75ZM115 76C115 77.65 113.65 79 112 79C110.34 79 109 77.65 109 76C109 74.34 110.34 73 112 73C113.65 73 115 74.34 115 76ZM46 75.5C46 76.32 45.32 77 44.5 77C43.67 77 43 76.32 43 75.5C43 74.67 43.67 74 44.5 74C45.32 74 46 74.67 46 75.5ZM99 77.5C99 78.32 98.32 79 97.5 79C96.67 79 96 78.32 96 77.5C96 76.67 96.67 76 97.5 76C98.32 76 99 76.67 99 77.5ZM83 80.5C83 81.32 82.32 82 81.5 82C80.67 82 80 81.32 80 80.5C80 79.67 80.67 79 81.5 79C82.32 79 83 79.67 83 80.5ZM51 81.5C51 82.32 50.32 83 49.5 83C48.67 83 48 82.32 48 81.5C48 80.67 48.67 80 49.5 80C50.32 80 51 80.67 51 81.5ZM99 83.5C99 84.32 98.32 85 97.5 85C96.67 85 96 84.32 96 83.5C96 82.67 96.67 82 97.5 82C98.32 82 99 82.67 99 83.5ZM30 89C30 92.31 27.31 95 24 95C20.68 95 18 92.31 18 89C18 85.68 20.68 83 24 83C27.31 83 30 85.68 30 89ZM56 85.5C56 86.32 55.32 87 54.5 87C53.67 87 53 86.32 53 85.5C53 84.67 53.67 84 54.5 84C55.32 84 56 84.67 56 85.5ZM78 86.5C78 87.32 77.32 88 76.5 88C75.67 88 75 87.32 75 86.5C75 85.67 75.67 85 76.5 85C77.32 85 78 85.67 78 86.5ZM42 89C42 90.65 40.65 92 39 92C37.34 92 36 90.65 36 89C36 87.34 37.34 86 39 86C40.65 86 42 87.34 42 89ZM115 89C115 90.65 113.65 92 112 92C110.34 92 109 90.65 109 89C109 87.34 110.34 86 112 86C113.65 86 115 87.34 115 89ZM63 88.5C63 89.32 62.32 90 61.5 90C60.67 90 60 89.32 60 88.5C60 87.67 60.67 87 61.5 87C62.32 87 63 87.67 63 88.5ZM69.5 91C68.67 91 68 90.32 68 89.5C68 88.67 68.67 88 69.5 88C70.32 88 71 88.67 71 89.5C71 90.32 70.32 91 69.5 91ZM97 89.5C97 90.32 96.32 91 95.5 91C94.67 91 94 90.32 94 89.5C94 88.67 94.67 88 95.5 88C96.32 88 97 88.67 97 89.5ZM93 95.5C93 96.32 92.32 97 91.5 97C90.67 97 90 96.32 90 95.5C90 94.67 90.67 94 91.5 94C92.32 94 93 94.67 93 95.5ZM49 96.5C49 97.32 48.32 98 47.5 98C46.67 98 46 97.32 46 96.5C46 95.67 46.67 95 47.5 95C48.32 95 49 95.67 49 96.5ZM112 100C112 101.65 110.65 103 109 103C107.34 103 106 101.65 106 100C106 98.34 107.34 97 109 97C110.65 97 112 98.34 112 100ZM36 101C36 102.65 34.65 104 33 104C31.34 104 30 102.65 30 101C30 99.34 31.34 98 33 98C34.65 98 36 99.34 36 101ZM56 100.5C56 101.32 55.32 102 54.5 102C53.67 102 53 101.32 53 100.5C53 99.67 53.67 99 54.5 99C55.32 99 56 99.67 56 100.5ZM88 100.5C88 101.32 87.32 102 86.5 102C85.67 102 85 101.32 85 100.5C85 99.67 85.67 99 86.5 99C87.32 99 88 99.67 88 100.5ZM64 103.5C64 104.32 63.32 105 62.5 105C61.67 105 61 104.32 61 103.5C61 102.67 61.67 102 62.5 102C63.32 102 64 102.67 64 103.5ZM80 103.5C80 104.32 79.32 105 78.5 105C77.67 105 77 104.32 77 103.5C77 102.67 77.67 102 78.5 102C79.32 102 80 102.67 80 103.5ZM72 104.5C72 105.32 71.32 106 70.5 106C69.67 106 69 105.32 69 104.5C69 103.67 69.67 103 70.5 103C71.32 103 72 103.67 72 104.5ZM45 108C45 109.65 43.65 111 42 111C40.34 111 39 109.65 39 108C39 106.34 40.34 105 42 105C43.65 105 45 106.34 45 108ZM105 110C105 111.65 103.65 113 102 113C100.34 113 99 111.65 99 110C99 108.34 100.34 107 102 107C103.65 107 105 108.34 105 110ZM55 113C55 114.65 53.65 116 52 116C50.34 116 49 114.65 49 113C49 111.34 50.34 110 52 110C53.65 110 55 111.34 55 113ZM65 117C65 118.65 63.65 120 62 120C60.34 120 59 118.65 59 117C59 115.34 60.34 114 62 114C63.65 114 65 115.34 65 117ZM95 117C95 118.65 93.65 120 92 120C90.34 120 89 118.65 89 117C89 115.34 90.34 114 92 114C93.65 114 95 115.34 95 117ZM75 119C75 120.65 73.65 122 72 122C70.34 122 69 120.65 69 119C69 117.34 70.34 116 72 116C73.65 116 75 117.34 75 119ZM85 120C85 121.65 83.65 123 82 123C80.34 123 79 121.65 79 120C79 118.34 80.34 117 82 117C83.65 117 85 118.34 85 120Z" fill="#B97B0B" fill-opacity="1.000000" fill-rule="evenodd"/>
</svg>
