<svg width="135.000000" height="135.000000" viewBox="0 0 135 135" fill="none" xmlns="http://www.w3.org/2000/svg" xmlns:xlink="http://www.w3.org/1999/xlink">
	<desc>
			Created with Pixso.
	</desc>
	<defs/>
	<path id="矢量 1" d="M135 67.5C135 104.74 104.74 135 67.5 135C30.25 135 0 104.74 0 67.5C0 30.25 30.25 0 67.5 0C104.74 0 135 30.25 135 67.5ZM59.5 119.39L59.5 96L74.5 96L74.5 119.53C97.54 116.45 115.88 98.4 119.39 75.5L96 75.5L96 60.5L119.53 60.5C116.41 37.12 97.87 18.58 74.5 15.46L74.5 39.5L59.5 39.5L59.5 15.6C36.59 19.11 18.54 37.45 15.46 60.5L38.5 60.5L38.5 75.5L15.6 75.5C19.06 98.07 36.92 115.93 59.5 119.39Z" fill="#B97B0B" fill-opacity="1.000000" fill-rule="evenodd"/>
</svg>
