<svg width="162.000000" height="162.000000" viewBox="0 0 162 162" fill="none" xmlns="http://www.w3.org/2000/svg" xmlns:xlink="http://www.w3.org/1999/xlink">
	<desc>
			Created with Pixso.
	</desc>
	<defs/>
	<path id="path" d="M149.75 74.75L87.25 74.75L87.25 12.25C87.25 8.79 84.45 6 81 6C77.54 6 74.75 8.79 74.75 12.25L74.75 74.75L12.25 74.75C8.79 74.75 6 77.54 6 81C6 84.45 8.79 87.25 12.25 87.25L74.75 87.25L74.75 149.75C74.75 153.2 77.54 156 81 156C84.45 156 87.25 153.2 87.25 149.75L87.25 87.25L149.75 87.25C153.2 87.25 156 84.45 156 81C156 77.54 153.2 74.75 149.75 74.75Z" fill="#2C2C2C" fill-opacity="1.000000" fill-rule="nonzero"/>
	<path id="path" d="M87.25 74.75L87.25 12.25C87.25 8.79 84.45 6 81 6C77.54 6 74.75 8.79 74.75 12.25L74.75 74.75L12.25 74.75C8.79 74.75 6 77.54 6 81C6 84.45 8.79 87.25 12.25 87.25L74.75 87.25L74.75 149.75C74.75 153.2 77.54 156 81 156C84.45 156 87.25 153.2 87.25 149.75L87.25 87.25L149.75 87.25C153.2 87.25 156 84.45 156 81C156 77.54 153.2 74.75 149.75 74.75L87.25 74.75Z" stroke="#000000" stroke-opacity="1.000000" stroke-width="12.000000"/>
</svg>
