<svg width="153.000000" height="153.000000" viewBox="0 0 153 153" fill="none" xmlns="http://www.w3.org/2000/svg" xmlns:xlink="http://www.w3.org/1999/xlink">
	<desc>
			Created with Pixso.
	</desc>
	<defs/>
	<path id="矢量 1" d="M48.5 0C21.71 0 0 21.71 0 48.5C0 75.28 21.71 97 48.5 97C75.28 97 97 75.28 97 48.5C97 21.71 75.28 0 48.5 0ZM125 97C109.53 97 97 109.53 97 125C97 140.46 109.53 153 125 153C140.46 153 153 140.46 153 125C153 109.53 140.46 97 125 97Z" fill="#C4C4C4" fill-opacity="0" fill-rule="evenodd"/>
	<path id="矢量 1" d="M0 48.5C0 21.71 21.71 0 48.5 0C75.28 0 97 21.71 97 48.5C97 75.28 75.28 97 48.5 97C21.71 97 0 75.28 0 48.5ZM34.48 14.67Q40.94 12 48.5 12Q56.05 12 62.51 14.67Q68.96 17.34 74.3 22.69Q79.65 28.03 82.32 34.48Q85 40.94 85 48.5Q85 56.05 82.32 62.51Q79.65 68.96 74.3 74.3Q68.96 79.65 62.51 82.32Q56.05 85 48.5 85Q40.94 85 34.48 82.32Q28.03 79.65 22.69 74.3Q17.34 68.96 14.67 62.51Q12 56.05 12 48.5Q12 40.94 14.67 34.48Q17.34 28.03 22.69 22.69Q28.03 17.34 34.48 14.67ZM97 125C97 109.53 109.53 97 125 97C140.46 97 153 109.53 153 125C153 140.46 140.46 153 125 153C109.53 153 97 140.46 97 125ZM118.85 110.17Q121.68 109 125 109Q128.31 109 131.14 110.17Q133.97 111.34 136.31 113.68Q138.65 116.02 139.82 118.85Q141 121.68 141 125Q141 128.31 139.82 131.14Q138.65 133.97 136.31 136.31Q133.97 138.65 131.14 139.82Q128.31 141 125 141Q121.68 141 118.85 139.82Q116.02 138.65 113.68 136.31Q111.34 133.97 110.17 131.14Q109 128.31 109 125Q109 121.68 110.17 118.85Q111.34 116.02 113.68 113.68Q116.02 111.34 118.85 110.17Z" fill="#00A54F" fill-opacity="1.000000" fill-rule="evenodd"/>
</svg>
