<svg width="71.000000" height="113.250000" viewBox="0 0 71 113.25" fill="none" xmlns="http://www.w3.org/2000/svg" xmlns:xlink="http://www.w3.org/1999/xlink">
	<desc>
			Created with Pixso.
	</desc>
	<defs/>
	<path id="矢量 1" d="M41.5 42.71L41.5 0L28.5 0L28.5 42.88C26.22 43.31 24.03 43.96 21.93 44.82C17.72 46.56 13.88 49.17 10.4 52.65C6.92 56.13 4.31 59.97 2.57 64.18Q0 70.43 0 77.75C0 82.62 0.85 87.14 2.57 91.31C4.31 95.52 6.92 99.36 10.4 102.84C13.88 106.33 17.72 108.93 21.93 110.67C26.1 112.39 30.62 113.25 35.5 113.25Q42.81 113.25 49.06 110.67Q55.37 108.07 60.59 102.84C64.07 99.36 66.68 95.52 68.42 91.31C70.14 87.14 71 82.62 71 77.75Q71 70.43 68.42 64.18Q65.82 57.87 60.59 52.65C57.11 49.17 53.27 46.56 49.06 44.82C46.66 43.83 44.13 43.13 41.5 42.71ZM35.5 101.25C38.71 101.25 41.7 100.68 44.45 99.55C47.24 98.4 49.8 96.67 52.11 94.36C56.7 89.76 59 84.23 59 77.75C59 74.53 58.43 71.54 57.3 68.79C56.15 66 54.42 63.44 52.11 61.13C49.8 58.82 47.24 57.09 44.45 55.94C41.7 54.81 38.71 54.25 35.5 54.25C32.28 54.25 29.29 54.81 26.54 55.94C23.75 57.09 21.2 58.82 18.88 61.13C16.57 63.45 14.84 66 13.69 68.79C12.56 71.54 12 74.53 12 77.75C12 80.96 12.56 83.95 13.69 86.7C14.84 89.49 16.57 92.05 18.88 94.36C23.48 98.95 29.01 101.25 35.5 101.25Z" fill="#00A54F" fill-opacity="1.000000" fill-rule="evenodd"/>
</svg>
