<svg width="177.068878" height="192.861374" viewBox="0 0 177.069 192.861" fill="none" xmlns="http://www.w3.org/2000/svg" xmlns:xlink="http://www.w3.org/1999/xlink">
	<desc>
			Created with Pixso.
	</desc>
	<defs/>
	<path id="path" d="M0.73 72.95C-0.57 71.75 0.03 70.05 1.23 69.35C1.73 68.85 2.53 68.65 3.63 68.85C14.83 73.25 24.23 81.65 32.93 89.75C41.93 98.15 50.23 107.55 57.33 117.75C70.83 136.95 79.83 159.15 82.83 182.45C83.33 172.65 84.23 162.85 85.53 153.15C85.35 153.03 85.87 149.61 86.3 146.75C86.6 144.75 86.87 143.01 86.83 142.85C88.83 130.25 91.43 117.75 94.53 105.35L97.63 94.25L97.93 93.05C105.13 66.85 117.33 41.15 136.13 21.25C146.03 10.75 159.83 2.55 174.13 0.05C176.63 -0.45 177.93 2.75 176.43 4.05C176.23 4.35 176.03 4.65 175.63 4.85C162.33 13.45 152.33 27.15 144.03 40.35C134.73 55.05 130.93 71.65 129.03 88.75C127.93 98.95 126.63 124.35 126.23 134.65C125.73 153.55 125.13 172.45 122.03 191.15C121.77 192.69 120.46 193.09 119.31 192.73L87.08 190.45L82.83 190.15L78.4 189.98L40.43 188.58L39.6 188.55C38.63 188.36 37.77 187.62 37.73 186.35C37.53 175.55 36.53 164.75 35.23 153.95C33.93 143.05 32.93 131.95 30.23 121.25C25.53 102.55 14.33 86.35 0.73 72.95Z" fill="#00A54F" fill-opacity="1.000000" fill-rule="evenodd"/>
</svg>
