<svg width="160.000000" height="152.000000" viewBox="0 0 160 152" fill="none" xmlns="http://www.w3.org/2000/svg" xmlns:xlink="http://www.w3.org/1999/xlink">
	<desc>
			Created with Pixso.
	</desc>
	<defs/>
	<path id="矢量 1" d="M12.5 0C5.59 0 0 5.59 0 12.5C0 19.4 5.59 25 12.5 25C19.4 25 25 19.4 25 12.5C25 5.59 19.4 0 12.5 0ZM135 32.5C135 25.59 140.59 20 147.5 20C154.4 20 160 25.59 160 32.5C160 39.4 154.4 45 147.5 45C140.59 45 135 39.4 135 32.5ZM75.01 25C54.57 25 38 41.57 38 62.03C38 82.48 54.57 99.06 75.01 99.06C95.46 99.06 112.03 82.48 112.03 62.03C112.03 41.57 95.46 25 75.01 25ZM75.01 34.45C59.79 34.45 47.45 46.8 47.45 62.03C47.45 77.26 59.79 89.6 75.01 89.6C90.24 89.6 102.58 77.26 102.58 62.03C102.58 46.8 90.24 34.45 75.01 34.45ZM62.5 127C55.59 127 50 132.59 50 139.5C50 146.4 55.59 152 62.5 152C69.4 152 75 146.4 75 139.5C75 132.59 69.4 127 62.5 127Z" fill="#00A54F" fill-opacity="1.000000" fill-rule="evenodd"/>
</svg>
