<svg width="136.000000" height="208.000000" viewBox="0 0 136 208" fill="none" xmlns="http://www.w3.org/2000/svg" xmlns:xlink="http://www.w3.org/1999/xlink">
	<desc>
			Created with Pixso.
	</desc>
	<defs/>
	<path id="矢量 1" d="M16.8 0C7.52 0 0 7.52 0 16.8C0 26.09 7.52 33.61 16.8 33.61C26.08 33.61 33.6 26.09 33.6 16.8C33.6 7.52 26.08 0 16.8 0ZM102.39 16.8C102.39 7.52 109.91 0 119.19 0C128.47 0 136 7.52 136 16.8C136 26.09 128.47 33.61 119.19 33.61C109.91 33.61 102.39 26.09 102.39 16.8ZM16.8 9.45C12.74 9.45 9.45 12.74 9.45 16.8C9.45 20.86 12.74 24.16 16.8 24.16C20.86 24.16 24.15 20.86 24.15 16.8C24.15 12.74 20.86 9.45 16.8 9.45ZM111.84 16.8C111.84 12.74 115.13 9.45 119.19 9.45C123.25 9.45 126.54 12.74 126.54 16.8C126.54 20.86 123.25 24.16 119.19 24.16C115.13 24.16 111.84 20.86 111.84 16.8ZM30.98 68.02C30.98 47.56 47.55 30.98 68 30.98C88.44 30.98 105.01 47.56 105.01 68.02C105.01 88.47 88.44 105.05 68 105.05C47.55 105.05 30.98 88.47 30.98 68.02ZM40.43 68.02C40.43 52.79 52.77 40.44 68 40.44C83.22 40.44 95.56 52.79 95.56 68.02C95.56 83.24 83.22 95.59 68 95.59C52.77 95.59 40.43 83.24 40.43 68.02ZM50.93 139.71C50.93 130.43 58.45 122.9 67.73 122.9C77.01 122.9 84.54 130.43 84.54 139.71C84.54 149 77.01 156.52 67.73 156.52C58.45 156.52 50.93 149 50.93 139.71ZM60.38 139.71C60.38 135.65 63.67 132.36 67.73 132.36C71.79 132.36 75.08 135.65 75.08 139.71C75.08 143.77 71.79 147.07 67.73 147.07C63.67 147.07 60.38 143.77 60.38 139.71ZM67.73 174.38C58.45 174.38 50.93 181.9 50.93 191.19C50.93 200.47 58.45 208 67.73 208C77.01 208 84.54 200.47 84.54 191.19C84.54 181.9 77.01 174.38 67.73 174.38ZM67.73 183.83C63.67 183.83 60.38 187.13 60.38 191.19C60.38 195.25 63.67 198.54 67.73 198.54C71.79 198.54 75.08 195.25 75.08 191.19C75.08 187.13 71.79 183.83 67.73 183.83Z" fill="#00A54F" fill-opacity="1.000000" fill-rule="evenodd"/>
</svg>
