<svg width="209.464600" height="232.926773" viewBox="0 0 209.465 232.927" fill="none" xmlns="http://www.w3.org/2000/svg" xmlns:xlink="http://www.w3.org/1999/xlink">
	<desc>
			Created with Pixso.
	</desc>
	<defs/>
	<path id="矢量 1" d="M63.28 226.57L82.74 164.99L33.01 122.47L95.6 122.47L118.01 65.17L143.13 122.47L202.98 122.47L156.08 164.96L176.14 226.83L118.32 188.07L63.28 226.57ZM118.22 180.34L164.88 211.4L149.02 163.13L187.3 128.66L139.11 128.66L118.33 81.28L99.8 128.66L49.38 128.66L89.81 163.01L74.53 211.66L118.22 180.34Z" fill="#2C2C2C" fill-opacity="1.000000" fill-rule="nonzero"/>
	<path id="矢量 1" d="M79.86 165.81L26.24 119.97L93.89 119.97L117.87 58.64L144.76 119.97L209.46 119.97L158.95 165.73L180.74 232.92L118.35 191.1L58.68 232.85L79.86 165.81ZM67.89 220.3L85.62 164.16L84.36 163.09L39.78 124.97L97.3 124.97L118.14 71.69L141.5 124.97L196.49 124.97L153.2 164.19L171.53 220.73L118.29 185.04L67.89 220.3ZM118.27 183.38L169.51 217.49L167.26 210.62L151.9 163.9L193.81 126.16L140.74 126.16L118.2 74.76L98.09 126.16L42.58 126.16L86.92 163.85L69.9 218.06L118.27 183.38ZM160.25 205.31L118.16 177.3L79.16 205.27L92.69 162.18L56.18 131.16L101.51 131.16L118.46 87.81L137.47 131.16L180.79 131.16L146.13 162.37L160.25 205.31Z" fill="#000000" fill-opacity="1.000000" fill-rule="evenodd"/>
	<path id="矢量 1" d="M55 27.5C55 42.67 42.67 55 27.5 55C12.32 55 0 42.67 0 27.5C0 12.32 12.32 0 27.5 0C42.67 0 55 12.32 55 27.5Z" fill="#FF0000" fill-opacity="1.000000" fill-rule="evenodd"/>
	<path id="矢量 1" d="M74.81 85.98L53.71 24.88L19.4 52.69L74.81 85.98Z" fill="#FF0000" fill-opacity="1.000000" fill-rule="evenodd"/>
</svg>
