<svg width="153.000000" height="207.000000" viewBox="0 0 153 207" fill="none" xmlns="http://www.w3.org/2000/svg" xmlns:xlink="http://www.w3.org/1999/xlink">
	<desc>
			Created with Pixso.
	</desc>
	<defs/>
	<path id="矢量 1" d="M86 166L100.87 166C99.95 156.93 94.07 149.32 86 145.91L86 166ZM66 131.45C50.62 135.81 39.14 149.5 38.08 166L0 166L0 178L39.18 178C43.42 194.65 58.53 207 76.5 207C94.46 207 109.58 194.65 113.81 178L153 178L153 166L114.92 166C113.83 149.14 101.87 135.22 86 131.18L86 0L66 0L66 131.45ZM66 146.36L66 166L52.12 166C53 157.31 58.44 149.95 66 146.36ZM76.5 193C66.34 193 57.62 186.8 53.91 178L99.08 178C95.37 186.8 86.65 193 76.5 193Z" fill="#000000" fill-opacity="1.000000" fill-rule="evenodd"/>
</svg>
