<svg width="239.000000" height="183.000000" viewBox="0 0 239 183" fill="none" xmlns="http://www.w3.org/2000/svg" xmlns:xlink="http://www.w3.org/1999/xlink">
	<desc>
			Created with Pixso.
	</desc>
	<defs/>
	<path id="矢量 1" d="M161.77 82L239 82L211 145.5L180.88 145.5C183.64 146.35 186.43 147.25 189.25 148.21Q208.67 154.8 221.8 161.42L218.19 168.57C209.78 164.32 199.27 160.06 186.68 155.78Q169.29 149.88 153.38 146.71C145.61 168.75 133.32 183 119.5 183C105.59 183 93.23 168.57 85.47 146.31C74.47 148.44 63.01 151.59 51.1 155.77Q32.85 162.17 20.87 168.53L17.12 161.46C25.46 157.03 35.91 152.62 48.45 148.22Q52.56 146.78 56.6 145.5L26 145.5L0 82L77.22 82C79.43 35.96 97.53 0 119.5 0C141.46 0 159.56 35.96 161.77 82ZM97.12 145.5C102.7 161.17 110.66 171 119.5 171C128.33 171 136.3 161.17 141.87 145.5L97.12 145.5ZM89.21 82L149.78 82C147.98 42.6 135.09 12 119.5 12C103.9 12 91.02 42.6 89.21 82Z" fill="#000000" fill-opacity="1.000000" fill-rule="evenodd"/>
</svg>
