<svg width="266.359772" height="308.000000" viewBox="0 0 266.36 308" fill="none" xmlns="http://www.w3.org/2000/svg" xmlns:xlink="http://www.w3.org/1999/xlink">
	<desc>
			Created with Pixso.
	</desc>
	<defs/>
	<path id="矢量 1" d="M23 273L246 273L246 285L23 285L23 273Z" fill="#000000" fill-opacity="1.000000" fill-rule="evenodd"/>
	<path id="矢量 1" d="M226.84 280L262.45 202.5L266.35 194L0.52 194L41.2 280L226.84 280ZM247.64 206L219.15 268L48.79 268L19.47 206L247.64 206Z" fill="#000000" fill-opacity="1.000000" fill-rule="evenodd"/>
	<path id="矢量 1" d="M163 279C163 295 150 308 134 308C117.99 308 105 295 105 279C105 262.99 117.99 250 134 250C150 250 163 262.99 163 279ZM151 279C151 288.38 143.38 296 134 296C124.62 296 117 288.38 117 279C117 269.62 124.62 262 134 262C143.38 262 151 269.62 151 279Z" fill="#000000" fill-opacity="1.000000" fill-rule="evenodd"/>
	<path id="矢量 1" d="M140 194.41L140 43L128 43L128 194.41L140 194.41ZM47.12 219L27 219L27 231L59.12 231L59.12 146.28L47.12 146.28L47.12 219Z" fill="#000000" fill-opacity="1.000000" fill-rule="evenodd"/>
	<path id="矢量 1" d="M220 218.71L240.12 218.71L240.12 230.71L208 230.71L208 146L220 146L220 218.71Z" fill="#000000" fill-opacity="1.000000" fill-rule="evenodd"/>
	<path id="矢量 1" d="M44 89C44 101.13 34.13 111 22 111C9.86 111 0 101.13 0 89C0 76.86 9.86 67 22 67C34.13 67 44 76.86 44 89Z" fill="#FF0000" fill-opacity="1.000000" fill-rule="evenodd"/>
	<path id="矢量 1" d="M53.45 131.37L41.52 92.47L19.37 109.14L53.45 131.37Z" fill="#FF0000" fill-opacity="1.000000" fill-rule="evenodd"/>
	<path id="矢量 1" d="M134 2L106.28 50L161.71 50L134 2Z" fill="#000000" fill-opacity="1.000000" fill-rule="evenodd"/>
	<path id="矢量 1" d="M134 48L106.28 0L161.71 0L134 48Z" fill="#000000" fill-opacity="1.000000" fill-rule="evenodd"/>
</svg>
