<svg width="266.359772" height="219.000000" viewBox="0 0 266.36 219" fill="none" xmlns="http://www.w3.org/2000/svg" xmlns:xlink="http://www.w3.org/1999/xlink">
	<desc>
			Created with Pixso.
	</desc>
	<defs/>
	<path id="矢量 1" d="M23 184L246 184L246 196L23 196L23 184Z" fill="#000000" fill-opacity="1.000000" fill-rule="evenodd"/>
	<path id="矢量 1" d="M226.84 191L262.45 113.5L266.35 105L0.52 105L41.2 191L226.84 191ZM247.64 117L219.15 179L48.79 179L19.47 117L247.64 117Z" fill="#000000" fill-opacity="1.000000" fill-rule="evenodd"/>
	<path id="矢量 1" d="M163 190C163 206 150 219 134 219C117.99 219 105 206 105 190C105 173.99 117.99 161 134 161C150 161 163 173.99 163 190ZM151 190C151 199.38 143.38 207 134 207C124.62 207 117 199.38 117 190C117 180.62 124.62 173 134 173C143.38 173 151 180.62 151 190Z" fill="#000000" fill-opacity="1.000000" fill-rule="evenodd"/>
	<path id="矢量 1" d="M134 207C143.38 207 151 199.38 151 190C151 180.62 143.38 173 134 173C124.62 173 117 180.62 117 190C117 199.38 124.62 207 134 207Z" fill="#000000" fill-opacity="1.000000" fill-rule="evenodd"/>
	<path id="矢量 1" d="M44 22C44 34.13 34.13 44 22 44C9.86 44 0 34.13 0 22C0 9.86 9.86 0 22 0C34.13 0 44 9.86 44 22Z" fill="#FF0000" fill-opacity="1.000000" fill-rule="evenodd"/>
	<path id="矢量 1" d="M53.45 64.37L41.52 25.47L19.37 42.14L53.45 64.37Z" fill="#FF0000" fill-opacity="1.000000" fill-rule="evenodd"/>
	<path id="矢量 1" d="M235.12 115L206.51 48.62L204.94 45L63.05 45L32.88 115L235.12 115ZM197.05 57L216.88 103L51.11 103L70.94 57L197.05 57Z" fill="#000000" fill-opacity="1.000000" fill-rule="evenodd"/>
</svg>
