<svg width="223.000000" height="187.000000" viewBox="0 0 223 187" fill="none" xmlns="http://www.w3.org/2000/svg" xmlns:xlink="http://www.w3.org/1999/xlink">
	<desc>
			Created with Pixso.
	</desc>
	<defs/>
	<path id="矢量 1" d="M117 0L117 12L105 12L105 0L117 0ZM117 36L117 60L105 60L105 36L117 36ZM117 84L117 96L116.25 96L116.25 103L103.75 103L103.75 91L105 91L105 84L117 84ZM57.03 91L49.98 100.23L59.51 107.51L62.96 103L66.25 103L66.25 91L57.03 91ZM91.25 91L78.75 91L78.75 103L91.25 103L91.25 91ZM141.25 91L128.75 91L128.75 103L141.25 103L141.25 91ZM163.05 91L153.75 91L153.75 103L156.94 103L160.14 107.4L169.85 100.34L163.05 91ZM39.48 113.98L28.98 127.73L38.51 135.01L49.01 121.26L39.48 113.98ZM189.85 127.84L179.85 114.09L170.14 121.15L180.14 134.9L189.85 127.84ZM139.37 152L148.81 152L148.81 146L160.18 146L160.18 152L171.56 152L171.56 146L182.93 146L182.93 152L192.58 152L190.14 148.65L199.85 141.59L207.41 152L223 152L223 164L139.37 164C136.6 177.12 124.94 187 111 187C97.05 187 85.39 177.12 82.62 164L0 164L0 152L10.45 152L18.48 141.48L28.01 148.76L25.54 152L35.06 152L35.06 146L46.43 146L46.43 152L57.81 152L57.81 146L69.18 146L69.18 152L80.56 152L80.56 146L84.59 146C89.16 135.97 99.27 129 111 129C122.72 129 132.83 135.97 137.4 146L137.43 146L137.43 146.07C138.28 147.95 138.94 149.93 139.37 152Z" fill="#000000" fill-opacity="1.000000" fill-rule="evenodd"/>
</svg>
