<svg width="223.000000" height="197.000000" viewBox="0 0 223 197" fill="none" xmlns="http://www.w3.org/2000/svg" xmlns:xlink="http://www.w3.org/1999/xlink">
	<desc>
			Created with Pixso.
	</desc>
	<defs/>
	<path id="矢量 1" d="M31.82 162L45.72 119.86L60.11 59.31L69.9 0L162.66 0L151.5 45.22L151.5 77.2L160.55 110.54L175.8 134.37L193.28 154.12L200.25 162L223 162L223 174L139.37 174C136.6 187.12 124.94 197 111 197C97.05 197 85.39 187.12 82.62 174L0 174L0 162L31.82 162ZM44.46 162L82.62 162C85.39 148.87 97.05 139 111 139C124.94 139 136.6 148.87 139.37 162L184.23 162L166.19 141.62L149.45 115.45L139.5 78.79L139.5 43.77L147.34 12L80.09 12L71.88 61.68L57.27 123.13L44.46 162ZM111 151C118.26 151 124.48 155.57 126.9 162L95.09 162C97.51 155.57 103.73 151 111 151ZM111 185C103.73 185 97.51 180.42 95.09 174L126.9 174C124.48 180.42 118.26 185 111 185Z" fill="#000000" fill-opacity="1.000000" fill-rule="evenodd"/>
</svg>
