<svg width="159.000000" height="209.633179" viewBox="0 0 159 209.633" fill="none" xmlns="http://www.w3.org/2000/svg" xmlns:xlink="http://www.w3.org/1999/xlink">
	<desc>
			Created with Pixso.
	</desc>
	<defs/>
	<path id="矢量 1" d="M106.88 162.63L149 162.63L149 177.63L107.14 177.63C104.01 190.26 92.58 199.63 79 199.63C65.41 199.63 53.98 190.26 50.85 177.63L10 177.63L10 162.63L51.12 162.63C54.59 150.51 65.77 141.63 79 141.63C92.22 141.63 103.4 150.51 106.88 162.63ZM63.5 177.63C66.17 183.52 72.11 187.63 79 187.63C85.88 187.63 91.82 183.52 94.49 177.63L63.5 177.63ZM63.99 162.63L94 162.63C91.13 157.28 85.48 153.63 79 153.63C72.51 153.63 66.86 157.28 63.99 162.63Z" fill="#000000" fill-opacity="1.000000" fill-rule="evenodd"/>
	<path id="矢量 1" d="M149 162.63L149 177.63L10 177.63L10 162.63L149 162.63ZM79 199.63C62.99 199.63 50 186.63 50 170.63C50 154.63 62.99 141.63 79 141.63C95 141.63 108 154.63 108 170.63C108 186.63 95 199.63 79 199.63ZM79 187.63C69.61 187.63 62 180.01 62 170.63C62 161.25 69.61 153.63 79 153.63C88.38 153.63 96 161.25 96 170.63C96 180.01 88.38 187.63 79 187.63ZM79 149.63L103.5 1.63" stroke="#000000" stroke-opacity="1.000000" stroke-width="20.000000"/>
</svg>
