<svg width="139.000000" height="175.999985" viewBox="0 0 139 176" fill="none" xmlns="http://www.w3.org/2000/svg" xmlns:xlink="http://www.w3.org/1999/xlink">
	<desc>
			Created with Pixso.
	</desc>
	<defs/>
	<path id="矢量 1" d="M6.2 139Q7.33 116.91 14.66 93.79Q20.71 74.72 30.12 57.47L30.12 57.47L30.12 57.47Q32.96 52.26 36.1 47.22Q49.16 26.28 64.02 13.67Q80.12 -5.73e-6 94 0C97.03 -1.91e-6 99.87 0.49 102.53 1.49Q121.47 8.6 127.73 49.49C130.41 66.97 131.82 96.81 131.98 139L139 139L139 154L97.14 154C94.01 166.62 82.58 176 69 176C55.41 176 43.98 166.62 40.85 154L0 154L0 139L6.2 139ZM18.22 139L41.12 139C44.59 126.88 55.77 118 69 118C82.22 118 93.4 126.88 96.87 139L119.98 139C119.83 97.44 118.46 68.21 115.87 51.31C111.86 25.1 104.57 12 94 12C87.68 12 80.28 15.6 71.79 22.81Q58.36 34.22 46.28 53.58C44.45 56.51 42.7 59.49 41.03 62.52Q31.92 79.07 26.1 97.42Q19.34 118.74 18.22 139ZM69 130C75.48 130 81.13 133.64 84 139L53.99 139C56.86 133.64 62.51 130 69 130ZM69 164C62.11 164 56.17 159.89 53.5 154L84.49 154C81.82 159.89 75.88 164 69 164Z" fill="#000000" fill-opacity="1.000000" fill-rule="evenodd"/>
</svg>
