<svg width="139.000000" height="125.000000" viewBox="0 0 139 125" fill="none" xmlns="http://www.w3.org/2000/svg" xmlns:xlink="http://www.w3.org/1999/xlink">
	<desc>
			Created with Pixso.
	</desc>
	<defs>
		<clipPath id="clip0_3">
			<rect id="svg" width="139.000000" height="125.000000" fill="white" fill-opacity="0"/>
		</clipPath>
	</defs>
	<g clip-path="url(#clip0_3)">
		<path id="矢量 1" d="M6.19 88C7.28 65.38 13.09 45.77 23.62 29.15Q32.19 15.62 43.48 8.08Q52.4 2.12 62.04 0.55C64.33 0.18 66.65 0 69 0C71.34 1.9e-6 73.66 0.18 75.95 0.55Q85.59 2.12 94.51 8.08C102.04 13.1 108.66 20.13 114.37 29.15Q130.16 54.08 131.8 88L139 88L139 103L97.14 103C94.01 115.62 82.58 125 69 125C55.41 125 43.98 115.62 40.85 103L0 103L0 88L6.19 88ZM18.2 88L41.12 88C44.59 75.88 55.77 67 69 67C82.22 67 93.4 75.88 96.87 88L119.79 88C118.72 67.74 113.54 50.26 104.23 35.57Q92.09 16.4 76.4 12.82C73.99 12.27 71.53 12 69 12C66.46 12 64 12.27 61.59 12.82Q45.9 16.4 33.76 35.57Q19.8 57.61 18.2 88ZM69 79C75.48 79 81.13 82.64 84 88L53.99 88C56.86 82.64 62.51 79 69 79ZM69 113C62.11 113 56.17 108.89 53.5 103L84.49 103C81.82 108.89 75.88 113 69 113Z" fill="#000000" fill-opacity="1.000000" fill-rule="evenodd"/>
	</g>
</svg>
