<svg width="139.000000" height="107.749939" viewBox="0 0 139 107.75" fill="none" xmlns="http://www.w3.org/2000/svg" xmlns:xlink="http://www.w3.org/1999/xlink">
	<desc>
			Created with Pixso.
	</desc>
	<defs/>
	<path id="矢量 1" d="M12.38 70.62L39.14 0L135.02 16.45L120.26 70.74L139 70.74L139 85.74L97.14 85.74C94.01 98.37 82.58 107.75 69 107.75C55.41 107.75 43.98 98.37 40.85 85.74L0 85.74L0 70.74L12.72 70.74L12.38 70.62ZM25.17 70.74L41.12 70.74C44.59 58.63 55.77 49.74 69 49.74C82.22 49.74 93.4 58.63 96.87 70.74L107.82 70.74L119.97 26.04L46.85 13.49L25.17 70.74ZM69 61.74C75.48 61.74 81.13 65.39 84 70.74L53.99 70.74C56.86 65.39 62.51 61.74 69 61.74ZM69 95.74C62.11 95.74 56.17 91.64 53.5 85.74L84.49 85.74C81.82 91.64 75.88 95.74 69 95.74Z" fill="#000000" fill-opacity="1.000000" fill-rule="evenodd"/>
</svg>
