<svg width="173.000000" height="102.000000" viewBox="0 0 173 102" fill="none" xmlns="http://www.w3.org/2000/svg" xmlns:xlink="http://www.w3.org/1999/xlink">
	<desc>
			Created with Pixso.
	</desc>
	<defs/>
	<path id="矢量 1" d="M18.12 65Q18.8 53.16 23.08 42.82Q28.17 30.53 38.35 20.35Q48.53 10.17 60.82 5.08Q73.1 3.81e-6 87.5 0C97.09 0 105.98 1.69 114.18 5.08C122.37 8.48 129.85 13.57 136.64 20.35Q146.82 30.53 151.91 42.82Q156.19 53.16 156.87 65L173 65L173 80L115.14 80C112.01 92.62 100.58 102 87 102C73.41 102 61.98 92.62 58.85 80L0 80L0 65L18.12 65ZM30.15 65L59.12 65C62.59 52.88 73.77 44 87 44C100.22 44 111.4 52.88 114.88 65L144.84 65Q144.19 55.64 140.78 47.42C137.98 40.65 133.77 34.45 128.15 28.84Q119.73 20.42 109.57 16.21Q99.4 12 87.5 12Q75.59 12 65.42 16.21Q55.26 20.42 46.84 28.84Q38.42 37.26 34.21 47.42Q30.8 55.64 30.15 65ZM87 56C93.48 56 99.13 59.64 102 65L71.99 65C74.86 59.64 80.51 56 87 56ZM87 90C80.11 90 74.17 85.89 71.5 80L102.49 80C99.82 85.89 93.88 90 87 90Z" fill="#000000" fill-opacity="1.000000" fill-rule="evenodd"/>
</svg>
