<svg width="116.000000" height="173.000000" viewBox="0 0 116 173" fill="none" xmlns="http://www.w3.org/2000/svg" xmlns:xlink="http://www.w3.org/1999/xlink">
	<desc>
			Created with Pixso.
	</desc>
	<defs/>
	<path id="矢量 1" d="M64 56.32L64 0L52 0L52 56.32L5.24 137L0 137L0 150L28.62 150C31.39 163.12 43.05 173 57 173C70.94 173 82.6 163.12 85.37 150L116 150L116 137L110.75 137L64 56.32ZM18.6 137L28.85 137C31.98 124.37 43.41 115 57 115C70.58 115 82.01 124.37 85.14 137L97.39 137L58 69.03L18.6 137ZM57 127C63.88 127 69.82 131.1 72.49 137L41.5 137C44.17 131.1 50.11 127 57 127ZM57 161C49.73 161 43.51 156.42 41.09 150L72.9 150C70.48 156.42 64.26 161 57 161Z" fill="#000000" fill-opacity="1.000000" fill-rule="evenodd"/>
</svg>
