<svg width="129.000000" height="129.000000" viewBox="0 0 129 129" fill="none" xmlns="http://www.w3.org/2000/svg" xmlns:xlink="http://www.w3.org/1999/xlink">
	<desc>
			Created with Pixso.
	</desc>
	<defs/>
	<path id="矢量 1" d="M129 64.5C129 100.09 100.09 129 64.5 129C28.9 129 0 100.09 0 64.5C0 28.9 28.9 0 64.5 0C100.09 0 129 28.9 129 64.5ZM117 64.5C117 93.46 93.46 117 64.5 117C35.53 117 12 93.46 12 64.5C12 35.53 35.53 12 64.5 12C93.46 12 117 35.53 117 64.5Z" fill="#FE0707" fill-opacity="1.000000" fill-rule="evenodd"/>
	<path id="矢量 1" d="M87 64.5C87 76.91 76.91 87 64.5 87C52.08 87 42 76.91 42 64.5C42 52.08 52.08 42 64.5 42C76.91 42 87 52.08 87 64.5ZM79 64.5C79 72.5 72.5 79 64.5 79C56.49 79 50 72.5 50 64.5C50 56.49 56.49 50 64.5 50C72.5 50 79 56.49 79 64.5Z" fill="#000000" fill-opacity="1.000000" fill-rule="evenodd"/>
	<path id="矢量 1" d="M73 64.5C73 69.19 69.19 73 64.5 73C59.8 73 56 69.19 56 64.5C56 59.8 59.8 56 64.5 56C69.19 56 73 59.8 73 64.5Z" fill="#000000" fill-opacity="1.000000" fill-rule="evenodd"/>
</svg>
