<svg width="129.000000" height="129.000000" viewBox="0 0 129 129" fill="none" xmlns="http://www.w3.org/2000/svg" xmlns:xlink="http://www.w3.org/1999/xlink">
	<desc>
			Created with Pixso.
	</desc>
	<defs/>
	<path id="矢量 1" d="M129 64.5C129 100.09 100.09 129 64.5 129C28.9 129 0 100.09 0 64.5C0 28.9 28.9 0 64.5 0C100.09 0 129 28.9 129 64.5ZM117 64.5C117 93.46 93.46 117 64.5 117C35.53 117 12 93.46 12 64.5C12 35.53 35.53 12 64.5 12C93.46 12 117 35.53 117 64.5Z" fill="#FE0707" fill-opacity="1.000000" fill-rule="evenodd"/>
	<path id="矢量 1" d="M31.5 101L97.5 101L97.5 109L31.5 109L31.5 101Z" fill="#000000" fill-opacity="1.000000" fill-rule="evenodd"/>
	<path id="矢量 1" d="M69 79L69 101.5L61 101.5L61 79L69 79Z" fill="#000000" fill-opacity="1.000000" fill-rule="evenodd"/>
	<path id="矢量 1" d="M33 83L97 83L97 16.69L90.84 20.63C88.95 21.83 86.5 23.06 83.47 24.3C77.46 26.76 71.8 28 66.5 28C61.12 28 54.9 26.74 47.84 24.23C44.25 22.95 41.25 21.69 38.83 20.44L33 17.43L33 83ZM89 75L41 75L41 30.19C42.3 30.72 43.69 31.24 45.16 31.76C53.09 34.58 60.2 36 66.5 36C72.85 36 79.52 34.56 86.51 31.7C87.37 31.34 88.2 30.99 89 30.63L89 75Z" fill="#000000" fill-opacity="1.000000" fill-rule="evenodd"/>
</svg>
