<svg width="135.288391" height="98.054588" viewBox="0 0 135.288 98.0546" fill="none" xmlns="http://www.w3.org/2000/svg" xmlns:xlink="http://www.w3.org/1999/xlink">
	<desc>
			Created with Pixso.
	</desc>
	<defs/>
	<path id="矢量 1" d="M73.45 0L73.69 26.33C76.42 26.57 79.11 26.98 81.76 27.55C82.81 27.77 83.85 28.02 84.88 28.29L93.77 3.06L105.09 7.04L96.17 32.37Q100.36 34.3 104.24 36.75L104.24 36.75L104.24 36.75Q106.58 38.23 108.81 39.9L126.52 20.95L135.28 29.15L117.77 47.89Q117.78 47.9 117.8 47.91L117.35 48.33L116.84 48.89L116.8 48.86L109.11 56.19Q103.73 50.55 97.32 46.58L97.32 46.58C95.09 45.2 92.76 43.97 90.34 42.9Q84.93 40.5 79.28 39.29L79.28 39.29C75.42 38.46 71.48 38.05 67.45 38.05C63.42 38.05 59.48 38.46 55.63 39.29C51.86 40.1 48.17 41.3 44.56 42.9C42.14 43.97 39.82 45.2 37.59 46.58Q31.17 50.55 25.8 56.19L17.22 48.02L17.14 48.09L0 29.07L8.91 21.03L25.99 39.98Q28.27 38.27 30.67 36.75L30.67 36.75Q34.47 34.35 38.59 32.43L29.81 8.09L41.1 4.01L49.87 28.33Q51.49 27.9 53.14 27.55L53.14 27.55L53.14 27.55C55.95 26.94 58.8 26.52 61.69 26.29L61.45 0.1L73.45 0ZM90.45 75.55C90.45 87.96 80.37 98.05 67.95 98.05C55.54 98.05 45.45 87.96 45.45 75.55C45.45 63.13 55.54 53.05 67.95 53.05C80.37 53.05 90.45 63.13 90.45 75.55ZM67.95 90.05C75.95 90.05 82.45 83.55 82.45 75.55C82.45 67.55 75.95 61.05 67.95 61.05C59.95 61.05 53.45 67.55 53.45 75.55C53.45 83.55 59.95 90.05 67.95 90.05ZM76.45 75.55C76.45 80.24 72.64 84.05 67.95 84.05C63.26 84.05 59.45 80.24 59.45 75.55C59.45 70.86 63.26 67.05 67.95 67.05C72.64 67.05 76.45 70.86 76.45 75.55Z" fill="#000000" fill-opacity="1.000000" fill-rule="evenodd"/>
</svg>
