<svg width="136.000000" height="128.000000" viewBox="0 0 136 128" fill="none" xmlns="http://www.w3.org/2000/svg" xmlns:xlink="http://www.w3.org/1999/xlink">
	<desc>
			Created with Pixso.
	</desc>
	<defs/>
	<path id="矢量 1" d="M136 22.5C136 34.91 125.91 45 113.5 45C101.08 45 91 34.91 91 22.5C91 10.08 101.08 0 113.5 0C125.91 0 136 10.08 136 22.5ZM128 22.5C128 30.5 121.5 37 113.5 37C105.49 37 99 30.5 99 22.5C99 14.49 105.49 8 113.5 8C121.5 8 128 14.49 128 22.5Z" fill="#000000" fill-opacity="1.000000" fill-rule="evenodd"/>
	<path id="矢量 1" d="M93.64 67.09C99.12 69.36 105.08 70.5 111.5 70.5L111.5 58.5C106.73 58.5 102.32 57.65 98.25 55.97C94.19 54.28 90.47 51.76 87.1 48.39C83.73 45.02 81.21 41.3 79.52 37.24C77.84 33.17 77 28.76 77 24L65 24C65 30.42 66.13 36.37 68.4 41.85C70.67 47.33 74.07 52.34 78.61 56.88C83.15 61.42 88.16 64.82 93.64 67.09Z" fill="#FF0000" fill-opacity="1.000000" fill-rule="evenodd"/>
	<path id="矢量 1" d="M76.59 91.58C85.31 95.19 94.78 97 105 97L105 85C96.43 85 88.5 83.48 81.19 80.46C73.89 77.43 67.21 72.89 61.15 66.84C55.1 60.78 50.56 54.1 47.53 46.8C44.51 39.49 43 31.56 43 23L31 23C31 33.21 32.8 42.68 36.41 51.4C40.03 60.12 45.44 68.1 52.67 75.32C59.89 82.55 67.87 87.96 76.59 91.58Z" fill="#FF0000" fill-opacity="1.000000" fill-rule="evenodd"/>
	<path id="矢量 1" d="M82.04 125.49C89.5 127.16 97.16 128 105 128L105 116C97.97 116 91.11 115.24 84.42 113.73C79.11 112.53 73.9 110.85 68.8 108.69C63.6 106.49 58.68 103.87 54.04 100.83C48.74 97.35 43.81 93.33 39.23 88.76C34.66 84.18 30.64 79.25 27.17 73.95C24.12 69.31 21.5 64.39 19.3 59.19C17.14 54.09 15.46 48.88 14.26 43.57C12.75 36.88 12 30.02 12 23L0 23C0 30.83 0.83 38.49 2.5 45.96C3.86 52.05 5.78 58.02 8.25 63.87C10.75 69.78 13.74 75.38 17.21 80.66C21.11 86.59 25.62 92.12 30.75 97.24C35.87 102.37 41.4 106.88 47.33 110.78C52.61 114.25 58.21 117.24 64.12 119.74C69.97 122.21 75.94 124.13 82.04 125.49Z" fill="#FF0000" fill-opacity="1.000000" fill-rule="evenodd"/>
</svg>
