<svg width="163.000000" height="200.000000" viewBox="0 0 163 200" fill="none" xmlns="http://www.w3.org/2000/svg" xmlns:xlink="http://www.w3.org/1999/xlink">
	<desc>
			Created with Pixso.
	</desc>
	<defs>
		<clipPath id="clip0_3">
			<rect id="svg" width="163.000000" height="200.000000" fill="white" fill-opacity="0"/>
		</clipPath>
	</defs>
	<g clip-path="url(#clip0_3)">
		<path id="path" d="M156.78 113.97C153.32 113.97 150.17 117.19 150.17 121.14C150.17 154.16 112.15 181.36 87.08 185.17L87.08 114.69L118.12 114.69C121.68 114.69 124.56 111.57 124.56 107.48C124.56 103.42 121.69 100.7 118.12 100.35L87.07 100.35L87.07 70.96C99.6 67.68 112.56 53.21 112.56 35.84C112.56 16.04 98.71 0 81.41 0C64.1 0 49.74 16.04 49.74 35.84C49.74 53.21 62.01 67.68 74.54 70.96L74.54 100.35L45.05 100.35C41.5 100.7 38.62 103.42 38.62 107.48C38.62 111.57 41.5 114.69 45.05 114.69L74.54 114.69L74.54 185.17C49.47 181.36 12.21 154.16 12.21 121.14C12.21 117.19 9.62 113.97 6.16 113.97C2.7 113.97 0 117.19 0 121.14C0 166.88 48.71 200 81.51 200C114.32 200 163 166.88 163 121.14C163.02 117.19 160.24 113.97 156.78 113.97ZM62.78 35.84C62.78 23.98 71.22 14.33 81.58 14.33C91.95 14.33 100.38 23.98 100.38 35.84C100.38 47.69 91.95 57.34 81.58 57.34C71.22 57.34 62.78 47.69 62.78 35.84Z" fill="#2C2C2C" fill-opacity="1.000000" fill-rule="nonzero"/>
	</g>
</svg>
