<svg width="120.000000" height="120.000000" viewBox="0 0 120 120" fill="none" xmlns="http://www.w3.org/2000/svg" xmlns:xlink="http://www.w3.org/1999/xlink">
	<desc>
			Created with Pixso.
	</desc>
	<defs/>
	<path id="矢量 1" d="M120 60C120 93.1 93.1 120 60 120C26.89 120 0 93.1 0 60C0 26.89 26.89 0 60 0C93.1 0 120 26.89 120 60Z" fill="#B80000" fill-opacity="1.000000" fill-rule="evenodd"/>
	<path id="矢量 1" d="M114 60C114 89.79 89.79 114 60 114C30.2 114 6 89.79 6 60C6 30.2 30.2 6 60 6C89.79 6 114 30.2 114 60Z" fill="#FEFEFE" fill-opacity="1.000000" fill-rule="evenodd"/>
	<path id="矢量 1" d="M37.8 10.8L37.8 109.2L31.8 109.2L31.8 10.8L37.8 10.8Z" fill="#B80000" fill-opacity="1.000000" fill-rule="evenodd"/>
	<path id="矢量 1" d="M84.6 63L36 63L36 57L84.6 57L84.6 63Z" fill="#B80000" fill-opacity="1.000000" fill-rule="evenodd"/>
	<path id="矢量 1" d="M87.6 9L87.6 111L81.6 111L81.6 9L87.6 9Z" fill="#B80000" fill-opacity="1.000000" fill-rule="evenodd"/>
</svg>
