<svg width="200.000000" height="200.000000" viewBox="0 0 200 200" fill="none" xmlns="http://www.w3.org/2000/svg" xmlns:xlink="http://www.w3.org/1999/xlink">
	<desc>
			Created with Pixso.
	</desc>
	<defs/>
	<path id="矢量 1" d="M200 100C200 155.17 155.17 200 100 200C44.82 200 0 155.17 0 100C0 44.82 44.82 0 100 0C155.17 0 200 44.82 200 100Z" fill="#B80000" fill-opacity="1.000000" fill-rule="evenodd"/>
	<path id="矢量 1" d="M109.5 6L109.5 194L90.5 194L90.5 6L109.5 6Z" fill="#FEFEFE" fill-opacity="1.000000" fill-rule="evenodd"/>
	<path id="矢量 1" d="M84.95 9L84.95 99.5L7.45 99.5C5.95 91 8.42 82.35 11.45 73.5C14.34 65.03 17.81 56.66 21.95 49.5C33.34 29.73 54.54 18.41 59.95 15.5C66.45 12 75.87 9 84.95 9Z" fill="#FFFFFF" fill-opacity="1.000000" fill-rule="evenodd"/>
	<path id="矢量 1" d="M116 9L116 99.5L193.5 99.5C195 91 192.52 82.35 189.5 73.5C186.6 65.03 183.13 56.66 179 49.5C167.6 29.73 146.41 18.41 141 15.5C134.5 12 125.07 9 116 9Z" fill="#FFFFFF" fill-opacity="1.000000" fill-rule="evenodd"/>
	<path id="矢量 1" d="M84.95 188.5L84.95 98L7.45 98C5.95 106.5 8.42 115.14 11.45 124C14.34 132.46 17.81 140.83 21.95 148C33.34 167.76 54.54 179.08 59.95 182C66.45 185.5 75.87 188.5 84.95 188.5Z" fill="#FFFFFF" fill-opacity="1.000000" fill-rule="evenodd"/>
</svg>
