<svg width="77.000000" height="77.000000" viewBox="0 0 77 77" fill="none" xmlns="http://www.w3.org/2000/svg" xmlns:xlink="http://www.w3.org/1999/xlink">
	<desc>
			Created with Pixso.
	</desc>
	<defs/>
	<path id="矢量 1" d="M77 38.5C77 59.74 59.74 77 38.5 77C17.25 77 0 59.74 0 38.5C0 17.25 17.25 0 38.5 0C59.74 0 77 17.25 77 38.5Z" fill="#8C002B" fill-opacity="1.000000" fill-rule="evenodd"/>
	<path id="矢量 1" d="M73.15 38.5C73.15 57.61 57.61 73.15 38.5 73.15C19.38 73.15 3.85 57.61 3.85 38.5C3.85 19.38 19.38 3.85 38.5 3.85C57.61 3.85 73.15 19.38 73.15 38.5Z" fill="#FEFEFE" fill-opacity="1.000000" fill-rule="evenodd"/>
	<path id="矢量 1" d="M24.25 6.92L24.25 70.07L20.4 70.07L20.4 6.92L24.25 6.92Z" fill="#8C002B" fill-opacity="1.000000" fill-rule="evenodd"/>
	<path id="矢量 1" d="M56.21 5.77L56.21 71.22L52.36 71.22L52.36 5.77L56.21 5.77Z" fill="#8C002B" fill-opacity="1.000000" fill-rule="evenodd"/>
</svg>
