<svg width="97.000000" height="97.000000" viewBox="0 0 97 97" fill="none" xmlns="http://www.w3.org/2000/svg" xmlns:xlink="http://www.w3.org/1999/xlink">
	<desc>
			Created with Pixso.
	</desc>
	<defs/>
	<path id="矢量 1" d="M97 48.5C97 75.26 75.26 97 48.5 97C21.73 97 0 75.26 0 48.5C0 21.73 21.73 0 48.5 0C75.26 0 97 21.73 97 48.5Z" fill="#8C002B" fill-opacity="1.000000" fill-rule="evenodd"/>
	<path id="矢量 1" d="M92.15 48.5C92.15 72.58 72.58 92.15 48.5 92.15C24.41 92.15 4.85 72.58 4.85 48.5C4.85 24.41 24.41 4.85 48.5 4.85C72.58 4.85 92.15 24.41 92.15 48.5Z" fill="#FEFEFE" fill-opacity="1.000000" fill-rule="evenodd"/>
	<path id="矢量 1" d="M30.55 8.72L30.55 88.27L25.7 88.27L25.7 8.72L30.55 8.72Z" fill="#8C002B" fill-opacity="1.000000" fill-rule="evenodd"/>
	<path id="矢量 1" d="M68.38 50.92L29.1 50.92L29.1 46.07L68.38 46.07L68.38 50.92Z" fill="#8C002B" fill-opacity="1.000000" fill-rule="evenodd"/>
	<path id="矢量 1" d="M70.81 7.27L70.81 89.72L65.96 89.72L65.96 7.27L70.81 7.27Z" fill="#8C002B" fill-opacity="1.000000" fill-rule="evenodd"/>
</svg>
