<svg width="200.000000" height="200.000015" viewBox="0 0 200 200" fill="none" xmlns="http://www.w3.org/2000/svg" xmlns:xlink="http://www.w3.org/1999/xlink">
	<desc>
			Created with Pixso.
	</desc>
	<defs/>
	<rect id="组件 1" width="200.000000" height="200.000000" transform="translate(0.000008 0.000015)" fill="#FFFFFF" fill-opacity="0"/>
	<path id="矢量 1" d="M200 100C200 155.17 155.17 200 100 200C44.82 200 0 155.17 0 100C0 44.82 44.82 7.62e-6 100 7.62e-6C155.17 7.62e-6 200 44.82 200 100Z" fill="#8C002B" fill-opacity="1.000000" fill-rule="evenodd"/>
	<circle id="椭圆 1" cx="100.000008" cy="100.519455" r="87.012978" fill="#FFFFFF" fill-opacity="1.000000"/>
	<path id="path" d="M83.36 68.1L83.42 27C83.41 18.9 90.62 10.89 100.11 10.9C109.59 10.91 116.58 18.9 116.58 27L116.66 68.05L178.38 92.14C183.81 94.85 189.59 97.32 189.61 106.4C189.62 111.02 189.62 120.66 172.81 120.65L116.77 115.86L116.84 149.74L139.66 161.93C143.38 164.01 144.95 164.54 144.95 168.14C144.78 173.68 143.97 177.14 138.71 177.14L100.01 173.04L61.29 177.14C54.02 177.14 55.37 169.43 55.19 168.06C55.04 165.51 56.35 163.45 59.85 161.7L83.25 149.78L83.29 115.78L27.21 120.52C10.41 120.5 10.38 110.87 10.38 106.25C10.38 97.17 16.15 94.7 21.56 92L83.36 68.1Z" fill="#8C002B" fill-opacity="1.000000" fill-rule="evenodd"/>
	<path id="path" d="M83.36 68.1L21.56 92C16.15 94.7 10.38 97.17 10.38 106.25C10.38 110.87 10.41 120.5 27.21 120.52L79.29 116.12L83.29 115.78L83.29 119.79L83.25 149.78L59.85 161.7C56.35 163.45 55.04 165.51 55.19 168.06C55.22 168.26 55.21 168.58 55.2 168.99C55.16 171.47 55.06 177.14 61.29 177.14L100.01 173.04L138.71 177.14C143.97 177.14 144.78 173.68 144.95 168.14C144.95 164.54 143.38 164.01 139.66 161.93L116.84 149.74L116.78 119.88L116.77 115.86L120.78 116.2L172.81 120.65C189.62 120.66 189.62 111.02 189.61 106.4C189.59 97.32 183.81 94.85 178.38 92.14L116.66 68.05L116.58 27C116.58 18.9 109.59 10.91 100.11 10.9C90.62 10.89 83.41 18.9 83.42 27L83.36 68.1ZM176.76 95.8L112.67 70.79L112.58 27.01Q112.58 25.38 112.15 23.88Q111.35 21.08 109.04 18.71Q107.1 16.72 104.74 15.77Q102.6 14.91 100.1 14.9Q97.68 14.9 95.57 15.71Q93.09 16.66 91.04 18.73Q88.54 21.25 87.76 24.22Q87.41 25.56 87.42 27L87.36 70.84L84.8 71.83L23.18 95.66Q22.97 95.77 22.66 95.92Q18.06 98.21 16.57 99.76Q16.46 99.89 16.35 100.01Q14.38 102.28 14.38 106.25Q14.38 110.84 15.77 112.8Q18.35 116.47 27.05 116.52L87.3 111.43L87.25 152.24L61.66 165.26Q59.18 166.51 59.18 167.76Q59.18 167.78 59.18 167.81Q59.22 168.28 59.2 169.06Q59.16 171.47 59.57 172.4Q59.6 172.49 59.65 172.56Q60.01 173.1 61.11 173.14L100.01 169.02L138.9 173.14Q140.05 173.11 140.25 172.75Q140.83 171.73 140.95 168.09Q140.94 167.55 140.88 167.3Q140.55 166.99 138.62 165.92Q138.03 165.6 137.71 165.42L112.85 152.14L112.77 111.51L172.98 116.65Q181.67 116.62 184.24 112.96Q185.62 111.01 185.61 106.41Q185.6 102.44 183.64 100.17Q183.52 100.04 183.4 99.92Q181.91 98.36 177.3 96.07Q176.97 95.9 176.76 95.8Z" fill="#8C002B" fill-opacity="1.000000" fill-rule="evenodd"/>
</svg>
