<svg width="77.000000" height="77.000000" viewBox="0 0 77 77" fill="none" xmlns="http://www.w3.org/2000/svg" xmlns:xlink="http://www.w3.org/1999/xlink">
	<desc>
			Created with Pixso.
	</desc>
	<defs/>
	<path id="矢量 1" d="M77 38.5C77 59.74 59.74 77 38.5 77C17.25 77 0 59.74 0 38.5C0 17.25 17.25 0 38.5 0C59.74 0 77 17.25 77 38.5Z" fill="#8C002B" fill-opacity="1.000000" fill-rule="evenodd"/>
	<path id="矢量 1" d="M73.15 38.5C73.15 57.61 57.61 73.15 38.5 73.15C19.38 73.15 3.85 57.61 3.85 38.5C3.85 19.38 19.38 3.85 38.5 3.85C57.61 3.85 73.15 19.38 73.15 38.5Z" fill="#FEFEFE" fill-opacity="1.000000" fill-rule="evenodd"/>
	<path id="path" d="M32.11 10.19L32.09 26.01L8.3 35.22C6.22 36.26 4 37.21 4 40.7C4 42.48 4 46.19 10.47 46.2L32.07 44.37L32.05 57.46L23.04 62.05C21.69 62.73 21.19 63.52 21.24 64.5C21.31 65.03 20.8 68 23.6 68L38.5 66.42L53.4 68C55.43 68 55.74 66.66 55.8 64.53C55.8 63.15 55.2 62.94 53.77 62.14L44.98 57.45L44.96 44.4L66.53 46.25C73 46.25 73 42.54 72.99 40.76C72.99 37.26 70.77 36.32 68.67 35.27L44.91 26L44.88 10.19C44.88 7.07 42.19 4 38.54 4C34.89 3.99 32.11 7.07 32.11 10.19Z" fill="#8C002B" fill-opacity="0" fill-rule="nonzero"/>
	<path id="path" d="M32.09 26.01L8.3 35.22C6.22 36.26 4 37.21 4 40.7C4 42.48 4 46.19 10.47 46.2L28.06 44.71L32.07 44.37L32.06 48.39L32.05 57.46L23.04 62.05C21.69 62.73 21.19 63.52 21.24 64.5C21.25 64.58 21.25 64.7 21.25 64.86L21.25 64.86C21.23 65.81 21.2 68 23.6 68L38.5 66.42L53.4 68C55.43 68 55.74 66.66 55.8 64.53C55.8 63.15 55.2 62.94 53.77 62.14L44.98 57.45L44.96 48.42L44.96 44.4L48.96 44.75L66.53 46.25C73 46.25 73 42.54 72.99 40.76C72.99 37.26 70.77 36.32 68.67 35.27L44.91 26L44.88 10.19C44.88 7.07 42.19 4 38.54 4C34.89 3.99 32.11 7.07 32.11 10.19L32.09 26.01ZM67.05 38.93L40.92 28.73L40.88 10.2C40.88 9.51 40.71 8.99 40.37 8.62C39.98 8.2 39.37 8 38.53 8C38.25 7.99 37.99 8.04 37.74 8.13C37.4 8.25 37.08 8.45 36.79 8.74C36.39 9.15 36.17 9.57 36.12 10.01C36.12 10.07 36.11 10.13 36.11 10.19L36.09 28.76L33.53 29.75L9.92 38.88C9.89 38.89 9.85 38.91 9.81 38.93C8.6 39.53 8 40.12 8 40.7C8 41.36 8.02 41.73 8.08 41.81C8.25 42.06 9 42.18 10.31 42.2L36.07 40.02L36.04 59.92L29.26 63.37L38.5 62.39L47.55 63.35L40.99 59.85L40.95 40.05L66.7 42.25C68.01 42.24 68.75 42.11 68.92 41.87C68.97 41.8 69 41.43 68.99 40.77C68.99 40.19 68.38 39.59 67.16 38.99C67.12 38.96 67.08 38.95 67.05 38.93Z" fill="#8C002B" fill-opacity="1.000000" fill-rule="evenodd"/>
</svg>
