<svg width="200.000000" height="200.000015" viewBox="0 0 200 200" fill="none" xmlns="http://www.w3.org/2000/svg" xmlns:xlink="http://www.w3.org/1999/xlink">
	<desc>
			Created with Pixso.
	</desc>
	<defs/>
	<rect id="组件 1" width="200.000000" height="200.000000" transform="translate(0.000008 0.000015)" fill="#FFFFFF" fill-opacity="0"/>
	<path id="矢量 1" d="M200 100C200 155.17 155.17 200 100 200C44.82 200 0 155.17 0 100C0 44.82 44.82 7.62e-6 100 7.62e-6C155.17 7.62e-6 200 44.82 200 100Z" fill="#B80000" fill-opacity="1.000000" fill-rule="evenodd"/>
	<circle id="椭圆 1" cx="100.000008" cy="100.519455" r="87.012978" fill="#FFFFFF" fill-opacity="1.000000"/>
	<path id="path" d="M83.85 54.35L83.9 23.2C83.89 17.06 90.89 10.99 100.1 11C109.32 11 116.1 17.06 116.1 23.2L116.18 54.31L176.1 72.57C181.37 74.62 186.98 76.49 186.99 83.38C187.01 86.88 187.01 94.18 170.69 94.18L116.29 90.55L116.35 116.23L138.5 125.47C142.11 127.04 143.64 127.45 143.64 130.18C143.47 134.37 142.69 137 137.58 137L100.01 133.89L62.42 137C55.36 137 56.67 131.15 56.49 130.11C56.35 128.18 57.63 126.62 61.02 125.29L83.74 116.26L83.78 90.49L29.33 94.08C13.02 94.06 13 86.76 13 83.26C13 76.38 18.6 74.51 23.85 72.46L83.85 54.35Z" fill="#B80000" fill-opacity="1.000000" fill-rule="evenodd"/>
	<path id="path" d="M83.85 54.35L23.85 72.46C18.6 74.51 13 76.38 13 83.26C13 86.76 13.02 94.06 29.33 94.08L79.78 90.75L83.78 90.49L83.77 94.5L83.74 116.26L61.02 125.29C57.63 126.62 56.35 128.18 56.49 130.11C56.52 130.26 56.51 130.51 56.51 130.82C56.47 132.7 56.37 137 62.42 137L100.01 133.89L137.58 137C142.69 137 143.47 134.37 143.64 130.18C143.64 127.45 142.11 127.04 138.5 125.47L116.35 116.23L116.3 94.56L116.29 90.55L120.29 90.82L170.69 94.18C187.01 94.18 187.01 86.88 186.99 83.38C186.98 76.49 181.37 74.62 176.1 72.57L116.18 54.31L116.1 23.2C116.1 17.06 109.32 11 100.1 11C90.89 10.99 83.89 17.06 83.9 23.2L83.85 54.35ZM174.79 76.35L112.18 57.28L112.1 23.21Q112.1 22.86 112.06 22.51Q111.73 20.06 109.06 17.92Q108.27 17.29 107.41 16.8Q104.27 15 100.1 15Q96.02 14.99 92.88 16.71Q91.9 17.24 91.02 17.93Q88.2 20.15 87.93 22.65Q87.9 22.92 87.9 23.19L87.84 57.32L85 58.18L25.15 76.25Q24.95 76.33 24.63 76.45Q20.15 78.19 18.73 79.35Q18.11 79.85 17.72 80.49Q17 81.65 17 83.26Q17 86.17 18.01 87.3Q20.5 90.05 29.2 90.08L87.79 86.21L87.73 118.98L62.5 129.01Q61.03 129.58 60.5 130.06Q60.52 130.43 60.51 130.91Q60.48 132.31 60.68 132.67Q60.85 132.98 62.27 132.99L100.01 129.87L137.73 132.99Q138.73 132.98 139.2 132.8L139.22 132.81Q139.53 132.4 139.63 130.35Q139.09 130.07 137.78 129.51Q137.21 129.27 136.9 129.13L112.36 118.89L112.28 86.27L170.83 90.18Q179.52 90.16 181.99 87.42Q183 86.29 183 83.39Q182.99 81.78 182.27 80.61Q181.87 79.97 181.25 79.47Q179.82 78.3 175.33 76.56Q175 76.43 174.79 76.35Z" fill="#B80000" fill-opacity="1.000000" fill-rule="evenodd"/>
	<path id="矢量 2" d="M50 172C50 172 57.65 159.5 72 159.5C86.34 159.5 91.31 172 100 172C108.68 172 113.65 159 128 159C142.34 159 150 172 150 172" stroke="#B80000" stroke-opacity="1.000000" stroke-width="5.000000"/>
	<path id="矢量 2" d="M31 154C31 154 41.55 141.5 61.36 141.5C81.16 141.5 88.01 154 100 154C111.98 154 118.83 141 138.64 141C158.44 141 169 154 169 154" stroke="#B80000" stroke-opacity="1.000000" stroke-width="5.000000"/>
</svg>
