<svg width="77.000015" height="77.000000" viewBox="0 0 77 77" fill="none" xmlns="http://www.w3.org/2000/svg" xmlns:xlink="http://www.w3.org/1999/xlink">
	<desc>
			Created with Pixso.
	</desc>
	<defs/>
	<rect id="组件 1" width="77.000008" height="77.000000" transform="translate(0.000004 0.000000)" fill="#FFFFFF" fill-opacity="0"/>
	<path id="矢量 1" d="M77 38.5C77 59.74 59.74 77 38.5 77C17.25 77 0 59.74 0 38.5C0 17.25 17.25 0 38.5 0C59.74 0 77 17.25 77 38.5Z" fill="#B80000" fill-opacity="1.000000" fill-rule="evenodd"/>
	<circle id="椭圆 1" cx="38.500004" cy="38.699982" r="33.500000" fill="#FFFFFF" fill-opacity="1.000000"/>
	<path id="path" d="M32.11 10.39L32.09 26.21L8.3 35.42C6.22 36.46 4 37.41 4 40.9C4 42.68 4 46.39 10.47 46.4L32.07 44.57L32.05 57.66L23.04 62.25C21.69 62.93 21.19 63.72 21.25 64.7C21.31 65.23 20.8 68.19 23.6 68.19L38.5 66.62L53.4 68.19C55.43 68.19 55.74 66.86 55.8 64.73C55.8 63.35 55.2 63.14 53.77 62.34L44.98 57.65L44.96 44.6L66.53 46.45C73 46.45 73 42.74 72.99 40.96C72.99 37.46 70.77 36.52 68.67 35.47L44.91 26.2L44.88 10.39C44.88 7.27 42.19 4.2 38.54 4.19C34.89 4.19 32.11 7.27 32.11 10.39Z" fill="#8C002B" fill-opacity="0" fill-rule="nonzero"/>
	<path id="path" d="M32.09 26.21L8.3 35.42C6.22 36.46 4 37.41 4 40.9C4 42.68 4 46.39 10.47 46.4L28.06 44.91L32.07 44.57L32.06 48.59L32.05 57.66L23.04 62.25C21.69 62.93 21.19 63.72 21.25 64.7C21.25 64.78 21.25 64.9 21.25 65.06L21.25 65.06C21.23 66.01 21.2 68.19 23.6 68.19L38.5 66.62L53.4 68.19C55.43 68.19 55.74 66.86 55.8 64.73C55.8 63.35 55.2 63.14 53.77 62.34L44.98 57.65L44.96 48.62L44.96 44.6L48.96 44.95L66.53 46.45C73 46.45 73 42.74 72.99 40.96C72.99 37.46 70.77 36.52 68.67 35.47L44.91 26.2L44.88 10.39C44.88 7.27 42.19 4.2 38.54 4.19C34.89 4.19 32.11 7.27 32.11 10.39L32.09 26.21ZM67.05 39.13L40.92 28.93L40.88 10.4C40.88 9.71 40.71 9.19 40.37 8.82C39.98 8.4 39.37 8.2 38.53 8.19C38.25 8.19 37.99 8.24 37.74 8.33C37.4 8.45 37.08 8.65 36.79 8.94C36.39 9.35 36.17 9.77 36.12 10.21C36.12 10.27 36.11 10.33 36.11 10.39L36.09 28.96L33.53 29.95L9.92 39.08C9.89 39.09 9.85 39.11 9.81 39.13C8.6 39.73 8 40.32 8 40.9C8 41.56 8.02 41.93 8.08 42.01C8.25 42.26 9 42.38 10.31 42.4L36.07 40.22L36.04 60.12L29.26 63.57L38.5 62.59L47.55 63.55L40.99 60.05L40.95 40.25L66.7 42.45C68.01 42.44 68.75 42.31 68.92 42.07C68.97 42 69 41.63 68.99 40.97C68.99 40.39 68.38 39.79 67.16 39.19C67.12 39.16 67.08 39.15 67.05 39.13Z" fill="#B80000" fill-opacity="1.000000" fill-rule="evenodd"/>
</svg>
