<svg width="103.012337" height="191.588379" viewBox="0 0 103.012 191.588" fill="none" xmlns="http://www.w3.org/2000/svg" xmlns:xlink="http://www.w3.org/1999/xlink">
	<desc>
			Created with Pixso.
	</desc>
	<defs/>
	<path id="矢量 1" d="M69.01 164.58C69.01 176.17 59.59 185.58 48.01 185.58C36.42 185.58 27.01 176.17 27.01 164.58C27.01 153 36.42 143.58 48.01 143.58C59.59 143.58 69.01 153 69.01 164.58Z" fill="#FF0000" fill-opacity="1.000000" fill-rule="evenodd"/>
	<path id="矢量 1" d="M48.01 185.58C36.42 185.58 27.01 176.17 27.01 164.58C27.01 153 36.42 143.58 48.01 143.58C59.59 143.58 69.01 153 69.01 164.58C69.01 176.17 59.59 185.58 48.01 185.58ZM79.42 132.58C79.42 132.58 65.47 122.24 69.87 98.57C74.26 74.89 97.01 63.34 97.01 37.9C97.01 12.46 79.42 5.58 79.42 5.58M45.81 126.58C45.81 126.58 35.35 118.27 38.65 99.26C41.95 80.25 59.01 70.97 59.01 50.54C59.01 30.11 45.81 24.58 45.81 24.58M11.21 138.58C11.21 138.58 4.24 132.96 6.44 120.1C8.64 107.24 20.01 100.96 20.01 87.14C20.01 73.32 11.21 69.58 11.21 69.58" stroke="#FF0000" stroke-opacity="1.000000" stroke-width="12.000000"/>
</svg>
