<svg width="112.062508" height="198.937500" viewBox="0 0 112.063 198.938" fill="none" xmlns="http://www.w3.org/2000/svg" xmlns:xlink="http://www.w3.org/1999/xlink">
	<desc>
			Created with Pixso.
	</desc>
	<defs/>
	<path id="path" d="M101.65 181.65L20.4 98.53L101.65 17.28C103.53 15.4 103.53 12.28 101.65 10.4C99.78 8.53 96.65 8.53 94.78 10.4L10.4 95.4C8.53 97.28 8.53 100.4 10.4 102.28L94.78 188.53C96.65 190.4 99.78 190.4 101.65 188.53C103.53 186.65 103.53 183.53 101.65 181.65Z" fill="#FF3900" fill-opacity="1.000000" fill-rule="nonzero"/>
	<path id="path" d="M20.4 98.53L101.65 17.28C103.53 15.4 103.53 12.28 101.65 10.4C99.78 8.53 96.65 8.53 94.78 10.4L10.4 95.4C8.53 97.28 8.53 100.4 10.4 102.28L94.78 188.53C96.65 190.4 99.78 190.4 101.65 188.53C103.53 186.65 103.53 183.53 101.65 181.65L20.4 98.53Z" stroke="#FF3900" stroke-opacity="1.000000" stroke-width="18.000000"/>
</svg>
