<svg width="112.062500" height="198.937500" viewBox="0 0 112.062 198.938" fill="none" xmlns="http://www.w3.org/2000/svg" xmlns:xlink="http://www.w3.org/1999/xlink">
	<desc>
			Created with Pixso.
	</desc>
	<defs/>
	<path id="path" d="M101.65 95.4L17.28 10.4C15.4 8.53 12.28 8.53 10.4 10.4C8.53 12.28 8.53 15.4 10.4 17.28L91.65 98.53L10.4 181.65C8.53 183.53 8.53 186.65 10.4 188.53C12.28 190.4 15.4 190.4 17.28 188.53L101.65 102.28C103.53 100.4 103.53 97.28 101.65 95.4Z" fill="#FF3900" fill-opacity="1.000000" fill-rule="nonzero"/>
	<path id="path" d="M17.28 10.4C15.4 8.53 12.28 8.53 10.4 10.4C8.53 12.28 8.53 15.4 10.4 17.28L91.65 98.53L10.4 181.65C8.53 183.53 8.53 186.65 10.4 188.53C12.28 190.4 15.4 190.4 17.28 188.53L101.65 102.28C103.53 100.4 103.53 97.28 101.65 95.4L17.28 10.4Z" stroke="#FF3900" stroke-opacity="1.000000" stroke-width="18.000000"/>
</svg>
