<?xml version="1.0" standalone="no"?><!DOCTYPE svg PUBLIC "-//W3C//DTD SVG 1.1//EN" "http://www.w3.org/Graphics/SVG/1.1/DTD/svg11.dtd"><svg t="1733490989805" class="icon" viewBox="0 0 1024 1024" version="1.1" xmlns="http://www.w3.org/2000/svg" p-id="8855" xmlns:xlink="http://www.w3.org/1999/xlink" width="200" height="200"><path d="M427.491556 99.157333l-0.284445 253.155556L113.351111 499.541333C85.873778 516.209778 56.576 531.399111 56.576 587.320889c0 28.444444 0.113778 87.779556 85.447111 87.893333l284.842667-29.184-0.227556 209.464889-118.840889 73.386667c-17.749333 10.808889-24.405333 23.495111-23.665777 39.196444 0.910222 8.419556-5.916444 55.921778 31.004444 55.921778l196.608-25.258667 196.551111 25.258667c26.737778 0 30.833778-21.333333 31.687111-55.409778 0-22.186667-7.964444-25.486222-26.851555-38.286222l-115.882667-75.093333-0.341333-208.668445 284.615111 29.468445c85.333333 0.056889 85.333333-59.278222 85.276444-87.779556-0.056889-55.921778-29.411556-71.111111-57.002666-87.836444l-313.457778-148.366223-0.398222-252.871111C595.939556 49.265778 560.440889 0.056889 512.256 0c-48.184889-0.056889-84.821333 49.265778-84.764444 99.157333z m123.221333-5.859555l0.512 296.789333 326.371555 156.785778c17.976889 9.728 32.312889 29.923556 32.312889 41.301333 0 32.426667-18.716444 36.295111-31.288889 35.612445l-327.111111-50.289778 0.568889 317.610667 130.616889 77.368888c-21.902222 0-171.292444-22.300444-174.421333-22.300444-1.991111 0-148.707556 22.016-166.855111 21.959111l125.326222-74.183111 2.844444-320.113778-324.778666 49.948445c-10.126222 0.568889-31.288889-6.712889-31.288889-36.408889-0.056889-11.377778 15.075556-30.435556 32.995555-40.106667L471.296 390.883556l2.616889-297.528889c0-20.935111 20.992-40.391111 38.855111-40.391111 17.863111 0 37.944889 19.399111 38.001778 40.391111z" fill="#666666" p-id="8856"></path></svg>